<svg width="70" height="78" viewBox="0 0 70 78" fill="none" xmlns="http://www.w3.org/2000/svg">
<g clip-path="url(#clip0_157_69)">
<path d="M69.9964 22.9098C69.9959 21.5998 69.7129 20.442 69.1406 19.4483C68.5789 18.4711 67.737 17.6521 66.6083 17.0045C57.2895 11.6824 47.9612 6.3765 38.6455 1.04894C36.1339 -0.38729 33.699 -0.335019 31.2058 1.12206C27.4966 3.28873 8.92609 13.8269 3.39199 17.0016C1.11316 18.3083 0.00410156 20.3082 0.00355469 22.9071C0 33.6107 0.00355469 44.3137 0 55.0174C0 56.2984 0.271523 57.434 0.818398 58.4128C1.38059 59.4195 2.23398 60.261 3.38898 60.9231C8.92336 64.0979 27.4963 74.6354 31.2047 76.8024C33.6987 78.26 36.1339 78.3123 38.6463 76.8755C47.9623 71.5477 57.2909 66.242 66.6113 60.9199C67.7663 60.258 68.6197 59.416 69.1819 58.4101C69.7279 57.4313 70 56.296 70 55.0141C70 55.0141 70 33.6134 69.9964 22.9098" fill="#649AD2"/>
<path d="M35.1072 38.8582L0.818115 58.4129C1.38058 59.4195 2.23397 60.261 3.38897 60.9232C8.92335 64.0979 27.4963 74.6355 31.2047 76.8024C33.6987 78.2601 36.1339 78.3123 38.6463 76.8756C47.9623 71.5477 57.2909 66.2421 66.6113 60.92C67.7663 60.258 68.6197 59.416 69.1819 58.4102L35.1072 38.8582" fill="#004482"/>
<path d="M24.9512 44.6505C26.9464 48.1003 30.6972 50.4273 35 50.4273C39.3293 50.4273 43.1014 48.0711 45.0866 44.5838L35.1072 38.8582L24.9512 44.6505Z" fill="#1A4674"/>
<path d="M69.9964 22.9098C69.9959 21.5997 69.7129 20.4419 69.1406 19.4482L35.1072 38.8581L69.1819 58.4101C69.7279 57.4313 69.9994 56.2959 70 55.0141C70 55.0141 70 33.6134 69.9964 22.9098" fill="#01589C"/>
<path d="M68.1228 40.2556H65.46V42.8935H62.7968V40.2556H60.1343V37.6188H62.7968V34.9814H65.46V37.6188H68.1228V40.2559V40.2556ZM34.9999 15.9377C43.5134 15.9377 50.9572 20.4715 55.0073 27.2339L55.1287 27.4395L45.0113 33.2101C43.0062 29.7952 39.2751 27.4972 34.9999 27.4972C28.607 27.4972 23.4245 32.6303 23.4245 38.9621C23.4224 40.9578 23.9487 42.9192 24.9511 44.6504C26.9464 48.1003 30.6971 50.4273 34.9999 50.4273C39.2817 50.4273 43.0185 48.1225 45.0206 44.6983L45.0865 44.5838L55.1892 50.3812C51.1833 57.3138 43.6425 61.9867 34.9999 61.9867C26.3732 61.9867 18.8441 57.3325 14.8328 50.4202C12.8745 47.0459 11.7539 43.1337 11.7539 38.9621C11.7539 26.2465 22.1612 15.9377 34.9999 15.9377V15.9377ZM55.7443 34.9811V37.6185H58.4067V40.2556H55.7443V42.8935H53.0815V40.2556H50.4188V37.6188H53.0815V34.9814H55.7443V34.9811Z" fill="white"/>
</g>
<defs>
<clipPath id="clip0_157_69">
<rect width="70" height="78" fill="white"/>
</clipPath>
</defs>
</svg>
