<svg width="86" height="86" viewBox="0 0 86 86" fill="none" xmlns="http://www.w3.org/2000/svg">
<path d="M15.8616 73.1027L9.82544 5.375H76.1744L70.1302 73.0919L42.9596 80.625L15.8616 73.1027Z" fill="#1572B6"/>
<path d="M43 74.8683L64.9569 68.7811L70.1222 10.9138H43V74.8683Z" fill="#33A9DC"/>
<path d="M43 35.4507H53.9919L54.7497 26.9448H43V18.6377H63.8281L63.6293 20.8656L61.5894 43.7578H43V35.4507Z" fill="white"/>
<path d="M43.0511 57.0235L43.0135 57.0342L33.7631 54.5348L33.1718 47.9102H24.8325L25.9962 60.9526L43.0108 65.6772L43.0511 65.6665V57.0235Z" fill="#EBEBEB"/>
<path d="M53.285 43.4058L52.2853 54.5293L43.0215 57.0287V65.6717L60.0495 60.9525L60.1758 59.5496L61.619 43.4058H53.285Z" fill="white"/>
<path d="M43.0295 18.6377V26.9448H22.9647L22.798 25.0769L22.4191 20.8656L22.2202 18.6377H43.0295ZM43 35.4507V43.7578H33.8652L33.6985 41.8899L33.3223 37.6786L33.1234 35.4507H43Z" fill="#EBEBEB"/>
</svg>
