<svg width="256" height="256" viewBox="0 0 256 256" fill="none" xmlns="http://www.w3.org/2000/svg">
<g clip-path="url(#clip0_395_30)">
<path d="M0 0H256V256H0V0Z" fill="#512BD4"/>
<path d="M45.6273 163.555C43.8173 163.555 42.2793 162.952 41.0123 161.746C39.7453 160.509 39.1113 159.039 39.1113 157.338C39.1113 155.606 39.7453 154.122 41.0113 152.884C42.2793 151.647 43.8173 151.028 45.6273 151.028C47.4673 151.028 49.0213 151.647 50.2883 152.884C51.5863 154.122 52.2343 155.606 52.2343 157.338C52.2343 159.039 51.5863 160.508 50.2883 161.746C49.0213 162.952 47.4683 163.556 45.6283 163.556L45.6273 163.555ZM117.988 162.535H106.223L75.2253 113.63C74.4514 112.414 73.7996 111.124 73.2793 109.78H73.0073L73.0543 110.085L73.0973 110.435L73.1373 110.828L73.1753 111.264L73.2243 112L73.2663 112.832L73.3013 113.762L73.3293 114.79L73.3493 115.915L73.3593 116.72L73.3693 118.92V162.534H62.9613V96H75.4963L105.453 143.743L106.193 144.912L106.67 145.68L107.078 146.355L107.418 146.938L107.608 147.276L107.768 147.572L107.898 147.827H108.078L108.044 147.617L107.98 147.167L107.92 146.674L107.867 146.137C107.859 146.042 107.851 145.947 107.843 145.852L107.797 145.25L107.757 144.605L107.722 143.915L107.68 142.801L107.65 141.589L107.632 140.279L107.626 138.872V96H117.988V162.535V162.535ZM168.673 162.535H132.245V96H167.225V105.373H143.015V124.21H165.325V133.536H143.015V153.209H168.673V162.535ZM220.445 105.373H201.8V162.535H191.03V105.373H172.43V96H220.444V105.373H220.445Z" fill="white"/>
</g>
<defs>
<clipPath id="clip0_395_30">
<rect width="256" height="256" fill="white"/>
</clipPath>
</defs>
</svg>
