<svg width="56" height="83" viewBox="0 0 56 83" fill="none" xmlns="http://www.w3.org/2000/svg">
<g clip-path="url(#clip0_157_60)">
<path d="M14 82.9999C21.728 82.9999 28 76.8026 28 69.1666V55.3333H14C6.272 55.3333 0 61.5306 0 69.1666C0 76.8026 6.272 82.9999 14 82.9999Z" fill="#0ACF83"/>
<path d="M0 41.5001C0 33.8641 6.272 27.6667 14 27.6667H28V55.3334H14C6.272 55.3334 0 49.1361 0 41.5001Z" fill="#A259FF"/>
<path d="M0 13.8333C0 6.19733 6.272 0 14 0H28V27.6667H14C6.272 27.6667 0 21.4693 0 13.8333Z" fill="#F24E1E"/>
<path d="M28 0H42C49.728 0 56 6.19733 56 13.8333C56 21.4693 49.728 27.6667 42 27.6667H28V0Z" fill="#FF7262"/>
<path d="M56 41.5001C56 49.1361 49.728 55.3334 42 55.3334C34.272 55.3334 28 49.1361 28 41.5001C28 33.8641 34.272 27.6667 42 27.6667C49.728 27.6667 56 33.8641 56 41.5001Z" fill="#1ABCFE"/>
</g>
<defs>
<clipPath id="clip0_157_60">
<rect width="56" height="83" fill="white"/>
</clipPath>
</defs>
</svg>
