<svg width="512" height="192" viewBox="0 0 512 192" fill="none" xmlns="http://www.w3.org/2000/svg">
<g clip-path="url(#clip0_396_33)">
<path d="M292.533 13.295L293.657 14.045C306.869 22.77 316.342 34.736 322.574 49.195C324.07 51.438 323.073 52.685 320.081 53.432L315.018 54.728C303.571 57.677 294.488 60.157 283.191 63.106L276.748 64.784C274.428 65.358 273.788 65.117 271.32 62.307L270.972 61.908C267.453 57.92 264.817 55.256 260.155 52.878L259.256 52.435C243.551 44.708 228.345 46.951 214.136 56.175C197.184 67.143 188.459 83.347 188.708 103.539C188.958 123.481 202.668 139.934 222.362 142.676C239.313 144.92 253.522 138.937 264.74 126.224C266.984 123.481 268.978 120.49 271.47 117H223.36C218.125 117 216.879 113.76 218.624 109.522L219.488 107.487C222.692 100.033 227.661 89.319 230.888 83.193L231.592 81.874C232.454 80.38 234.204 78.361 237.569 78.361H317.793C321.396 66.946 327.242 56.16 335.039 45.954C353.237 22.023 375.174 9.558 404.839 4.324C430.266 -0.164001 454.198 2.329 475.885 17.037C495.579 30.498 507.794 48.697 511.035 72.627C515.272 106.281 505.55 133.702 482.367 157.135C465.914 173.837 445.722 184.307 422.538 189.043C415.808 190.29 409.077 190.539 402.596 191.287C379.911 190.788 359.22 184.307 341.77 169.35C329.497 158.74 321.043 145.702 316.842 130.522C313.894 136.471 310.388 142.126 306.372 147.412C288.423 171.095 264.991 185.802 235.326 189.792C210.896 193.032 188.211 188.295 168.268 173.338C149.821 159.378 139.351 140.931 136.608 117.998C133.368 90.825 141.345 66.395 157.798 44.957C175.498 21.773 198.93 7.066 227.598 1.831C250.597 -2.329 272.635 0.235999 292.534 13.295H292.533ZM411.12 49.017L410.322 49.195C387.139 54.43 372.182 69.137 366.698 92.57C362.21 112.014 371.683 131.708 389.632 139.685C403.342 145.668 417.053 144.92 430.265 138.189C449.959 127.969 460.678 112.014 461.925 90.576C461.675 87.336 461.675 84.842 461.176 82.349C456.74 57.948 434.512 44.025 411.12 49.017V49.017ZM116.416 94.564C117.413 94.564 117.912 95.312 117.912 96.309L117.413 102.292C117.413 103.289 116.416 104.037 115.668 104.037L61.324 103.788C60.327 103.788 60.078 103.04 60.576 102.292L64.066 96.06C64.565 95.312 65.562 94.564 66.559 94.564H116.416V94.564ZM121.9 71.63C122.897 71.63 123.396 72.378 123.147 73.126L121.152 79.109C120.903 80.106 119.906 80.604 118.909 80.604L0.997024 80.854C2.40207e-05 80.854 -0.248976 80.355 0.249024 79.607L5.48402 72.877C5.98302 72.129 7.22902 71.63 8.22602 71.63H121.9ZM134.863 48.696C135.86 48.696 136.109 49.444 135.611 50.192L131.373 56.673C130.874 57.421 129.628 58.169 128.88 58.169L38.64 57.919C37.642 57.919 37.393 57.421 37.891 56.673L43.126 49.943C43.625 49.195 44.871 48.696 45.868 48.696H134.863Z" fill="#00ACD7"/>
</g>
<defs>
<clipPath id="clip0_396_33">
<rect width="512" height="192" fill="white"/>
</clipPath>
</defs>
</svg>
