<svg width="98" height="98" viewBox="0 0 98 98" fill="none" xmlns="http://www.w3.org/2000/svg">
<path d="M18.0749 83.3031L11.1935 6.125H86.8066L79.916 83.2908L48.9541 91.875L18.0749 83.3031Z" fill="#E44F26"/>
<path d="M49 85.3151L74.0206 78.3785L79.9067 12.4368H49V85.3151Z" fill="#F1662A"/>
<path d="M49 41.0589H36.4744L35.6108 31.3661H49V21.8999H25.2656L25.4923 24.4418L27.8167 50.5251H49V41.0589ZM49 65.6416L48.9571 65.6538L38.416 62.8088L37.7423 55.2597H28.2393L29.5654 70.119L48.9571 75.5028L49 75.4906V65.6416Z" fill="#EBEBEB"/>
<path d="M48.9663 41.0589V50.5251H60.6222L59.5258 62.8027L48.9663 65.6508V75.4998L68.3734 70.119L68.5142 68.5203L70.7376 43.6008L70.9704 41.0589H48.9663ZM48.9663 21.8999V31.3661H71.8309L72.0208 29.2407L72.4526 24.4418L72.6792 21.8999H48.9663Z" fill="white"/>
</svg>
