<svg width="84" height="84" viewBox="0 0 84 84" fill="none" xmlns="http://www.w3.org/2000/svg">
<g clip-path="url(#clip0_157_45)">
<path d="M0 0H84V84H0V0Z" fill="#F7DF1E"/>
<path d="M22.0868 70.1965L28.5147 66.3063C29.755 68.505 30.8831 70.3655 33.5892 70.3655C36.183 70.3655 37.8187 69.351 37.8187 65.4043V38.5643H45.7124V65.5158C45.7124 73.6917 40.9198 77.4133 33.9275 77.4133C27.6127 77.4133 23.9472 74.1429 22.0864 70.1959M50 69.3506L56.4273 65.6294C58.1195 68.3925 60.3186 70.4223 64.2088 70.4223C67.4799 70.4223 69.5655 68.7869 69.5655 66.5314C69.5655 63.825 67.4228 62.8662 63.8141 61.2879L61.8411 60.4414C56.1458 58.0175 52.3681 54.9725 52.3681 48.5445C52.3681 42.6239 56.8788 38.1128 63.9273 38.1128C68.9456 38.1128 72.5543 39.861 75.1478 44.4282L69.0014 48.3756C67.6479 45.951 66.1825 44.9926 63.927 44.9926C61.615 44.9926 60.1489 46.4587 60.1489 48.3756C60.1489 50.7436 61.615 51.7027 64.998 53.1688L66.9713 54.0144C73.6815 56.8904 77.4592 59.8222 77.4592 66.4188C77.4592 73.524 71.8771 77.4143 64.3778 77.4143C57.0478 77.4143 52.3113 73.9184 49.9997 69.351" fill="black"/>
</g>
<defs>
<clipPath id="clip0_157_45">
<rect width="84" height="84" fill="white"/>
</clipPath>
</defs>
</svg>
