<svg width="86" height="85" viewBox="0 0 86 85" fill="none" xmlns="http://www.w3.org/2000/svg">
<g clip-path="url(#clip0_157_66)">
<path d="M42.636 0.0239258C20.8565 0.0239258 22.2163 9.39559 22.2163 9.39559L22.2405 19.1049H43.0243V22.0199H13.9855C13.9855 22.0199 0.0488281 20.4516 0.0488281 42.2566C0.0488281 64.0623 12.2131 63.2889 12.2131 63.2889H19.4727V53.1703C19.4727 53.1703 19.0814 41.1003 31.4429 41.1003H52.0567C52.0567 41.1003 63.6381 41.2859 63.6381 29.9939V11.3233C63.6381 11.3233 65.3971 0.0239258 42.636 0.0239258ZM31.1758 6.55326C31.6669 6.55282 32.1533 6.64848 32.6072 6.83477C33.061 7.02106 33.4734 7.29432 33.8206 7.63892C34.1679 7.98351 34.4433 8.39267 34.6311 8.84299C34.8188 9.2933 34.9152 9.77593 34.9148 10.2633C34.9152 10.7506 34.8188 11.2332 34.6311 11.6835C34.4433 12.1339 34.1679 12.543 33.8206 12.8876C33.4734 13.2322 33.061 13.5055 32.6072 13.6917C32.1533 13.878 31.6669 13.9737 31.1758 13.9733C30.6847 13.9737 30.1983 13.878 29.7444 13.6917C29.2906 13.5055 28.8782 13.2322 28.5309 12.8876C28.1837 12.543 27.9083 12.1339 27.7205 11.6835C27.5328 11.2332 27.4364 10.7506 27.4368 10.2633C27.4364 9.77593 27.5328 9.2933 27.7205 8.84299C27.9083 8.39267 28.1837 7.98351 28.5309 7.63892C28.8782 7.29432 29.2906 7.02106 29.7444 6.83477C30.1983 6.64848 30.6847 6.55282 31.1758 6.55326Z" fill="url(#paint0_linear_157_66)"/>
<path d="M43.2542 84.7086C65.0337 84.7086 63.6738 75.3369 63.6738 75.3369L63.6496 65.6279H42.8655V62.7129H71.9043C71.9043 62.7129 85.841 64.2812 85.841 42.4756C85.841 20.6702 73.6767 21.4436 73.6767 21.4436H66.4171V31.5619C66.4171 31.5619 66.8085 43.6319 54.447 43.6319H33.8332C33.8332 43.6319 22.2517 43.4462 22.2517 54.7386V73.4096C22.2517 73.4096 20.4931 84.7086 43.2539 84.7086H43.2542ZM54.7144 78.1799C54.2232 78.1803 53.7368 78.0847 53.283 77.8984C52.8292 77.7121 52.4168 77.4388 52.0695 77.0943C51.7222 76.7497 51.4468 76.3405 51.2591 75.8902C51.0714 75.4399 50.9749 74.9572 50.9754 74.4699C50.9749 73.9826 51.0713 73.4999 51.259 73.0495C51.4467 72.5992 51.7221 72.19 52.0694 71.8453C52.4167 71.5007 52.8291 71.2274 53.2829 71.0411C53.7368 70.8548 54.2232 70.7591 54.7144 70.7596C55.2055 70.7591 55.6919 70.8548 56.1457 71.0411C56.5996 71.2274 57.0119 71.5006 57.3592 71.8452C57.7065 72.1898 57.9819 72.599 58.1696 73.0493C58.3574 73.4996 58.4538 73.9822 58.4534 74.4696C58.4538 74.9569 58.3574 75.4395 58.1696 75.8898C57.9819 76.3402 57.7065 76.7493 57.3592 77.0939C57.0119 77.4385 56.5996 77.7118 56.1457 77.8981C55.6919 78.0844 55.2055 78.18 54.7144 78.1796V78.1799Z" fill="url(#paint1_linear_157_66)"/>
</g>
<defs>
<linearGradient id="paint0_linear_157_66" x1="8.29345" y1="7.64081" x2="50.482" y2="49.7348" gradientUnits="userSpaceOnUse">
<stop stop-color="#387EB8"/>
<stop offset="1" stop-color="#366994"/>
</linearGradient>
<linearGradient id="paint1_linear_157_66" x1="34.3896" y1="34.4602" x2="79.7115" y2="77.6392" gradientUnits="userSpaceOnUse">
<stop stop-color="#FFE052"/>
<stop offset="1" stop-color="#FFC331"/>
</linearGradient>
<clipPath id="clip0_157_66">
<rect width="86" height="85" fill="white"/>
</clipPath>
</defs>
</svg>
