<svg width="92" height="92" viewBox="0 0 92 92" fill="none" xmlns="http://www.w3.org/2000/svg">
<path d="M46 53.1128C49.9695 53.1128 53.1875 49.8948 53.1875 45.9253C53.1875 41.9557 49.9695 38.7378 46 38.7378C42.0305 38.7378 38.8125 41.9557 38.8125 45.9253C38.8125 49.8948 42.0305 53.1128 46 53.1128Z" fill="#00D8FF"/>
<path d="M46 62.4047C37.361 62.6136 28.7437 61.4491 20.47 58.9547C16.648 57.7431 13.0834 55.8345 9.95613 53.3254C8.7628 52.4683 7.76903 51.3631 7.04301 50.0857C6.31699 48.8083 5.8759 47.389 5.75 45.9252C5.75 41.1728 10.971 36.5153 19.7167 33.4678C28.2116 30.7674 37.0873 29.4587 46 29.5923C54.7938 29.4694 63.5506 30.7545 71.9382 33.3988C75.6191 34.5722 79.0629 36.3886 82.11 38.7635C83.2829 39.5807 84.2618 40.6459 84.9772 41.8835C85.6927 43.1211 86.1272 44.5009 86.25 45.9252C86.25 50.8644 80.4137 55.8698 71.0125 58.9805C62.899 61.3937 54.4635 62.5485 46 62.4047ZM46 33.0308C37.4731 32.9168 28.9824 34.161 20.8466 36.7165C12.7966 39.5254 9.1885 43.3664 9.1885 45.9165C9.1885 48.5845 13.0669 52.7792 21.5826 55.6915C29.4977 58.0659 37.739 59.1711 46 58.9662C54.0972 59.111 62.1688 58.0154 69.9344 55.7174C78.775 52.7878 82.8 48.5874 82.8 45.9252C82.6549 45.0116 82.322 44.138 81.8222 43.3596C81.3224 42.5812 80.6666 41.9149 79.8963 41.4028C77.17 39.2958 74.0936 37.6861 70.8084 36.6475C62.7843 34.1283 54.4093 32.9074 46 33.0308Z" fill="#00D8FF"/>
<path d="M29.67 81.7736C28.3288 81.8044 27.0034 81.479 25.829 80.8306C21.712 78.4559 20.286 71.6076 22.0139 62.5082C23.919 53.8001 27.2199 45.4575 31.7889 37.8034C36.0747 30.1245 41.5615 23.1809 48.0412 17.2356C50.8966 14.6329 54.1905 12.5567 57.7702 11.1032C59.065 10.4964 60.4774 10.1819 61.9074 10.1819C63.3373 10.1819 64.7497 10.4964 66.0445 11.1032C70.3253 13.57 71.7427 21.1255 69.7446 30.8229C67.7807 39.0585 64.5655 46.9442 60.2111 54.2052C56.0761 61.7934 50.762 68.6766 44.4676 74.5976C41.5086 77.3024 38.0746 79.4361 34.339 80.891C32.8435 81.446 31.2649 81.7444 29.67 81.7736ZM34.7674 39.5111C30.4091 46.8404 27.2454 54.8168 25.3949 63.1407C23.805 71.5214 25.3316 76.5612 27.5511 77.8435C29.8511 79.1746 35.4344 77.9125 42.2136 71.99C48.2224 66.3175 53.2945 59.7287 57.2412 52.4687C61.4127 45.5271 64.4968 37.9878 66.3866 30.1127C68.2668 20.9846 66.6425 15.3956 64.3367 14.0674C63.4725 13.7362 62.549 13.588 61.6246 13.6321C60.7002 13.6761 59.795 13.9114 58.9662 14.3232C55.7798 15.6381 52.8503 17.5048 50.3125 19.8375C44.1217 25.5322 38.8806 32.1797 34.7875 39.5284L34.7674 39.5111Z" fill="#00D8FF"/>
<path d="M62.3214 81.8109C58.4258 81.8109 53.4779 79.4534 48.3259 75.0231C41.7326 69.0237 36.1531 61.9976 31.8033 54.2167C27.2916 46.668 24.0168 38.446 22.103 29.8626C21.273 26.0862 21.1192 22.1926 21.6488 18.3626C21.7712 16.9418 22.2038 15.5651 22.9162 14.3297C23.6285 13.0943 24.6032 12.0302 25.7715 11.2124C30.0466 8.73706 37.3003 11.2814 44.7034 17.8537C50.8576 23.6675 56.0838 30.3907 60.1996 37.7889C64.7085 45.1614 68.0176 53.2033 70.0034 61.6141C70.8691 65.529 71.0026 69.5703 70.3973 73.5338C70.2532 74.9955 69.7948 76.4087 69.0534 77.6766C68.312 78.9445 67.3052 80.0371 66.102 80.8794C64.9467 81.5198 63.6419 81.8412 62.3214 81.8109ZM34.7789 52.4859C38.9517 59.9219 44.2816 66.6463 50.5684 72.4068C57.0343 77.9699 62.1633 79.1659 64.3684 77.8693C66.6684 76.5324 68.3646 71.0757 66.6166 62.2466C64.7015 54.2165 61.5276 46.5402 57.2125 39.5024C53.2848 32.4217 48.2964 25.9838 42.4206 20.4124C35.4516 14.2254 29.7994 12.8426 27.4965 14.1766C26.7787 14.7598 26.1897 15.4856 25.7666 16.3081C25.3435 17.1305 25.0956 18.0317 25.0384 18.9548C24.5813 22.3706 24.7302 25.8402 25.4783 29.2042C27.3191 37.4127 30.4599 45.2743 34.7818 52.4917L34.7789 52.4859Z" fill="#00D8FF"/>
</svg>
