<svg width="327" height="227" viewBox="0 0 327 227" fill="none" xmlns="http://www.w3.org/2000/svg">
<path d="M10.999 89.6341C11.8111 89.108 12.6852 88.7009 13.5978 88.4237L14.1308 85.6686L18.4699 85.5825L19.1114 88.3224C20.0308 88.5643 20.9159 88.9373 21.7431 89.4315L23.9363 87.9122L27.0586 91.1534L25.7003 93.559C26.1901 94.4293 26.5692 95.3661 26.8275 96.3444L29.3933 96.9218L29.4734 101.581L26.9218 102.25C26.6974 103.239 26.35 104.191 25.8889 105.081L27.3039 107.436L24.2995 110.763L22.0592 109.304C21.2477 109.828 20.3755 110.235 19.4651 110.515L18.9274 113.27L14.5883 113.351L13.9657 110.616C13.0443 110.373 12.1575 109.998 11.3292 109.502L9.1313 111.031L6.00899 107.795L7.36734 105.389C6.87933 104.516 6.50033 103.578 6.2401 102.599L3.67434 102.027L3.59888 97.3674L6.14577 96.6939C6.37312 95.7073 6.7204 94.7572 7.17868 93.8679L5.76374 91.513L8.77756 88.1603L11.0179 89.6189L10.999 89.6341ZM13.3148 95.838C12.678 96.5501 12.2518 97.4488 12.09 98.4207C11.9283 99.3926 12.0382 100.394 12.4059 101.299C12.7736 102.204 13.3826 102.972 14.1561 103.505C14.9297 104.039 15.8331 104.315 16.7524 104.298C17.6717 104.281 18.5658 103.972 19.3218 103.41C20.0779 102.848 20.662 102.059 21.0006 101.141C21.3392 100.223 21.4171 99.2179 21.2244 98.2526C21.0317 97.2872 20.5771 96.4047 19.9179 95.7164C19.4778 95.257 18.9575 94.8955 18.3869 94.6528C17.8162 94.4101 17.2065 94.291 16.5928 94.3023C15.9791 94.3136 15.3735 94.4551 14.811 94.7186C14.2484 94.9822 13.7399 95.3626 13.3148 95.838V95.838Z" fill="#EBEBEB"/>
<path d="M17.3896 22.1909C18.2018 21.6649 19.0758 21.2578 19.9884 20.9805L20.5261 18.2204L24.8653 18.1394L25.4878 20.8843C26.4068 21.1302 27.2916 21.5048 28.1196 21.9985L30.3128 20.4538L33.4351 23.6951L32.0767 26.1007C32.5666 26.971 32.9457 27.9078 33.204 28.8861L35.7745 29.4635L35.8499 34.1227L33.2983 34.7912C33.0731 35.7721 32.7256 36.7158 32.2654 37.5969L33.6803 39.957L30.6618 43.3096L28.4215 41.846C27.612 42.3741 26.7393 42.7813 25.8274 43.0564L25.2897 45.8165L20.9506 45.8975L20.3516 43.1678C19.4309 42.9228 18.5444 42.5481 17.7151 42.0536L15.5219 43.573L12.3996 40.3368L13.7627 37.9261C13.2713 37.056 12.8906 36.1192 12.6307 35.1407L10.065 34.5684L9.9895 29.9091L12.5364 29.2356C12.7661 28.2635 13.115 27.3286 13.574 26.4552L12.1591 24.1002L15.1493 20.7324L17.3896 22.1909ZM19.7054 28.3999C19.0691 29.1126 18.6435 30.0116 18.4824 30.9836C18.3213 31.9556 18.4319 32.9571 18.8002 33.8617C19.1685 34.7663 19.778 35.5336 20.5519 36.0667C21.3258 36.5998 22.2294 36.8749 23.1487 36.8572C24.068 36.8396 24.9618 36.53 25.7175 35.9676C26.4732 35.4052 27.0568 34.6151 27.3948 33.6969C27.7328 32.7787 27.81 31.7737 27.6166 30.8084C27.4233 29.8432 26.9681 28.9611 26.3085 28.2733C25.8685 27.8136 25.348 27.4519 24.7771 27.2093C24.2062 26.9666 23.5963 26.8477 22.9824 26.8595C22.3685 26.8713 21.7629 27.0135 21.2005 27.2779C20.638 27.5422 20.1299 27.9236 19.7054 28.3999V28.3999Z" fill="#EBEBEB"/>
<path d="M112.092 48.3488C113.07 47.7126 114.123 47.2203 115.224 46.8852L115.87 43.5528L121.11 43.4565L121.864 46.7585C122.975 47.0515 124.044 47.5029 125.043 48.1006L127.694 46.2369L131.467 50.1467L129.826 53.0536C130.416 54.1051 130.875 55.2358 131.189 56.4164L134.287 57.1102L134.382 62.7368L131.302 63.5471C131.031 64.7405 130.611 65.8888 130.052 66.9605L131.788 69.8068L128.151 73.8583L125.444 72.0959C124.463 72.73 123.409 73.2222 122.308 73.5595L121.661 76.8868L116.421 76.9881L115.667 73.681C114.556 73.3885 113.487 72.9371 112.488 72.339L109.842 74.2027L106.069 70.2929L107.71 67.386C107.117 66.3361 106.658 65.2049 106.347 64.0232L103.244 63.3294L103.154 57.7028L106.229 56.8925C106.506 55.7011 106.926 54.5536 107.479 53.479L105.743 50.6379L109.385 46.5864L112.092 48.3538V48.3488ZM114.884 55.8289C114.112 56.6877 113.594 57.7731 113.396 58.9479C113.198 60.1226 113.329 61.334 113.772 62.4288C114.215 63.5237 114.951 64.4528 115.886 65.0988C116.821 65.7448 117.913 66.0787 119.025 66.0582C120.137 66.0376 121.218 65.6636 122.131 64.9835C123.045 64.3034 123.75 63.3476 124.158 62.237C124.566 61.1265 124.658 59.911 124.423 58.7442C124.187 57.5775 123.635 56.5118 122.836 55.6821C121.763 54.5701 120.323 53.9609 118.832 53.9884C117.341 54.016 115.921 54.678 114.884 55.8289V55.8289Z" fill="#EBEBEB"/>
<path d="M40.7315 11.7684C41.1414 11.4993 41.5844 11.2931 42.0474 11.1556L42.3163 9.74266L44.5094 9.70215L44.8254 11.0847C45.29 11.2082 45.7372 11.3973 46.1555 11.6469L47.2639 10.867L48.825 12.518L48.1364 13.7385C48.3851 14.1779 48.5771 14.6515 48.7071 15.1464L50.0041 15.4351L50.0419 17.79L48.7543 18.1294C48.6409 18.6287 48.4648 19.1092 48.2307 19.5575L48.9571 20.7527L47.4336 22.4442L46.3017 21.7048C45.8931 21.9731 45.4518 22.1793 44.9905 22.3176L44.7217 23.7154L42.5238 23.7559L42.2219 22.3733C41.7574 22.2498 41.3102 22.0608 40.8919 21.8112L39.7835 22.5911L38.2035 20.9553L38.9204 19.7348C38.6673 19.3035 38.4676 18.8388 38.3261 18.3522L37.0338 18.0382L36.9961 15.6832L38.2837 15.3439C38.3971 14.8446 38.5732 14.3641 38.8072 13.9158L38.0809 12.7205L39.6043 11.029L40.7363 11.7684H40.7315ZM41.9012 14.9033C41.5764 15.2631 41.3583 15.7184 41.2746 16.2114C41.1908 16.7044 41.2452 17.213 41.4308 17.6728C41.6164 18.1326 41.9249 18.5229 42.3172 18.7943C42.7095 19.0658 43.168 19.2061 43.6346 19.1976C44.1012 19.1891 44.555 19.0321 44.9385 18.7465C45.322 18.4609 45.6179 18.0595 45.7889 17.5932C45.9598 17.1269 45.9981 16.6166 45.8988 16.127C45.7995 15.6373 45.5671 15.1903 45.2311 14.8425C44.7816 14.3774 44.1786 14.1225 43.5544 14.1339C42.9302 14.1453 42.3357 14.422 41.9012 14.9033V14.9033Z" fill="#EBEBEB"/>
<path fill-rule="evenodd" clip-rule="evenodd" d="M272.725 28.5822C272.725 28.7569 272.677 28.9277 272.586 29.0728C272.496 29.2179 272.367 29.3309 272.216 29.3973C272.066 29.4636 271.9 29.4805 271.741 29.4457C271.582 29.4108 271.435 29.3259 271.321 29.2016C271.207 29.0774 271.129 28.9194 271.099 28.7478C271.068 28.5762 271.086 28.3987 271.149 28.2379C271.213 28.0771 271.319 27.9401 271.456 27.8445C271.592 27.7489 271.751 27.699 271.914 27.701C272.13 27.7037 272.336 27.7977 272.488 27.9626C272.64 28.1276 272.725 28.3502 272.725 28.5822V28.5822Z" fill="#E0E0E0"/>
<path fill-rule="evenodd" clip-rule="evenodd" d="M293.954 13.9916C293.955 14.1664 293.908 14.3374 293.818 14.4831C293.728 14.6288 293.6 14.7425 293.45 14.8099C293.3 14.8772 293.134 14.8951 292.975 14.8612C292.815 14.8274 292.668 14.7433 292.553 14.6198C292.438 14.4963 292.36 14.3388 292.329 14.1674C292.297 13.996 292.314 13.8184 292.376 13.6571C292.439 13.4959 292.545 13.3583 292.681 13.2619C292.816 13.1655 292.976 13.1145 293.138 13.1155C293.355 13.1155 293.562 13.2078 293.715 13.3721C293.868 13.5364 293.954 13.7593 293.954 13.9916V13.9916Z" fill="#E0E0E0"/>
<path d="M268.646 192.062C268.646 192.062 268.646 191.819 268.646 191.348C268.646 190.877 268.646 190.173 268.646 189.256C268.646 187.413 268.646 184.698 268.646 181.204C268.646 174.195 268.646 164.046 268.608 151.466C268.608 126.29 268.608 91.3762 268.57 52.3953V52.3649V52.3345C269.631 50.0707 270.778 47.6347 271.924 45.1835V45.2443V28.5824L272.046 28.709L164.383 28.6381L164.435 28.5824C164.435 33.9304 164.435 38.0376 164.435 40.8079C164.435 42.1888 164.435 43.2354 164.435 43.9478C164.435 44.6518 164.435 45.0114 164.435 45.0114C164.435 45.0114 164.435 44.6518 164.435 43.9478C164.435 43.2439 164.435 42.1905 164.435 40.8079C164.435 38.0376 164.435 33.9304 164.407 28.5824V28.5216H164.463L272.126 28.4507H272.244V28.5824C272.244 33.8291 272.244 39.2177 272.244 44.7278V45.2342V45.2646L268.754 52.4358V52.375C268.754 91.3711 268.726 126.27 268.716 151.445C268.716 164.025 268.688 174.174 268.679 181.184C268.679 184.683 268.679 187.393 268.679 189.236C268.679 190.153 268.679 190.857 268.679 191.328C268.679 191.799 268.646 192.062 268.646 192.062Z" fill="#E0E0E0"/>
<path d="M289.79 91.9179C289.79 91.9179 289.79 91.6597 289.79 91.1583C289.79 90.6569 289.766 89.9124 289.747 88.9401C289.714 86.9903 289.667 84.1289 289.606 80.4572C289.497 73.1087 289.342 62.5341 289.134 49.6097C290.332 46.1794 291.59 42.5803 292.907 38.8124V38.8529C292.907 31.2917 292.907 22.9202 292.907 14.0727L293.025 14.1993H262.84H212.845H212.779L212.746 14.1334L209.779 7.39267L209.874 7.45345L176.104 7.40787L166.671 7.37748H164.195H163.346C163.346 7.37748 163.633 7.37748 164.195 7.37748H166.671L176.104 7.34709L209.874 7.30151H209.935L209.963 7.36229L212.958 13.9916L212.859 13.9258H262.854H293.138V14.0524C293.138 22.8999 293.138 31.2714 293.138 38.8326L289.365 49.6199V49.5793C289.521 62.5088 289.648 73.0833 289.738 80.4318C289.775 84.1035 289.808 86.9649 289.827 88.9147C289.827 89.8871 289.827 90.6265 289.827 91.133C289.799 91.6597 289.79 91.9179 289.79 91.9179Z" fill="#E0E0E0"/>
<path d="M283.908 97.58C283.908 97.58 283.908 97.2964 283.875 96.7393C283.842 96.1822 283.842 95.3567 283.814 94.2831C283.767 92.1155 283.696 88.9351 283.601 84.8531C283.427 76.6741 283.177 64.8841 282.87 50.415L287.304 39.2733V39.3138C287.441 33.2365 287.592 26.6527 287.747 19.7195L287.86 19.8411H235.625L150.819 19.8056L150.885 19.7803L143.994 27.1187H143.961L120.987 26.9313L114.855 26.8604H113.271H112.738H113.271H114.855H120.987L143.923 26.9971H143.867C146.011 24.6877 148.305 22.2197 150.748 19.5929L150.771 19.5626H150.809L235.616 19.5271H287.851H287.964V19.6537C287.804 26.5616 287.643 33.1504 287.493 39.248C285.941 43.1375 284.45 46.8446 283.04 50.3897V50.3492C283.314 64.8233 283.512 76.6184 283.686 84.7873C283.757 88.8692 283.814 92.0497 283.851 94.2173C283.851 95.2909 283.88 96.1164 283.884 96.6735C283.889 97.2306 283.908 97.58 283.908 97.58Z" fill="#E0E0E0"/>
<path fill-rule="evenodd" clip-rule="evenodd" d="M114.153 26.7338C114.153 26.9081 114.104 27.0784 114.014 27.2233C113.924 27.3683 113.796 27.4812 113.646 27.5479C113.496 27.6146 113.331 27.632 113.172 27.598C113.013 27.564 112.866 27.4801 112.752 27.3569C112.637 27.2336 112.559 27.0766 112.527 26.9057C112.495 26.7347 112.512 26.5576 112.574 26.3965C112.636 26.2355 112.741 26.0979 112.876 26.0011C113.011 25.9042 113.17 25.8526 113.332 25.8526C113.44 25.8519 113.547 25.8742 113.647 25.9183C113.747 25.9623 113.837 26.0272 113.914 26.1092C113.99 26.1911 114.05 26.2885 114.091 26.3957C114.132 26.503 114.153 26.6179 114.153 26.7338V26.7338Z" fill="#E0E0E0"/>
<path fill-rule="evenodd" clip-rule="evenodd" d="M163.36 7.30162C163.36 7.47591 163.312 7.64628 163.222 7.79119C163.131 7.93611 163.003 8.04906 162.853 8.11575C162.703 8.18245 162.538 8.1999 162.379 8.1659C162.22 8.1319 162.074 8.04797 161.959 7.92473C161.844 7.80149 161.766 7.64448 161.734 7.47354C161.703 7.3026 161.719 7.12542 161.781 6.9644C161.843 6.80338 161.948 6.66575 162.083 6.56892C162.218 6.47209 162.377 6.42041 162.539 6.42041C162.757 6.42041 162.966 6.51325 163.119 6.67851C163.273 6.84377 163.36 7.06791 163.36 7.30162V7.30162Z" fill="#E0E0E0"/>
<path d="M299.571 190.391H282.427C287.445 172.068 288.586 137.721 287.747 114.966H294.053C293.723 137.64 295.246 171.804 299.571 190.391Z" fill="#EBEBEB"/>
<path d="M323.14 212.674C321.68 210.93 319.852 209.588 317.81 208.759C315.767 207.931 313.569 207.641 311.4 207.913C311.811 203.862 312.188 199.552 310.698 195.84C309.207 192.128 305.118 189.474 302.005 191.444C303.156 185.828 301.137 179.522 297.091 176.109C295.083 174.44 292.648 173.47 290.112 173.329C287.577 173.188 285.061 173.882 282.904 175.319C278.588 178.271 276.051 184.323 276.73 190.041C274.525 189.891 272.322 190.366 270.342 191.42C268.363 192.473 266.677 194.068 265.453 196.042C264.196 198.127 263.416 200.501 263.176 202.97C262.937 205.44 263.245 207.936 264.075 210.253C257.656 209.884 251.534 218.903 251.662 226.292L326.828 226.196C327.163 223.79 327.007 221.334 326.37 218.999C325.733 216.664 324.631 214.506 323.14 212.674V212.674Z" fill="#EBEBEB"/>
<path d="M285.304 81.2017L299.774 86.5598C302.967 90.0796 300.821 95.0478 298.124 96.9571C299.108 97.4665 299.917 98.2988 300.432 99.3337C300.947 100.369 301.143 101.553 300.991 102.715C300.839 103.877 300.346 104.957 299.585 105.799C298.824 106.641 297.833 107.202 296.756 107.4C297.116 107.979 297.357 108.633 297.466 109.32C297.574 110.006 297.547 110.709 297.385 111.383C297.223 112.058 296.931 112.688 296.527 113.232C296.123 113.777 295.617 114.224 295.041 114.545C294.466 114.865 293.834 115.052 293.187 115.092C292.539 115.133 291.891 115.026 291.285 114.78C290.679 114.533 290.127 114.152 289.667 113.662C289.207 113.171 288.849 112.582 288.615 111.933C288.007 110.216 288.294 108.19 287.436 106.605C286.625 105.121 285.026 104.407 283.72 103.404C280.484 100.923 279.003 96.3139 279.475 92.075C279.946 87.8361 282.29 84.0023 285.304 81.2017Z" fill="#EBEBEB"/>
<path d="M294.492 84.7214C295.047 86.2553 295.313 87.8924 295.275 89.5377C295.268 89.7713 295.192 89.9965 295.059 90.1815C294.926 90.3665 294.742 90.5019 294.534 90.5686C294.325 90.6352 294.102 90.6297 293.897 90.5529C293.691 90.476 293.513 90.3317 293.388 90.1404V90.1404C293.45 92.1514 293.388 94.1646 293.204 96.167C293.181 96.4488 293.076 96.7158 292.906 96.9316C292.735 97.1473 292.507 97.3012 292.252 97.3721C291.997 97.4431 291.728 97.4277 291.481 97.328C291.234 97.2283 291.022 97.0492 290.874 96.8153C288.19 92.613 287.017 87.508 287.573 82.4475L294.492 84.7214Z" fill="#E0E0E0"/>
<path d="M280.139 65.988L280.059 66.0539C277.809 67.9949 275.994 70.4539 274.747 73.2493C273.501 76.0447 272.855 79.105 272.857 82.2043V86.1394L280.135 80.7053L280.139 65.988Z" fill="#E0E0E0"/>
<path d="M300.93 65.9578L301.01 66.0236C303.229 67.9369 305.02 70.3609 306.25 73.1168C307.481 75.8727 308.119 78.8901 308.118 81.9462V85.8306L300.93 80.4775V65.9578Z" fill="#E0E0E0"/>
<path d="M290.521 27.4377C292.167 27.4377 295.195 31.9957 298.006 39.6379C299.671 44.1322 300.657 48.8835 300.925 53.712V86.5599H280.149V56.7506C280.134 53.8423 280.378 50.9391 280.875 48.0803C281.386 45.2038 282.11 42.3757 283.04 39.6228C285.677 31.9755 288.893 27.4681 290.521 27.4377Z" fill="#F5F5F5"/>
<path d="M280.356 81.2321C280.356 81.2675 284.964 81.3182 290.648 81.3536C296.331 81.3891 300.939 81.384 300.939 81.3536C300.939 81.3232 296.331 81.2675 290.648 81.2371C284.964 81.2068 280.356 81.2017 280.356 81.2321Z" fill="#E0E0E0"/>
<path d="M280.446 82.2297C280.446 82.2601 285.054 82.3158 290.737 82.3462C296.421 82.3766 301.029 82.3816 301.029 82.3462C301.029 82.3107 296.425 82.2601 290.737 82.2246C285.049 82.1892 280.446 82.1993 280.446 82.2297Z" fill="#E0E0E0"/>
<path d="M280.432 83.278C280.432 83.3134 285.04 83.3641 290.723 83.3995C296.407 83.435 301.015 83.4299 301.015 83.3995C301.015 83.3691 296.407 83.3134 290.723 83.2831C285.04 83.2527 280.432 83.2476 280.432 83.278Z" fill="#E0E0E0"/>
<path d="M280.404 84.3315C280.404 84.3619 285.012 84.4176 290.69 84.448C296.369 84.4784 300.987 84.4835 300.987 84.448C300.987 84.4125 296.379 84.367 290.695 84.3315C285.012 84.2961 280.404 84.2961 280.404 84.3315Z" fill="#E0E0E0"/>
<path d="M280.404 85.3797C280.404 85.4152 285.012 85.4658 290.695 85.5012C296.379 85.5367 300.987 85.5316 300.987 85.5012C300.987 85.4709 296.383 85.4152 290.695 85.3797C285.007 85.3443 280.404 85.3493 280.404 85.3797Z" fill="#E0E0E0"/>
<path d="M290.492 66.0083C290.49 66.0589 290.49 66.1096 290.492 66.1602C290.475 66.3081 290.466 66.4569 290.464 66.6059C290.464 66.9908 290.464 67.5529 290.464 68.2417C290.464 69.6243 290.464 71.5336 290.464 73.6404C290.464 75.7472 290.516 77.6615 290.544 79.0391C290.544 79.7228 290.572 80.2799 290.582 80.6799C290.582 80.8623 290.582 81.0091 290.582 81.1205C290.576 81.1727 290.576 81.2254 290.582 81.2775C290.586 81.2253 290.586 81.1728 290.582 81.1205C290.582 81.0091 290.582 80.8623 290.582 80.6749C290.582 80.2748 290.582 79.7228 290.582 79.0391C290.582 77.6463 290.553 75.7421 290.539 73.6404C290.525 71.5386 290.502 69.6344 290.487 68.2417C290.487 67.5631 290.487 67.006 290.487 66.6059C290.487 66.4135 290.487 66.2615 290.487 66.1602C290.495 66.11 290.497 66.059 290.492 66.0083Z" fill="#E0E0E0"/>
<path d="M280.14 65.9881C280.14 66.0185 284.752 66.0489 290.445 66.0489C296.138 66.0489 300.755 66.0235 300.755 65.9932C300.755 65.9628 296.138 65.9324 290.445 65.9324C284.752 65.9324 280.14 65.9577 280.14 65.9881Z" fill="#E0E0E0"/>
<path d="M288.832 76.8413C288.832 76.8413 288.799 76.7906 288.705 76.74C288.57 76.6779 288.421 76.6672 288.28 76.7096C288.17 76.734 288.067 76.7903 287.984 76.8724C287.901 76.9545 287.84 77.0592 287.808 77.1755C287.766 77.3163 287.764 77.4678 287.805 77.6093C287.845 77.7509 287.925 77.8756 288.034 77.9664C288.143 78.0573 288.275 78.1099 288.413 78.117C288.551 78.1241 288.687 78.0853 288.804 78.0061C288.9 77.9463 288.98 77.8597 289.035 77.7555C289.089 77.6513 289.117 77.5332 289.115 77.4136C289.115 77.2563 289.067 77.1034 288.978 76.978C288.917 76.8919 288.865 76.8666 288.86 76.8717C288.855 76.8767 288.893 76.9172 288.945 77.0033C289.011 77.128 289.042 77.2704 289.035 77.4136C289.033 77.5167 289.007 77.6176 288.958 77.7065C288.909 77.7953 288.84 77.8689 288.756 77.92C288.656 77.9858 288.54 78.0172 288.423 78.01C288.306 78.0028 288.193 77.9573 288.101 77.8796C288.009 77.8019 287.941 77.6957 287.906 77.5753C287.871 77.4549 287.872 77.326 287.907 77.2059C287.933 77.1079 287.981 77.0185 288.048 76.9466C288.115 76.8747 288.198 76.8227 288.289 76.7957C288.417 76.7522 288.554 76.7522 288.681 76.7957C288.78 76.8159 288.827 76.8463 288.832 76.8413Z" fill="#E0E0E0"/>
<path d="M288.719 70.5159C288.719 70.5159 288.686 70.4652 288.592 70.4196C288.458 70.3582 288.309 70.3457 288.167 70.3842C288.057 70.4092 287.955 70.4656 287.872 70.5476C287.789 70.6296 287.728 70.7341 287.696 70.8501C287.656 70.9914 287.656 71.142 287.696 71.2833C287.735 71.4247 287.812 71.5505 287.917 71.6452C288.028 71.7304 288.16 71.7794 288.296 71.7866C288.432 71.7938 288.568 71.7588 288.686 71.6857C288.762 71.6338 288.827 71.5657 288.877 71.4856C288.928 71.4055 288.962 71.3151 288.979 71.2201C288.995 71.1251 288.993 71.0274 288.973 70.9333C288.952 70.8391 288.914 70.7505 288.861 70.6729C288.799 70.5868 288.747 70.5564 288.743 70.5614C288.738 70.5665 288.78 70.6121 288.828 70.6982C288.894 70.8209 288.925 70.9618 288.917 71.1033C288.917 71.2068 288.892 71.3084 288.843 71.3974C288.794 71.4865 288.723 71.5599 288.639 71.6098C288.539 71.6748 288.424 71.7058 288.307 71.6986C288.191 71.6914 288.079 71.6464 287.987 71.5695C287.895 71.4926 287.827 71.3874 287.792 71.268C287.756 71.1486 287.756 71.0205 287.79 70.9008C287.815 70.802 287.863 70.7119 287.93 70.6391C287.997 70.5663 288.08 70.5134 288.172 70.4855C288.3 70.4473 288.435 70.4473 288.563 70.4855C288.667 70.4652 288.714 70.5159 288.719 70.5159Z" fill="#E0E0E0"/>
<path d="M289.964 99.9807C290.205 100.15 290.375 100.413 290.437 100.715C290.499 101.017 290.448 101.333 290.295 101.595C290.142 101.857 289.9 102.044 289.62 102.116C289.34 102.189 289.045 102.14 288.798 101.981C288.551 101.822 288.372 101.565 288.3 101.266C288.228 100.967 288.267 100.649 288.411 100.381C288.554 100.113 288.79 99.9162 289.067 99.8328C289.344 99.7494 289.641 99.7862 289.893 99.9351" fill="#E0E0E0"/>
<path d="M285.813 46.4191C285.2 47.4121 284.874 48.5782 284.877 49.77C284.88 50.9619 285.213 52.1259 285.832 53.115C286.451 54.1041 287.33 54.8737 288.356 55.3267C289.383 55.7797 290.512 55.8956 291.6 55.6598C292.688 55.424 293.686 54.8471 294.469 54.0021C295.252 53.157 295.784 52.0817 295.997 50.9121C296.211 49.7425 296.097 48.5312 295.669 47.4313C295.242 46.3314 294.52 45.3922 293.596 44.7326C292.982 44.2945 292.293 43.9906 291.57 43.8382C290.846 43.6859 290.102 43.6881 289.379 43.8447C288.657 44.0013 287.97 44.3093 287.358 44.751C286.746 45.1927 286.221 45.7595 285.813 46.4191V46.4191Z" fill="white"/>
<path d="M285.813 46.4191C286.108 46.0385 286.423 45.6767 286.757 45.3353C287.696 44.437 288.888 43.9022 290.143 43.816C291.063 43.7571 291.982 43.9469 292.816 44.368C293.65 44.7892 294.372 45.4282 294.916 46.2267C295.563 47.166 295.934 48.2909 295.982 49.4578C296.037 50.7106 295.717 51.9494 295.071 52.9941C294.425 54.0388 293.485 54.8349 292.388 55.2667C291.871 55.4755 291.327 55.5952 290.775 55.6212C290.246 55.6581 289.715 55.6068 289.2 55.4692C288.241 55.2163 287.363 54.6916 286.658 53.9499C286.036 53.3127 285.564 52.5265 285.281 51.6557C284.862 50.3858 284.853 49.0014 285.257 47.7257C285.417 47.2636 285.606 46.8136 285.823 46.3786C285.746 46.478 285.678 46.5848 285.62 46.6977C285.537 46.826 285.465 46.9615 285.403 47.1028C285.31 47.2917 285.231 47.4881 285.167 47.6903C284.795 48.786 284.724 49.9737 284.963 51.1115C285.203 52.2493 285.742 53.2892 286.516 54.1069C287.247 54.8748 288.156 55.4186 289.148 55.682C290.242 55.9705 291.392 55.9017 292.45 55.4844C293.604 55.0432 294.595 54.2132 295.275 53.1181C295.955 52.023 296.288 50.7214 296.223 49.4071C296.165 48.1927 295.777 47.0233 295.105 46.0443C294.497 45.1672 293.683 44.4787 292.747 44.049C291.745 43.6004 290.644 43.4708 289.575 43.6755C288.506 43.8803 287.515 44.4107 286.719 45.2036C286.571 45.3471 286.434 45.5029 286.309 45.6696C286.21 45.7848 286.12 45.9084 286.04 46.0393C285.948 46.154 285.872 46.2819 285.813 46.4191V46.4191Z" fill="#E0E0E0"/>
<path d="M290.521 27.4377C292.167 27.4377 295.195 31.9957 298.006 39.6379H283.04C285.677 31.9755 288.893 27.4681 290.521 27.4377Z" fill="#E0E0E0"/>
<path d="M290.521 27.4377L290.228 27.4731C289.953 27.5604 289.694 27.6956 289.459 27.8732C288.587 28.6004 287.833 29.4784 287.229 30.4713C285.578 33.0035 283.663 37.055 282.111 42.3727C281.283 45.3033 280.687 48.3036 280.328 51.3418C280.143 53.0447 280.045 54.7575 280.036 56.472C280.036 58.2395 280.036 60.0627 280.036 61.9366C280.036 69.4319 280.036 77.7426 280.036 86.5699V86.7219H301.071V86.5952C301.071 77.7629 301.071 69.4522 301.043 61.9568C301.043 60.083 301.043 58.2598 301.043 56.4923C301.043 55.606 301.043 54.7349 301.043 53.879C301.043 53.0232 300.944 52.1774 300.854 51.3468C300.509 48.3065 299.894 45.3084 299.02 42.3929C298.28 40.0164 297.398 37.6937 296.378 35.4395C295.626 33.7272 294.754 32.0783 293.77 30.5067C293.175 29.5089 292.434 28.6198 291.577 27.8732C291.412 27.7719 291.28 27.6656 291.148 27.6048C291.038 27.5511 290.924 27.5055 290.808 27.4681L290.521 27.4326C290.521 27.4326 290.615 27.4326 290.804 27.4934C290.916 27.5331 291.027 27.5805 291.134 27.6352C291.278 27.7183 291.416 27.8113 291.549 27.9137C292.39 28.6704 293.116 29.5642 293.7 30.5624C294.66 32.1269 295.511 33.7655 296.246 35.4648C297.25 37.7211 298.12 40.0436 298.85 42.4183C299.708 45.3239 300.31 48.3099 300.647 51.3367C300.736 52.1571 300.812 52.9978 300.826 53.8689V56.4771C300.826 58.2429 300.826 60.0644 300.826 61.9416C300.826 69.442 300.826 77.7477 300.826 86.58L300.949 86.4484H280.149L280.267 86.58C280.267 77.7528 280.267 69.442 280.243 61.9467C280.243 60.0728 280.243 58.2496 280.243 56.4822C280.248 54.7746 280.341 53.0687 280.522 51.3722C280.869 48.3453 281.453 45.3552 282.267 42.4334C283.79 37.0905 285.682 33.0389 287.299 30.5067C287.893 29.5148 288.63 28.6309 289.483 27.8884C289.712 27.7107 289.965 27.5723 290.233 27.4782L290.521 27.4377Z" fill="#E0E0E0"/>
<path d="M287.422 52.8306C287.734 52.6004 288.019 52.3299 288.271 52.0253C288.766 51.5189 289.426 50.7389 290.157 49.8932L291.968 47.7104C292.236 47.4257 292.478 47.1136 292.69 46.7786C292.379 47.0094 292.096 47.2797 291.846 47.5838C291.346 48.0903 290.685 48.8651 289.959 49.7159L288.148 51.8987C287.879 52.1836 287.635 52.4957 287.422 52.8306V52.8306Z" fill="#E0E0E0"/>
<path d="M289.073 52.8409C289.728 52.2971 290.333 51.6865 290.879 51.0177C291.483 50.4029 292.028 49.7242 292.506 48.9919C291.851 49.5363 291.246 50.1468 290.7 50.8151C290.096 51.4306 289.551 52.1092 289.073 52.8409Z" fill="#E0E0E0"/>
<path d="M321.211 226.399C321.211 226.475 249.299 226.536 160.615 226.536C71.9309 226.536 0 226.5 0 226.399C0 226.297 71.8979 226.267 160.615 226.267C249.332 226.267 321.211 226.328 321.211 226.399Z" fill="#263238"/>
<path d="M302.892 109.193H285.634C283.063 109.193 280.979 111.431 280.979 114.191V132.722C280.979 135.483 283.063 137.721 285.634 137.721H302.892C305.463 137.721 307.547 135.483 307.547 132.722V114.191C307.547 111.431 305.463 109.193 302.892 109.193Z" fill="#263238"/>
<path d="M298.996 109.193H281.738C279.167 109.193 277.083 111.431 277.083 114.191V132.722C277.083 135.483 279.167 137.721 281.738 137.721H298.996C301.567 137.721 303.651 135.483 303.651 132.722V114.191C303.651 111.431 301.567 109.193 298.996 109.193Z" fill="#455A64"/>
<path d="M282.238 123.287L284.766 120.573L289.638 125.227L297.779 116.45L300.128 119.165L289.28 130.458L282.238 123.287Z" fill="white"/>
<path d="M290.572 195.501C291.216 195.832 291.791 196.298 292.263 196.872C292.736 197.447 293.096 198.117 293.322 198.843C293.763 200.303 293.887 201.852 293.685 203.371C293.374 206.308 291.822 209.276 290.148 211.626C287.842 209.464 287.318 205.701 287.153 203.771C286.908 200.732 288.181 195.05 290.572 195.501" fill="#FF725E"/>
<path d="M292.822 216.473C292.666 215.633 292.72 214.764 292.976 213.953C293.233 213.142 293.684 212.418 294.284 211.854C294.895 211.304 295.601 210.889 296.362 210.634C297.124 210.379 297.924 210.29 298.718 210.37C299.09 210.361 299.459 210.441 299.799 210.603C300.139 210.765 300.441 211.005 300.685 211.307C300.864 211.624 300.961 211.986 300.966 212.356C300.971 212.727 300.884 213.092 300.713 213.414C300.362 214.047 299.863 214.571 299.265 214.933C297.265 216.275 295.105 217.187 292.846 216.453" fill="#FF725E"/>
<path d="M289.87 225.487C289.88 225.284 289.907 225.083 289.95 224.885C290.025 224.459 290.12 223.912 290.228 223.254C290.487 221.436 291.017 219.674 291.799 218.037C292.61 216.404 293.813 215.033 295.284 214.067C295.729 213.782 296.204 213.554 296.699 213.388C296.874 213.328 297.015 213.302 297.105 213.277C297.153 213.269 297.202 213.269 297.251 213.277C296.595 213.521 295.963 213.835 295.364 214.214C293.945 215.204 292.782 216.563 291.983 218.164C291.214 219.783 290.673 221.515 290.379 223.304C290.238 223.988 290.124 224.54 290.039 224.92C289.999 225.114 289.942 225.304 289.87 225.487Z" fill="#263238"/>
<path d="M289.955 199.917C289.977 200.003 289.987 200.091 289.983 200.18C289.983 200.373 290.011 200.626 290.026 200.935C290.059 201.593 290.096 202.545 290.129 203.72C290.2 206.075 290.257 209.332 290.242 212.922C290.228 216.513 290.148 219.775 290.059 222.124C290.011 223.304 289.969 224.257 289.931 224.91C289.931 225.224 289.893 225.472 289.884 225.67C289.884 225.759 289.873 225.847 289.851 225.933C289.844 225.845 289.844 225.757 289.851 225.67C289.851 225.472 289.851 225.219 289.851 224.91C289.851 224.226 289.889 223.279 289.917 222.119C289.969 219.77 290.03 216.518 290.044 212.922C290.059 209.327 290.044 206.08 289.988 203.725C289.988 202.571 289.959 201.624 289.95 200.94C289.95 200.626 289.95 200.378 289.95 200.18C289.945 200.093 289.946 200.004 289.955 199.917V199.917Z" fill="#263238"/>
<path d="M288.837 218.26C288.559 216.48 287.89 214.797 286.885 213.35C285.88 211.903 284.569 210.734 283.059 209.94C282.29 209.545 281.286 209.281 280.654 209.899C280.022 210.517 280.182 211.621 280.47 212.477C281.147 214.251 282.298 215.77 283.777 216.842C285.257 217.915 287 218.493 288.785 218.504" fill="#FF725E"/>
<path d="M283.432 212.725C283.595 212.785 283.753 212.861 283.903 212.953C284.093 213.047 284.278 213.154 284.455 213.272C284.697 213.416 284.931 213.573 285.158 213.743C285.438 213.945 285.707 214.163 285.965 214.396C286.264 214.655 286.549 214.932 286.818 215.227C287.438 215.908 287.984 216.662 288.445 217.476C288.895 218.296 289.256 219.17 289.521 220.079C289.631 220.475 289.721 220.877 289.79 221.284C289.857 221.638 289.903 221.997 289.926 222.358C289.969 222.687 289.955 222.986 289.969 223.249C289.982 223.472 289.982 223.695 289.969 223.917C289.965 224.11 289.944 224.301 289.908 224.49C289.86 224.49 289.941 223.669 289.808 222.373C289.766 222.049 289.728 221.694 289.648 221.319C289.572 220.919 289.476 220.523 289.36 220.134C289.092 219.251 288.735 218.402 288.294 217.602C287.841 216.803 287.308 216.059 286.705 215.384C286.443 215.088 286.166 214.807 285.875 214.543C285.627 214.309 285.367 214.089 285.097 213.885C284.106 213.105 283.413 212.766 283.432 212.725Z" fill="#263238"/>
<path d="M80.2838 99.469H30.9778V226.434H80.2838V99.469Z" fill="#E0E0E0"/>
<path d="M55.6308 99.469H16.6492V226.434H55.6308V99.469Z" fill="#F5F5F5"/>
<path d="M55.6877 226.338C55.6215 226.338 55.5647 197.906 55.5647 162.835C55.5647 127.764 55.6215 99.3274 55.6877 99.3274C55.7539 99.3274 55.8107 127.759 55.8107 162.835C55.8107 197.912 55.7587 226.338 55.6877 226.338Z" fill="#263238"/>
<path d="M74.5532 114.055H62.7432V115.361H74.5532V114.055Z" fill="#263238"/>
<path d="M74.5532 117.792H62.7432V119.099H74.5532V117.792Z" fill="#263238"/>
<path d="M74.5532 121.535H62.7432V122.842H74.5532V121.535Z" fill="#263238"/>
<path d="M51.8623 104.868H20.677V222.403H51.8623V104.868Z" fill="#E0E0E0"/>
<path d="M48.7543 109.198H22.9175V113.401H48.7543V109.198Z" fill="#EBEBEB"/>
<path d="M26.8322 109.198H22.9175V113.401H26.8322V109.198Z" fill="#FF725E"/>
<path d="M49.5559 109.198H41.0474V113.401H49.5559V109.198Z" fill="#F5F5F5"/>
<path d="M48.7543 116.678H22.9175V120.882H48.7543V116.678Z" fill="#EBEBEB"/>
<path d="M26.8322 116.678H22.9175V120.882H26.8322V116.678Z" fill="white"/>
<path d="M49.5559 116.678H41.0474V120.882H49.5559V116.678Z" fill="#F5F5F5"/>
<path d="M48.7543 124.163H22.9175V128.367H48.7543V124.163Z" fill="#EBEBEB"/>
<path d="M26.8322 124.163H22.9175V128.367H26.8322V124.163Z" fill="#FF725E"/>
<path d="M49.5559 124.163H41.0474V128.367H49.5559V124.163Z" fill="#F5F5F5"/>
<path d="M48.7543 131.648H22.9175V135.852H48.7543V131.648Z" fill="#EBEBEB"/>
<path d="M26.8322 131.648H22.9175V135.852H26.8322V131.648Z" fill="white"/>
<path d="M49.5559 131.648H41.0474V135.852H49.5559V131.648Z" fill="#F5F5F5"/>
<path d="M48.7543 139.129H22.9175V143.332H48.7543V139.129Z" fill="#EBEBEB"/>
<path d="M26.8322 139.129H22.9175V143.332H26.8322V139.129Z" fill="#FF725E"/>
<path d="M49.5559 139.129H41.0474V143.332H49.5559V139.129Z" fill="#F5F5F5"/>
<path d="M48.7543 146.614H22.9175V150.817H48.7543V146.614Z" fill="#EBEBEB"/>
<path d="M26.8322 146.614H22.9175V150.817H26.8322V146.614Z" fill="#FF725E"/>
<path d="M49.5559 146.614H41.0474V150.817H49.5559V146.614Z" fill="#F5F5F5"/>
<path d="M48.7543 154.099H22.9175V158.303H48.7543V154.099Z" fill="#EBEBEB"/>
<path d="M26.8322 154.099H22.9175V158.303H26.8322V154.099Z" fill="white"/>
<path d="M49.5559 154.099H41.0474V158.303H49.5559V154.099Z" fill="#F5F5F5"/>
<path d="M48.7543 161.579H22.9175V165.783H48.7543V161.579Z" fill="#EBEBEB"/>
<path d="M26.8322 161.579H22.9175V165.783H26.8322V161.579Z" fill="white"/>
<path d="M49.5559 161.579H41.0474V165.783H49.5559V161.579Z" fill="#F5F5F5"/>
<path d="M48.7543 169.064H22.9175V173.268H48.7543V169.064Z" fill="#EBEBEB"/>
<path d="M26.8322 169.064H22.9175V173.268H26.8322V169.064Z" fill="white"/>
<path d="M49.5559 169.064H41.0474V173.268H49.5559V169.064Z" fill="#F5F5F5"/>
<path d="M48.7543 176.55H22.9175V180.753H48.7543V176.55Z" fill="#EBEBEB"/>
<path d="M26.8322 176.55H22.9175V180.753H26.8322V176.55Z" fill="#FF725E"/>
<path d="M49.5559 176.55H41.0474V180.753H49.5559V176.55Z" fill="#F5F5F5"/>
<path d="M48.7543 184.035H22.9175V188.239H48.7543V184.035Z" fill="#EBEBEB"/>
<path d="M26.8322 184.035H22.9175V188.239H26.8322V184.035Z" fill="white"/>
<path d="M49.5559 184.035H41.0474V188.239H49.5559V184.035Z" fill="#F5F5F5"/>
<path d="M48.7543 191.515H22.9175V195.719H48.7543V191.515Z" fill="#EBEBEB"/>
<path d="M26.8322 191.515H22.9175V195.719H26.8322V191.515Z" fill="#FF725E"/>
<path d="M49.5559 191.515H41.0474V195.719H49.5559V191.515Z" fill="#F5F5F5"/>
<path d="M48.7543 199H22.9175V203.204H48.7543V199Z" fill="#EBEBEB"/>
<path d="M26.8322 199H22.9175V203.204H26.8322V199Z" fill="white"/>
<path d="M49.5559 199H41.0474V203.204H49.5559V199Z" fill="#F5F5F5"/>
<path d="M48.7543 206.486H22.9175V210.689H48.7543V206.486Z" fill="#EBEBEB"/>
<path d="M26.8322 206.486H22.9175V210.689H26.8322V206.486Z" fill="#FF725E"/>
<path d="M49.5559 206.486H41.0474V210.689H49.5559V206.486Z" fill="#F5F5F5"/>
<path d="M48.7543 213.966H22.9175V218.169H48.7543V213.966Z" fill="#EBEBEB"/>
<path d="M26.8322 213.966H22.9175V218.169H26.8322V213.966Z" fill="white"/>
<path d="M49.5559 213.966H41.0474V218.169H49.5559V213.966Z" fill="#F5F5F5"/>
<path d="M80.2837 226.434C80.2837 225.305 80.2366 173.714 80.1705 99.4691L80.2837 99.5907H16.6585L16.7811 99.459C16.7811 148.199 16.7576 192.766 16.7528 226.424L16.6585 226.323L80.2932 226.424L16.6585 226.52H16.5642V226.419C16.5642 192.761 16.5642 148.194 16.5359 99.4539V99.3223H16.6679H80.2932H80.4064V99.4438C80.4064 136.596 80.3686 168.35 80.3545 190.821C80.3073 213.236 80.2837 225.872 80.2837 226.434Z" fill="#263238"/>
<path d="M247.351 63.6838H77.633C76.2283 63.6838 74.8811 64.283 73.8878 65.3496C72.8945 66.4162 72.3364 67.8628 72.3364 69.3712V198.094C72.3364 199.602 72.8945 201.049 73.8878 202.115C74.8811 203.182 76.2283 203.781 77.633 203.781H142.772L139.612 226.267H186.838L184.188 203.781H247.351C248.755 203.781 250.103 203.182 251.096 202.115C252.089 201.049 252.647 199.602 252.647 198.094V69.3712C252.647 68.6243 252.51 67.8848 252.244 67.1947C251.978 66.5047 251.588 65.8777 251.096 65.3496C250.604 64.8215 250.02 64.4026 249.377 64.1168C248.735 63.831 248.046 63.6838 247.351 63.6838Z" fill="#455A64"/>
<path d="M164.756 190.244C167.067 193.789 163.454 197.668 160.153 195.187C160.043 195.104 159.947 195.001 159.87 194.883C157.568 191.338 161.176 187.463 164.473 189.94C164.583 190.023 164.679 190.126 164.756 190.244Z" fill="#263238"/>
<path d="M81.6563 68.5964H243.351C244.564 68.5964 245.728 69.114 246.586 70.0353C247.444 70.9565 247.926 72.2061 247.926 73.5089V180.232H77.0813V73.5089C77.0813 72.2061 77.5633 70.9565 78.4213 70.0353C79.2793 69.114 80.4429 68.5964 81.6563 68.5964V68.5964Z" fill="#263238"/>
<path d="M201.714 203.781C201.714 203.847 187.484 203.898 169.939 203.898C152.394 203.898 138.164 203.847 138.164 203.781C138.164 203.715 152.389 203.67 169.939 203.67C187.489 203.67 201.714 203.71 201.714 203.781Z" fill="#263238"/>
<path d="M106.691 77.4136H94.24V80.2345H106.691V77.4136Z" fill="#455A64"/>
<path d="M100.466 90.0544H94.24V92.8753H100.466V90.0544Z" fill="#FF725E"/>
<path d="M107.696 96.4104H98.9282V99.2313H107.696V96.4104Z" fill="#455A64"/>
<path d="M114.195 96.4104H109.087V99.2313H114.195V96.4104Z" fill="#455A64"/>
<path d="M160.001 96.4104H149.493V99.2313H160.001V96.4104Z" fill="#455A64"/>
<path d="M190.706 102.604H172.958V105.425H190.706V102.604Z" fill="#455A64"/>
<path d="M218.085 96.4104H209.562V99.2313H218.085V96.4104Z" fill="#455A64"/>
<path d="M237.838 96.4104H220.698V99.2313H237.838V96.4104Z" fill="#455A64"/>
<path d="M107.696 102.604H98.9282V105.425H107.696V102.604Z" fill="#455A64"/>
<path d="M102.305 108.783H93.5371V111.604H102.305V108.783Z" fill="#FF725E"/>
<path d="M102.31 114.966H98.2112V117.787H102.31V114.966Z" fill="#455A64"/>
<path d="M117.341 127.982H113.247V130.803H117.341V127.982Z" fill="#455A64"/>
<path d="M177.599 151.501H169.595V154.322H177.599V151.501Z" fill="#455A64"/>
<path d="M222.311 151.501H202.704V154.322H222.311V151.501Z" fill="#455A64"/>
<path d="M147.465 145.328H139.461V148.149H147.465V145.328Z" fill="#E0E0E0"/>
<path d="M118.468 140.03H110.465V142.851H118.468V140.03Z" fill="#455A64"/>
<path d="M167.935 151.501H155.313V154.322H167.935V151.501Z" fill="#455A64"/>
<path d="M104.857 121.256H98.2112V124.077H104.857V121.256Z" fill="#455A64"/>
<path d="M110.54 128.088H98.2112V130.909H110.54V128.088Z" fill="#455A64"/>
<path d="M116.252 133.315H98.2112V136.136H116.252V133.315Z" fill="#455A64"/>
<path d="M148.937 133.315H130.896V136.136H148.937V133.315Z" fill="#455A64"/>
<path d="M135.636 145.328H110.304V148.149H135.636V145.328Z" fill="#455A64"/>
<path d="M153.148 151.501H110.304V154.322H153.148V151.501Z" fill="#455A64"/>
<path d="M140.188 157.68H97.3433V160.501H140.188V157.68Z" fill="#455A64"/>
<path d="M128.981 133.315H118.157V136.136H128.981V133.315Z" fill="#455A64"/>
<path d="M115.091 114.966H103.923V117.787H115.091V114.966Z" fill="#455A64"/>
<path d="M117.553 121.261H106.385V124.082H117.553V121.261Z" fill="#455A64"/>
<path d="M160.822 121.261H131.25V124.082H160.822V121.261Z" fill="#455A64"/>
<path d="M195.776 121.261H161.624V124.082H195.776V121.261Z" fill="#455A64"/>
<path d="M128.632 121.261H119.388V124.082H128.632V121.261Z" fill="#455A64"/>
<path d="M131.26 114.966H116.62V117.787H131.26V114.966Z" fill="#455A64"/>
<path d="M141.027 114.966H132.877V117.787H141.027V114.966Z" fill="#E0E0E0"/>
<path d="M118.228 102.604H109.087V105.425H118.228V102.604Z" fill="#455A64"/>
<path d="M169.571 102.604H124.439V105.425H169.571V102.604Z" fill="#455A64"/>
<path d="M220.231 121.261H198.894V124.082H220.231V121.261Z" fill="#455A64"/>
<path d="M201.021 151.501H179.679V154.322H201.021V151.501Z" fill="#455A64"/>
<path d="M206.242 96.4104H161.784V99.2313H206.242V96.4104Z" fill="#455A64"/>
<path d="M146.73 96.4104H115.794V99.2313H146.73V96.4104Z" fill="#455A64"/>
<path d="M115.068 83.3999H94.24V86.2208H115.068V83.3999Z" fill="#455A64"/>
<path d="M145.668 83.3999H117.148V86.2208H145.668V83.3999Z" fill="#455A64"/>
<path d="M117.808 77.4136H108.639V80.2345H117.808V77.4136Z" fill="#E0E0E0"/>
<path d="M89.6931 77.4136H87.1462V80.2345H89.6931V77.4136Z" fill="#455A64"/>
<path d="M89.6931 83.5923H87.1462V86.4132H89.6931V83.5923Z" fill="#455A64"/>
<path d="M89.6931 89.7659H87.1462V92.5868H89.6931V89.7659Z" fill="#455A64"/>
<path d="M89.6931 95.9392H87.1462V98.7601H89.6931V95.9392Z" fill="#455A64"/>
<path d="M89.6931 102.113H87.1462V104.934H89.6931V102.113Z" fill="#455A64"/>
<path d="M89.6931 108.286H87.1462V111.107H89.6931V108.286Z" fill="#455A64"/>
<path d="M89.6931 114.46H87.1462V117.281H89.6931V114.46Z" fill="#455A64"/>
<path d="M89.6931 120.634H87.1462V123.454H89.6931V120.634Z" fill="#455A64"/>
<path d="M89.6931 126.807H87.1462V129.628H89.6931V126.807Z" fill="#455A64"/>
<path d="M116.337 171.014H112.243V173.835H116.337V171.014Z" fill="#E0E0E0"/>
<path d="M109.752 171.014H97.4236V173.835H109.752V171.014Z" fill="#FF725E"/>
<path d="M89.6931 170.7H87.1462V173.521H89.6931V170.7Z" fill="#455A64"/>
<path d="M89.6931 132.98H87.1462V135.801H89.6931V132.98Z" fill="#455A64"/>
<path d="M89.6931 139.154H87.1462V141.975H89.6931V139.154Z" fill="#455A64"/>
<path d="M89.6931 145.328H87.1462V148.149H89.6931V145.328Z" fill="#455A64"/>
<path d="M89.6931 151.501H87.1462V154.322H89.6931V151.501Z" fill="#455A64"/>
<path d="M89.6931 157.68H87.1462V160.501H89.6931V157.68Z" fill="#455A64"/>
<path d="M109.832 164.172H97.3433V166.993H109.832V164.172Z" fill="#455A64"/>
<path d="M140.499 164.172H112.243V166.993H140.499V164.172Z" fill="#455A64"/>
<path d="M89.6931 164.172H87.1462V166.993H89.6931V164.172Z" fill="#455A64"/>
<path d="M158.318 83.3794H149.149V86.2003H158.318V83.3794Z" fill="#E0E0E0"/>
<g opacity="0.3">
<path d="M169.227 132.783H162.964V187.418H237.592L235.649 134.11L169.227 132.783Z" fill="black"/>
</g>
<path d="M242.446 124.705H167.77V182.257H242.446V124.705Z" fill="#E0E0E0"/>
<path d="M242.672 182.511H167.534V124.452H242.672V182.511ZM167.996 182.004H242.2V124.959H168.006L167.996 182.004Z" fill="#263238"/>
<path d="M194.022 130.854H181.948V133.588H194.022V130.854Z" fill="#455A64"/>
<path d="M187.985 143.109H181.948V145.844H187.985V143.109Z" fill="#FF725E"/>
<path d="M194.993 149.273H186.49V152.008H194.993V149.273Z" fill="#455A64"/>
<path d="M201.299 149.273H196.347V152.008H201.299V149.273Z" fill="#455A64"/>
<path d="M194.993 155.284H186.49V158.019H194.993V155.284Z" fill="#455A64"/>
<path d="M189.772 161.275H181.268V164.01H189.772V161.275Z" fill="#FF725E"/>
<path d="M189.767 167.267H185.796V170.002H189.767V167.267Z" fill="#455A64"/>
<path d="M192.243 173.369H185.796V176.104H192.243V173.369Z" fill="#455A64"/>
<path d="M202.167 167.267H191.338V170.002H202.167V167.267Z" fill="#455A64"/>
<path d="M204.553 173.375H193.724V176.109H204.553V173.375Z" fill="#455A64"/>
<path d="M230.65 173.375H217.84V176.109H230.65V173.375Z" fill="#455A64"/>
<path d="M215.298 173.375H206.336V176.109H215.298V173.375Z" fill="#455A64"/>
<path d="M217.849 167.267H203.653V170.002H217.849V167.267Z" fill="#455A64"/>
<path d="M227.32 167.267H219.415V170.002H227.32V167.267Z" fill="white"/>
<path d="M205.209 155.284H196.347V158.019H205.209V155.284Z" fill="#455A64"/>
<path d="M232.847 149.273H202.846V152.008H232.847V149.273Z" fill="#455A64"/>
<path d="M202.148 136.657H181.948V139.392H202.148V136.657Z" fill="#455A64"/>
<path d="M231.819 136.657H204.162V139.392H231.819V136.657Z" fill="#455A64"/>
<path d="M204.799 130.854H195.908V133.588H204.799V130.854Z" fill="white"/>
<path d="M177.533 130.854H175.066V133.588H177.533V130.854Z" fill="#455A64"/>
<path d="M177.533 136.84H175.066V139.574H177.533V136.84Z" fill="#455A64"/>
<path d="M177.533 142.831H175.066V145.566H177.533V142.831Z" fill="#455A64"/>
<path d="M177.533 148.817H175.066V151.552H177.533V148.817Z" fill="#455A64"/>
<path d="M177.533 154.803H175.066V157.538H177.533V154.803Z" fill="#455A64"/>
<path d="M177.533 160.789H175.066V163.524H177.533V160.789Z" fill="#455A64"/>
<path d="M177.533 166.781H175.066V169.515H177.533V166.781Z" fill="#455A64"/>
<path d="M177.533 172.767H175.066V175.501H177.533V172.767Z" fill="#455A64"/>
<g opacity="0.3">
<path d="M127.524 203.472C128.467 198.408 125.402 183.26 125.402 183.26L102.47 186.39L101.527 203.361L127.524 203.472Z" fill="black"/>
</g>
<path d="M98.3482 183.26C98.3482 183.26 99.3575 203.401 95.1504 210.33L123.709 211.084C123.709 211.084 125.925 199.32 125.421 183.26H98.3482Z" fill="#FF725E"/>
<path d="M125.326 187.16C125.326 187.231 119.379 187.291 112.049 187.291C104.72 187.291 98.7725 187.231 98.7725 187.16C98.7725 187.089 104.715 187.028 112.049 187.028C119.383 187.028 125.326 187.089 125.326 187.16Z" fill="#263238"/>
<path d="M122.152 194.052C122.152 194.123 117.398 194.184 111.54 194.184C105.682 194.184 100.928 194.123 100.928 194.052C100.928 193.981 105.677 193.921 111.54 193.921C117.402 193.921 122.152 193.981 122.152 194.052Z" fill="#263238"/>
<path d="M122.402 197.815C122.402 197.886 117.652 197.947 111.79 197.947C105.927 197.947 101.178 197.886 101.178 197.815C101.178 197.744 105.927 197.684 111.785 197.684C117.643 197.684 122.402 197.744 122.402 197.815Z" fill="#263238"/>
<path d="M121.718 201.578C121.718 201.649 116.964 201.71 111.106 201.71C105.248 201.71 100.494 201.649 100.494 201.578C100.494 201.507 105.243 201.447 111.106 201.447C116.969 201.447 121.718 201.507 121.718 201.578Z" fill="#263238"/>
<g opacity="0.3">
<path d="M93.6314 183.635C93.6314 183.635 94.853 198.544 94.853 203.847H91.3345L93.6314 183.635Z" fill="black"/>
</g>
<path d="M85.1939 183.635C85.1939 183.635 86.2032 203.781 81.9961 210.704H91.4007C91.4007 210.704 94.1033 199.694 93.6316 183.635H85.1939Z" fill="#E0E0E0"/>
<path d="M216.661 96.0407L232.475 76.5224L216.552 64.1044L229.046 56.209C229.046 56.209 248.643 68.9967 248.384 76.6743C248.153 83.6632 223.448 101.343 223.448 101.343L216.661 96.0407Z" fill="#FFBF9D"/>
<path d="M204.256 140.405C202.378 143.715 199.798 146.501 196.726 148.538C193.655 150.574 190.178 151.802 186.581 152.123C182.984 152.443 179.366 151.846 176.024 150.381C172.682 148.916 169.71 146.624 167.349 143.692C164.989 140.759 163.306 137.269 162.44 133.507C161.573 129.744 161.547 125.814 162.362 122.039C163.178 118.263 164.813 114.747 167.133 111.778C169.454 108.809 172.395 106.471 175.717 104.954V104.954C180.183 102.914 185.137 102.45 189.865 103.627C194.593 104.805 198.851 107.563 202.024 111.506C205.198 115.449 207.125 120.371 207.526 125.565C207.927 130.759 206.782 135.955 204.256 140.405ZM166.435 115.65C163.783 120.321 162.771 125.856 163.584 131.257C164.396 136.658 166.978 141.57 170.865 145.108C174.752 148.645 179.688 150.575 184.783 150.55C189.878 150.525 194.797 148.547 198.654 144.972C202.51 141.396 205.051 136.459 205.817 131.051C206.584 125.642 205.525 120.117 202.833 115.472C200.141 110.827 195.993 107.367 191.135 105.716C186.277 104.065 181.03 104.332 176.34 106.468C172.229 108.335 168.765 111.537 166.435 115.625V115.65Z" fill="#FF725E"/>
<g opacity="0.3">
<path d="M204.256 140.405C202.378 143.715 199.798 146.501 196.726 148.538C193.655 150.574 190.178 151.802 186.581 152.123C182.984 152.443 179.366 151.846 176.024 150.381C172.682 148.916 169.71 146.624 167.349 143.692C164.989 140.759 163.306 137.269 162.44 133.507C161.573 129.744 161.547 125.814 162.362 122.039C163.178 118.263 164.813 114.747 167.133 111.778C169.454 108.809 172.395 106.471 175.717 104.954V104.954C180.183 102.914 185.137 102.45 189.865 103.627C194.593 104.805 198.851 107.563 202.024 111.506C205.198 115.449 207.125 120.371 207.526 125.565C207.927 130.759 206.782 135.955 204.256 140.405ZM166.435 115.65C163.783 120.321 162.771 125.856 163.584 131.257C164.396 136.658 166.978 141.57 170.865 145.108C174.752 148.645 179.688 150.575 184.783 150.55C189.878 150.525 194.797 148.547 198.654 144.972C202.51 141.396 205.051 136.459 205.817 131.051C206.584 125.642 205.525 120.117 202.833 115.472C200.141 110.827 195.993 107.367 191.135 105.716C186.277 104.065 181.03 104.332 176.34 106.468C172.229 108.335 168.765 111.537 166.435 115.625V115.65Z" fill="black"/>
</g>
<path d="M203.327 139.301C201.448 142.611 198.868 145.397 195.797 147.434C192.725 149.47 189.249 150.698 185.652 151.019C182.054 151.339 178.437 150.742 175.095 149.277C171.753 147.812 168.781 145.52 166.42 142.588C164.059 139.655 162.377 136.165 161.51 132.403C160.644 128.64 160.617 124.71 161.433 120.935C162.248 117.159 163.883 113.643 166.204 110.674C168.525 107.705 171.466 105.367 174.788 103.85V103.85C179.254 101.81 184.208 101.346 188.936 102.523C193.663 103.701 197.921 106.459 201.095 110.402C204.269 114.345 206.195 119.267 206.596 124.461C206.997 129.655 205.853 134.851 203.327 139.301V139.301ZM165.506 114.546C162.856 119.217 161.847 124.751 162.661 130.15C163.475 135.549 166.058 140.459 169.945 143.994C173.832 147.529 178.767 149.457 183.86 149.43C188.954 149.404 193.871 147.424 197.726 143.849C201.581 140.273 204.12 135.337 204.884 129.93C205.649 124.522 204.59 118.999 201.898 114.356C199.206 109.713 195.058 106.255 190.202 104.605C185.345 102.956 180.099 103.223 175.41 105.359C171.295 107.233 167.831 110.446 165.506 114.546V114.546Z" fill="#FF725E"/>
<path d="M236.663 94.0554L237.559 95.5747C238.366 96.9117 237.38 99.0692 235.616 99.9453L205.7 119.616L202.907 115.23L232.069 93.3059C233.956 91.7561 235.626 92.3335 236.663 94.0554Z" fill="#FF725E"/>
<path d="M184.697 106.043C184.572 106.056 184.445 106.056 184.32 106.043C184.075 106.043 183.711 106.007 183.244 106.043C181.927 106.102 180.62 106.332 179.353 106.726C178.478 107.001 177.62 107.339 176.788 107.739C175.836 108.201 174.916 108.732 174.033 109.33C173.057 109.984 172.131 110.723 171.265 111.538C170.328 112.407 169.468 113.367 168.694 114.404C167.928 115.445 167.256 116.562 166.69 117.742C166.179 118.851 165.756 120.005 165.426 121.19C164.876 123.206 164.614 125.3 164.647 127.399C164.665 128.815 164.823 130.224 165.119 131.603C165.204 132.109 165.331 132.464 165.383 132.727C165.424 132.854 165.453 132.984 165.468 133.117C165.416 132.996 165.372 132.87 165.336 132.742C165.27 132.484 165.129 132.12 165.025 131.628C164.689 130.248 164.5 128.831 164.463 127.405C164.405 125.283 164.653 123.164 165.199 121.125C165.526 119.921 165.951 118.75 166.468 117.625C167.038 116.426 167.717 115.291 168.496 114.237C169.28 113.188 170.151 112.218 171.1 111.34C171.983 110.513 172.929 109.767 173.929 109.112C174.823 108.512 175.756 107.984 176.722 107.532C177.567 107.145 178.435 106.821 179.32 106.559C180.6 106.183 181.918 105.984 183.244 105.967C183.606 105.961 183.969 105.974 184.329 106.007C184.453 106.009 184.576 106.02 184.697 106.043Z" fill="white"/>
<path d="M202.582 132.358C202.525 132.358 202.95 131.233 203.247 129.344C203.28 129.106 203.318 128.838 203.351 128.605C203.384 128.372 203.393 128.073 203.421 127.794C203.478 127.237 203.469 126.635 203.478 126.002C203.435 123.255 202.841 120.55 201.738 118.071C201.469 117.509 201.228 116.967 200.945 116.496C200.808 116.258 200.686 116.02 200.549 115.802C200.412 115.584 200.276 115.387 200.148 115.189C199.096 113.644 198.262 112.854 198.299 112.809C198.505 112.98 198.698 113.166 198.879 113.366C199.106 113.585 199.317 113.822 199.511 114.075C199.788 114.396 200.046 114.734 200.285 115.088C200.422 115.28 200.559 115.483 200.705 115.696C200.851 115.908 200.974 116.146 201.12 116.389C201.42 116.9 201.696 117.428 201.945 117.969C202.502 119.224 202.938 120.535 203.247 121.884C203.537 123.237 203.695 124.619 203.719 126.007C203.719 126.645 203.719 127.253 203.638 127.82C203.61 128.098 203.596 128.377 203.553 128.635C203.511 128.893 203.469 129.142 203.431 129.38C203.36 129.808 203.269 130.232 203.157 130.651C203.087 130.97 202.995 131.283 202.884 131.588C202.804 131.853 202.703 132.111 202.582 132.358V132.358Z" fill="white"/>
<path d="M188.433 114.926C188.48 114.982 185.395 118.081 181.542 121.854C177.688 125.627 174.533 128.645 174.467 128.59C174.401 128.534 177.505 125.434 181.358 121.667C185.211 117.899 188.367 114.87 188.433 114.926Z" fill="white"/>
<path d="M194.3 118.922C194.232 119.003 194.158 119.077 194.078 119.144L193.418 119.752L190.975 121.965C188.909 123.829 186.06 126.412 182.957 129.304C179.853 132.195 177.047 134.844 175.033 136.769L172.637 139.048L171.982 139.66C171.909 139.737 171.828 139.803 171.741 139.858C171.804 139.772 171.873 139.693 171.948 139.62L172.576 138.972C173.123 138.41 173.92 137.614 174.934 136.632C176.924 134.672 179.698 131.998 182.815 129.101C185.933 126.204 188.8 123.652 190.899 121.824C191.946 120.907 192.786 120.173 193.394 119.676L194.083 119.104C194.148 119.034 194.221 118.973 194.3 118.922V118.922Z" fill="white"/>
<g opacity="0.3">
<path d="M165.638 138.009L197.102 108.859C197.102 108.859 200.21 111.391 201.53 113.7L169.331 143.444C167.787 141.903 166.533 140.058 165.638 138.009V138.009Z" fill="white"/>
</g>
<g opacity="0.3">
<path d="M172.779 146.178L203.436 117.504C203.436 117.504 203.587 117.235 204.006 119.296L174.283 147.075C173.725 146.903 173.21 146.596 172.779 146.178V146.178Z" fill="white"/>
</g>
<path d="M216.661 96.0405C216.661 96.0405 207.435 106.954 207.228 107.365C207.02 107.775 204.535 114.075 205.148 115.351C205.761 116.627 210.383 121.109 210.383 121.109C210.383 121.109 212.034 120.345 210.473 117.347L208.912 114.353L209.751 111.315C209.751 111.315 210.996 115.149 211.718 115.989C212.439 116.83 215.298 118.268 216.015 117.509C216.442 117.069 216.731 116.497 216.84 115.873C216.84 115.873 218.797 117.544 220.179 114.885C220.179 114.885 221.92 114.597 222.665 113.29C223.41 111.983 223.335 109.512 223.335 109.512C223.263 109.351 223.158 109.209 223.027 109.097C222.897 108.986 222.745 108.907 222.583 108.868C222.42 108.829 222.252 108.829 222.089 108.87C221.927 108.91 221.776 108.989 221.646 109.102C220.907 109.705 220.336 110.514 219.995 111.441L219.189 110.287C219.399 108.728 219.813 107.209 220.42 105.774C220.981 104.62 224.603 102.103 225.032 100.097C225.396 98.4006 222.236 97.2762 220.613 97.3725C220.37 97.3871 220.13 97.44 219.901 97.5295L216.661 96.0405Z" fill="#FFBF9D"/>
<path d="M215.859 109.978C215.844 110.077 215.844 110.178 215.859 110.277C215.88 110.543 215.922 110.808 215.986 111.067C216.194 111.934 216.607 112.729 217.185 113.374C217.764 114.019 218.488 114.493 219.287 114.748C219.528 114.826 219.774 114.881 220.023 114.911C220.114 114.926 220.206 114.926 220.297 114.911C220.297 114.88 219.905 114.85 219.316 114.637C218.545 114.36 217.846 113.889 217.278 113.265C216.72 112.631 216.308 111.866 216.076 111.031C215.896 110.398 215.882 109.978 215.859 109.978Z" fill="#FF9A6C"/>
<path d="M212.755 109.649C212.745 109.753 212.745 109.858 212.755 109.963C212.761 110.087 212.773 110.21 212.793 110.332C212.809 110.503 212.834 110.672 212.869 110.839C212.956 111.255 213.074 111.663 213.222 112.059C213.594 113.031 214.15 113.908 214.854 114.637C215.144 114.937 215.46 115.207 215.797 115.442C215.934 115.549 216.071 115.625 216.184 115.701C216.297 115.777 216.406 115.827 216.491 115.868C216.577 115.92 216.669 115.961 216.764 115.989C216.764 115.964 216.396 115.777 215.854 115.356C215.535 115.112 215.235 114.839 214.958 114.541C214.62 114.177 214.314 113.78 214.043 113.356C213.747 112.91 213.486 112.439 213.26 111.948C213.134 111.58 213.04 111.2 212.977 110.814C212.807 110.094 212.784 109.644 212.755 109.649Z" fill="#FF9A6C"/>
<path d="M209.223 108.859C209.223 108.859 209.143 109.006 209.11 109.269C209.076 109.611 209.114 109.958 209.223 110.282C209.318 110.618 209.498 110.919 209.742 111.153C209.921 111.335 210.058 111.411 210.067 111.396C209.759 111.062 209.516 110.666 209.35 110.231C209.227 109.786 209.184 109.321 209.223 108.859V108.859Z" fill="#FF9A6C"/>
<path d="M241.04 75.3627C241.04 75.4032 240.535 75.0386 239.658 74.6993C238.519 74.2552 237.293 74.1315 236.097 74.3397C234.905 74.5719 233.804 75.1782 232.932 76.0819C232.253 76.7656 231.918 77.2821 231.881 77.2568C231.931 77.1166 232.002 76.9865 232.093 76.8719C232.309 76.5434 232.55 76.2351 232.814 75.9502C233.682 74.9619 234.823 74.2996 236.069 74.0612C237.306 73.8442 238.574 74.0002 239.734 74.5119C240.083 74.6618 240.418 74.8484 240.733 75.069C240.936 75.2462 241.049 75.3475 241.04 75.3627Z" fill="#FF9A6C"/>
<path d="M193.21 30.2334C193.21 26.9162 193.21 23.5787 192.673 20.3071C192.135 17.0355 191.074 13.8094 189.159 11.1911C188.867 10.7961 186.636 8.24869 186.207 8.4462C185.9 8.59307 187.56 11.1152 187.489 11.4849C186.81 14.8375 187.414 18.3775 188.64 21.5479C189.858 24.618 191.391 27.5328 193.21 30.2384" fill="#263238"/>
<path d="M189.847 18.0839C187.701 10.0821 181.579 4.75433 174.189 7.28148L173.519 7.55495C170.267 8.89575 167.604 11.5017 166.06 14.8545C164.516 18.2073 164.203 22.0613 165.185 25.6502C167.071 32.5732 169.26 40.1952 170.585 43.7808C173.34 51.2052 180.702 49.5036 180.702 49.5036L185.296 60.8479L199.917 52.8005L189.847 18.0839Z" fill="#FFBF9D"/>
<path d="M180.735 49.5593C183.939 48.2316 186.721 45.9471 188.753 42.9756C188.753 42.9756 188.961 49.9493 181.787 52.1371L180.735 49.5593Z" fill="#FF9A6C"/>
<path d="M170.137 32.3755C170.236 32.6518 170.431 32.8759 170.681 32.9998C170.932 33.1238 171.217 33.1378 171.477 33.039C171.607 32.9979 171.727 32.9295 171.832 32.8376C171.937 32.7457 172.023 32.6322 172.087 32.5039C172.15 32.3755 172.189 32.2348 172.201 32.0902C172.212 31.9455 172.197 31.7997 172.156 31.6614C172.054 31.3887 171.857 31.169 171.608 31.0481C171.358 30.9273 171.074 30.9148 170.816 31.0132C170.688 31.0543 170.569 31.1223 170.465 31.2131C170.362 31.304 170.276 31.4159 170.213 31.5426C170.15 31.6692 170.111 31.808 170.098 31.9509C170.085 32.0939 170.098 32.2382 170.137 32.3755V32.3755Z" fill="#263238"/>
<path d="M167.793 28.1317C167.968 28.2228 168.505 27.3163 169.576 26.8757C170.647 26.4351 171.632 26.6934 171.694 26.506C171.731 26.4199 171.514 26.2173 171.08 26.0907C170.495 25.9382 169.881 25.9842 169.321 26.2224C168.765 26.4472 168.291 26.8572 167.968 27.3923C167.732 27.7974 167.713 28.0962 167.793 28.1317Z" fill="#263238"/>
<path d="M179.264 28.937C179.359 29.2162 179.553 29.444 179.804 29.5718C180.054 29.6996 180.341 29.7171 180.603 29.6207C180.733 29.5797 180.855 29.5111 180.96 29.4188C181.065 29.3266 181.152 29.2126 181.215 29.0837C181.278 28.9547 181.317 28.8135 181.329 28.6682C181.34 28.5229 181.324 28.3767 181.282 28.2381C181.186 27.9589 180.992 27.731 180.742 27.6033C180.492 27.4755 180.205 27.458 179.943 27.5544C179.813 27.596 179.692 27.665 179.587 27.7573C179.482 27.8497 179.396 27.9636 179.333 28.0924C179.269 28.2212 179.231 28.3622 179.219 28.5072C179.207 28.6523 179.222 28.7984 179.264 28.937V28.937Z" fill="#263238"/>
<path d="M178.415 24.288C178.589 24.3791 179.127 23.4675 180.198 23.032C181.268 22.5964 182.249 22.8497 182.315 22.6572C182.353 22.5762 182.136 22.3736 181.702 22.247C181.117 22.0952 180.503 22.1394 179.943 22.3736C179.386 22.6019 178.911 23.0131 178.585 23.5486C178.358 23.9537 178.335 24.2525 178.415 24.288Z" fill="#263238"/>
<path d="M177.736 34.6749C177.736 34.604 177.009 34.756 175.882 35.0497C175.599 35.1358 175.321 35.1814 175.203 34.999C175.069 34.7073 175.024 34.3776 175.075 34.0571C175.075 33.2468 175.075 32.3909 175.075 31.4995C175.075 27.8633 174.939 24.9158 174.802 24.9158C174.665 24.9158 174.566 27.8683 174.58 31.4995C174.58 32.3959 174.58 33.2468 174.609 34.0621C174.566 34.4851 174.661 34.9109 174.877 35.2675C174.955 35.3539 175.049 35.4207 175.153 35.4627C175.258 35.5048 175.37 35.5212 175.481 35.5105C175.642 35.4902 175.801 35.4494 175.953 35.389C177.08 35.0092 177.754 34.7408 177.736 34.6749Z" fill="#263238"/>
<path d="M181.16 34.1736C180.98 34.2344 181.424 35.4752 180.749 36.7666C180.075 38.058 178.792 38.4328 178.863 38.6101C178.863 38.6962 179.226 38.7367 179.749 38.5392C180.426 38.2716 180.995 37.7595 181.358 37.0907C181.702 36.4391 181.798 35.6696 181.627 34.9434C181.476 34.3863 181.235 34.1331 181.16 34.1736Z" fill="#263238"/>
<path d="M176.811 19.6134C177.028 19.8818 178.042 19.2943 179.353 18.9398C180.665 18.5853 181.806 18.5347 181.872 18.1903C181.9 18.0231 181.617 17.8054 181.103 17.6838C180.425 17.5336 179.724 17.5561 179.056 17.7497C178.387 17.9269 177.768 18.2743 177.25 18.7626C176.858 19.1424 176.717 19.4868 176.811 19.6134Z" fill="#263238"/>
<path d="M166.873 24.141C167.156 24.3233 167.793 23.751 168.675 23.3762C169.557 23.0015 170.368 22.8698 170.444 22.5305C170.472 22.3684 170.26 22.1557 169.845 22.024C169.3 21.9146 168.738 21.9791 168.228 22.2096C167.717 22.4401 167.281 22.8263 166.973 23.3205C166.737 23.7409 166.737 24.0498 166.873 24.141Z" fill="#263238"/>
<path d="M191.262 23.8422C191.361 23.7359 195.507 20.3579 197.163 25.5186C198.818 30.6792 193.677 31.4186 193.621 31.2717C193.564 31.1249 191.262 23.8422 191.262 23.8422Z" fill="#FFBF9D"/>
<path d="M194.456 28.7699C194.456 28.7699 194.559 28.8003 194.724 28.8155C194.953 28.8341 195.18 28.7559 195.356 28.5977C195.795 28.2078 195.946 27.1848 195.668 26.2428C195.54 25.7985 195.324 25.389 195.036 25.0425C194.938 24.8988 194.809 24.7827 194.661 24.7042C194.512 24.6257 194.348 24.5871 194.182 24.5918C194.078 24.6041 193.981 24.653 193.906 24.7309C193.831 24.8088 193.782 24.9113 193.767 25.0222C193.767 25.1894 193.814 25.2805 193.791 25.3008C193.767 25.3211 193.658 25.2501 193.63 25.0222C193.613 24.8839 193.643 24.7436 193.715 24.6272C193.813 24.4709 193.963 24.3618 194.135 24.3234C194.346 24.2917 194.561 24.3189 194.759 24.4023C194.957 24.4857 195.132 24.6224 195.267 24.7994C195.618 25.1685 195.878 25.6265 196.021 26.1314C196.328 27.1797 196.149 28.3395 195.521 28.8155C195.406 28.9034 195.273 28.9623 195.134 28.9877C194.994 29.0131 194.851 29.0045 194.715 28.9624C194.503 28.8915 194.441 28.7851 194.456 28.7699Z" fill="#FF9A6C"/>
<path d="M165.629 15.9416C164.685 15.7643 166.19 12.199 167.812 10.5733C170.265 8.1069 174.415 5.63546 177.349 5.47846C180.872 5.29108 184.084 6.04062 186.688 8.59815C189.253 11.2326 191.117 14.5543 192.088 18.2206C192.475 19.306 192.584 20.4829 192.404 21.6289C192.088 23.0166 191.027 24.2067 191.579 25.7666C191.687 26.0457 191.743 26.3452 191.743 26.6478C191.743 26.9503 191.687 27.2498 191.579 27.529C191.013 28.8559 189.635 28.2988 188.843 27.529C187.145 25.8881 186.263 23.5078 185.442 21.2187C184.858 19.593 184.263 17.9268 184.197 16.1847C184.164 15.2376 184.287 14.2855 184.197 13.3385C184.182 12.8629 184.07 12.3966 183.871 11.9717C183.672 11.5468 183.389 11.1733 183.042 10.8771C182.874 10.7653 182.697 10.6703 182.514 10.5935C181.643 10.2075 180.693 10.0771 179.761 10.216C178.828 10.3548 177.947 10.7579 177.208 11.3836C174.816 13.4094 170.666 16.6202 169.142 16.0732C166.954 15.2781 166.242 14.5033 166.242 14.5033L165.629 15.9416Z" fill="#263238"/>
<path d="M158.356 63.9728C158.356 63.9728 157.667 61.8862 160.002 59.0805C162.336 56.2748 180.839 50.7647 180.839 50.7647C180.839 50.7647 187.565 58.9438 193.385 53.3577C197.63 49.3062 197.771 45.2546 197.771 45.2546H214.515L216.604 63.7246L209.93 63.7651L158.356 63.9728Z" fill="#FF725E"/>
<path d="M211.472 45.2495C211.472 45.2495 215.84 44.3024 219.83 46.2624C226.532 49.5289 238.177 59.9363 238.177 59.9363L224.028 72.4201L214.217 63.7802L211.472 45.2495Z" fill="#FF725E"/>
<path d="M217.557 66.7629C217.492 66.7375 217.43 66.7035 217.373 66.6617C217.26 66.5857 217.09 66.4743 216.901 66.3173C216.313 65.8798 215.757 65.3957 215.236 64.8689C214.456 64.0911 213.753 63.2289 213.138 62.2961C212.355 61.1588 211.821 59.8467 211.576 58.4573C211.105 55.5098 211.515 52.7142 212.402 50.9923C212.742 50.3055 213.211 49.7019 213.779 49.2198C213.937 49.0961 214.102 48.9844 214.274 48.8855C214.387 48.8146 214.453 48.7792 214.458 48.7893C214.463 48.7994 214.232 48.9716 213.836 49.2957C213.307 49.796 212.872 50.3992 212.553 51.0734C211.732 52.7699 211.336 55.5149 211.817 58.4016C212.057 59.7541 212.57 61.0335 213.321 62.1493C213.919 63.0775 214.6 63.9409 215.354 64.7271C215.862 65.2649 216.398 65.7721 216.958 66.2464C217.166 66.407 217.366 66.5795 217.557 66.7629V66.7629Z" fill="#263238"/>
<path d="M214.203 63.7345C214.203 63.8054 202.676 63.9168 188.456 63.9775C174.236 64.0383 162.704 64.0282 162.704 63.9522C162.704 63.8763 174.231 63.775 188.456 63.7142C202.681 63.6534 214.203 63.6585 214.203 63.7345Z" fill="#263238"/>
<path d="M152.323 61.2074C152.356 61.2834 152.385 61.3594 152.413 61.4353C152.529 61.7949 152.599 62.1697 152.62 62.5495C152.619 62.7288 152.627 62.908 152.644 63.0863C152.682 63.1947 152.728 63.2996 152.781 63.4003C152.988 64.1173 153.051 64.8735 152.965 65.6185C152.876 66.4316 153.009 67.2549 153.347 67.9887C153.743 68.6876 154.663 69.0978 155.29 68.6319C155.26 68.8896 155.318 69.1504 155.455 69.365C155.591 69.5796 155.796 69.7332 156.03 69.7967C156.268 69.8516 156.515 69.84 156.747 69.7628C156.979 69.6856 157.189 69.5456 157.356 69.3561C157.688 68.9754 157.916 68.5042 158.016 67.9938C158.026 68.2988 158.145 68.5879 158.349 68.8003C158.553 69.0128 158.826 69.1321 159.11 69.1333C159.394 69.1189 159.67 69.0278 159.913 68.8685C160.155 68.7091 160.356 68.4866 160.497 68.2217C160.769 67.6861 160.93 67.0934 160.969 66.4846C161.043 65.7018 161.158 64.924 161.313 64.1549C161.313 64.1549 162.025 64.2815 162.351 64.3119H162.445C162.73 63.9299 162.96 63.5028 163.124 63.0458C163.596 62.0329 163.926 61.4049 164.27 60.5136C164.534 59.835 164.699 59.1513 164.308 58.7107C163.365 57.6421 161.516 59.8147 161.516 59.8147C161.252 59.055 159.106 58.9335 158.686 59.9413C158.516 59.3842 158.582 59.0652 158.162 58.6904C157.957 58.499 157.712 58.3622 157.448 58.2909C157.185 58.2197 156.909 58.216 156.644 58.2802C156.375 58.3494 156.137 58.5133 155.966 58.7457C155.795 58.978 155.701 59.2653 155.7 59.5615C155.471 59.1821 155.14 58.8859 154.751 58.7115C154.363 58.5371 153.934 58.4927 153.521 58.5841C153.028 58.7138 152.596 59.0348 152.309 59.4855C152.167 59.7071 152.064 59.9541 152.003 60.2148C151.969 60.3121 151.951 60.4149 151.951 60.5187C151.958 60.5647 151.973 60.6091 151.993 60.6503C152.116 60.8327 152.238 61.0048 152.323 61.2074Z" fill="#FFBF9D"/>
<path d="M150.055 59.7336C149.822 59.7057 149.586 59.7325 149.364 59.812C149.141 59.8916 148.938 60.0221 148.767 60.1945C148.425 60.7607 148.283 61.4398 148.366 62.1088C149.012 62.2405 149.347 62.2709 149.998 62.4026C150.135 62.4279 150.248 62.4026 150.361 62.4785C150.658 62.7064 150.611 63.4914 150.729 63.8459C150.856 64.1594 151.09 64.409 151.383 64.5435C151.676 64.6781 152.005 64.6877 152.304 64.5701C152.598 64.4345 152.849 64.2119 153.028 63.9285C153.208 63.645 153.309 63.3125 153.318 62.9698C153.323 62.2788 153.087 61.6107 152.658 61.0959C152.335 60.6883 151.937 60.3568 151.489 60.1224C151.041 59.8879 150.553 59.7556 150.055 59.7336V59.7336Z" fill="#FFBF9D"/>
<path d="M155.729 59.3741C155.851 59.3741 155.851 61.4657 155.729 64.0283C155.606 66.5909 155.408 68.6623 155.29 68.6572C155.172 68.6521 155.167 66.5656 155.29 64.003C155.413 61.4404 155.611 59.3437 155.729 59.3741Z" fill="#FF9A6C"/>
<path d="M158.719 59.7893C158.837 59.7893 158.992 61.6834 158.804 64.013C158.615 66.3427 158.162 68.1861 158.049 68.1608C157.936 68.1355 158.186 66.2718 158.365 63.9725C158.544 61.6733 158.582 59.7944 158.719 59.7893Z" fill="#FF9A6C"/>
<path d="M161.624 60.2197C161.747 60.2197 161.799 61.7948 161.568 63.7091C161.336 65.6235 161.068 67.1377 160.954 67.1276C160.841 67.1175 160.907 65.5475 161.134 63.6484C161.36 61.7492 161.501 60.2147 161.624 60.2197Z" fill="#FF9A6C"/>
<path d="M150.988 60.058C150.988 60.0023 151.3 59.9263 151.748 60.1491C152.313 60.4598 152.741 60.9964 152.941 61.6431C153.151 62.2574 153.251 62.9084 153.238 63.5626C153.186 64.1399 152.795 64.307 152.766 64.2311C152.738 64.1551 152.946 63.9778 152.908 63.5524C152.829 62.9592 152.696 62.3757 152.512 61.8103C152.335 61.26 152.006 60.781 151.568 60.4378C151.257 60.1846 150.984 60.1289 150.988 60.058Z" fill="#FF9A6C"/>
<path d="M222.467 220.524C224.665 218.991 226.405 216.811 227.479 214.244C228.553 211.677 228.915 208.833 228.523 206.05L233.876 202.282L234.636 201.776L277.022 171.946C279.066 173.342 281.419 174.128 283.84 174.223C286.26 174.319 288.661 173.72 290.794 172.489C292.928 171.258 294.718 169.439 295.979 167.219C297.241 164.999 297.929 162.458 297.973 159.858L295.497 159.397L292.799 163.448L286.597 162.045L283.135 156.348L284.441 149.683L289.597 146.072L286.106 145.09C282.409 143.92 280.357 144.872 276.876 147.313C274.687 148.847 272.954 151.024 271.884 153.586C270.815 156.148 270.453 158.986 270.844 161.762L227.749 192.093L226.415 193.024L222.33 195.896C220.121 194.393 217.556 193.604 214.941 193.623C212.327 193.642 209.772 194.468 207.582 196.002C204.115 198.428 199.441 203.477 198.937 207.564L201.399 208L206.554 204.389L212.761 205.792L216.222 211.489L214.916 218.154L209.365 219.836L209.756 221.765C211.808 222.689 214.039 223.059 216.255 222.843C218.471 222.627 220.604 221.831 222.467 220.524V220.524Z" fill="#E0E0E0"/>
<g opacity="0.3">
<path d="M222.467 220.524C224.664 218.991 226.404 216.811 227.478 214.244C228.552 211.677 228.915 208.833 228.522 206.05L233.876 202.282L234.635 201.776L277.022 171.946C279.066 173.342 281.419 174.128 283.839 174.223C286.26 174.319 288.66 173.72 290.794 172.489C292.927 171.258 294.717 169.439 295.979 167.219C297.24 164.999 297.929 162.458 297.973 159.858L295.496 159.397L292.799 163.448L286.596 162.045L283.134 156.348L284.441 149.683L289.596 146.072L286.106 145.09C282.408 143.92 280.357 144.872 276.876 147.313C274.686 148.847 272.953 151.024 271.884 153.586C270.814 156.148 270.453 158.986 270.843 161.762L227.749 192.093L226.414 193.024L222.33 195.896C220.121 194.393 217.556 193.604 214.941 193.623C212.326 193.642 209.771 194.468 207.581 196.002C204.115 198.428 199.441 203.477 198.936 207.564L201.398 208L206.553 204.389L212.76 205.792L216.222 211.489L214.915 218.154L209.364 219.836L209.756 221.765C211.807 222.689 214.039 223.059 216.255 222.843C218.471 222.627 220.603 221.831 222.467 220.524V220.524Z" fill="black"/>
</g>
<path d="M220.005 220.089C222.199 218.553 223.935 216.372 225.005 213.805C226.074 211.238 226.433 208.395 226.037 205.615L231.395 201.842L232.15 201.335L274.537 171.501C276.581 172.901 278.937 173.691 281.36 173.788C283.784 173.885 286.188 173.285 288.324 172.052C290.46 170.818 292.251 168.995 293.511 166.771C294.772 164.546 295.458 162.001 295.497 159.397L290.308 163.013L284.106 161.61L280.644 155.907L281.951 149.248L287.111 145.632C284.877 144.625 282.435 144.276 280.034 144.619C277.634 144.962 275.361 145.986 273.451 147.584C271.541 149.183 270.062 151.299 269.166 153.715C268.27 156.132 267.989 158.76 268.353 161.331L225.259 191.667L223.943 192.569L219.858 195.445C217.814 194.054 215.462 193.272 213.043 193.18C210.624 193.088 208.226 193.689 206.095 194.922C203.964 196.154 202.177 197.973 200.917 200.192C199.657 202.411 198.97 204.951 198.927 207.549L204.087 203.933L210.289 205.336L213.751 211.039L212.444 217.698L207.298 221.33C209.35 222.253 211.58 222.622 213.795 222.406C216.01 222.19 218.142 221.394 220.005 220.089V220.089Z" fill="#E0E0E0"/>
<path d="M220.005 220.089C220.005 220.089 219.759 220.261 219.274 220.595C218.53 221.043 217.752 221.422 216.948 221.73C213.79 222.89 210.345 222.767 207.265 221.385L207.181 221.35L207.261 221.294L212.416 217.673L212.387 217.708C212.788 215.657 213.222 213.424 213.685 211.049V211.104C212.604 209.322 211.439 207.407 210.218 205.407L210.265 205.437L204.058 204.045H204.12L198.96 207.666L198.828 207.757V207.59C198.862 205.102 199.484 202.665 200.635 200.506C201.787 198.347 203.431 196.538 205.412 195.248C207.539 193.84 209.987 193.088 212.487 193.075C215.107 193.069 217.675 193.863 219.891 195.364H219.783L268.311 161.22L268.259 161.341C267.881 158.594 268.226 155.787 269.254 153.238C270.243 150.807 271.823 148.706 273.829 147.158C275.835 145.609 278.192 144.669 280.654 144.436C282.876 144.229 285.113 144.603 287.172 145.525L287.375 145.621L287.191 145.748L282.031 149.364L282.083 149.283C281.646 151.521 281.21 153.741 280.776 155.943V155.852L284.238 161.549L284.167 161.498L290.37 162.901H290.285L295.445 159.29L295.624 159.169V159.392C295.576 162.099 294.834 164.741 293.481 167.026C292.127 169.311 290.214 171.152 287.95 172.346C285.8 173.502 283.403 174.026 281.003 173.866C278.685 173.7 276.442 172.919 274.475 171.592H274.584L226.056 205.675V205.62C226.381 208.021 226.158 210.472 225.405 212.76C224.855 214.424 224.03 215.968 222.971 217.318C222.324 218.131 221.598 218.868 220.806 219.516C220.255 219.927 219.972 220.129 219.972 220.129L220.788 219.491C221.571 218.836 222.29 218.096 222.934 217.283C224.178 215.683 225.09 213.816 225.611 211.808C226.131 209.8 226.248 207.695 225.952 205.635V205.599H225.98L274.452 171.43L274.508 171.394L274.565 171.43C276.501 172.738 278.711 173.505 280.993 173.663C283.357 173.826 285.719 173.312 287.837 172.174C290.057 170.994 291.931 169.181 293.256 166.934C294.582 164.686 295.306 162.091 295.35 159.432L295.52 159.533L290.36 163.149L290.323 163.175H290.275L284.073 161.777H284.026V161.736L280.559 156.034L280.536 155.993V155.943C280.967 153.738 281.402 151.518 281.842 149.283V149.232L281.88 149.202L287.04 145.591V145.809C285.014 144.894 282.811 144.523 280.621 144.729C278.432 144.934 276.322 145.71 274.475 146.989C272.262 148.535 270.521 150.745 269.466 153.345C268.454 155.854 268.116 158.617 268.49 161.321V161.397L268.429 161.443L219.915 195.552L219.858 195.587L219.802 195.552C217.613 194.066 215.075 193.283 212.487 193.293C210.08 193.307 207.721 194.008 205.65 195.322C203.578 196.636 201.868 198.517 200.695 200.773C199.622 202.854 199.039 205.186 198.997 207.564L198.865 207.488L204.053 203.877H204.087L210.289 205.285H210.317V205.316L213.774 211.018V211.044V211.074C213.302 213.444 212.864 215.678 212.458 217.734V217.759L207.27 221.365V221.274C210.329 222.653 213.75 222.792 216.896 221.664C217.701 221.365 218.48 220.994 219.226 220.555L220.005 220.089Z" fill="#263238"/>
<path d="M272.626 169.465C272.626 169.465 272.509 169.399 272.32 169.252C272.054 169.034 271.8 168.799 271.561 168.548C269.969 166.882 268.887 164.736 268.457 162.395C268.39 162.044 268.345 161.689 268.325 161.331C268.307 161.202 268.307 161.07 268.325 160.941C268.363 160.941 268.424 161.488 268.617 162.359C268.874 163.49 269.264 164.581 269.778 165.606C270.293 166.627 270.927 167.575 271.664 168.426C272.249 169.075 272.65 169.429 272.626 169.465Z" fill="#263238"/>
<path d="M84.3166 33.0391H50.4664C47.8955 33.0391 45.8113 35.277 45.8113 38.0377V74.385C45.8113 77.1457 47.8955 79.3836 50.4664 79.3836H84.3166C86.8875 79.3836 88.9717 77.1457 88.9717 74.385V38.0377C88.9717 35.277 86.8875 33.0391 84.3166 33.0391Z" fill="#FF725E"/>
<g opacity="0.3">
<path d="M84.3166 33.0391H50.4664C47.8955 33.0391 45.8113 35.277 45.8113 38.0377V74.385C45.8113 77.1457 47.8955 79.3836 50.4664 79.3836H84.3166C86.8875 79.3836 88.9717 77.1457 88.9717 74.385V38.0377C88.9717 35.277 86.8875 33.0391 84.3166 33.0391Z" fill="black"/>
</g>
<path d="M77.9867 33.0391H44.1366C41.5656 33.0391 39.4814 35.277 39.4814 38.0377V74.385C39.4814 77.1457 41.5656 79.3836 44.1366 79.3836H77.9867C80.5577 79.3836 82.6419 77.1457 82.6419 74.385V38.0377C82.6419 35.277 80.5577 33.0391 77.9867 33.0391Z" fill="#FF725E"/>
<path d="M54.9846 45.8824C55.8751 45.3015 56.8351 44.8534 57.8381 44.5505L58.4229 41.5118L63.196 41.4207L63.8846 44.4289C64.8968 44.696 65.8709 45.1082 66.7805 45.6545L69.1906 43.9529L72.629 47.498L71.1338 50.1467C71.6706 51.1045 72.0862 52.1349 72.3696 53.2106L75.1994 53.8437L75.2843 58.9689L72.4828 59.7083C72.2332 60.7949 71.8494 61.8407 71.3414 62.8179L72.9261 65.4058L69.6246 69.0927L67.1579 67.4873C66.2669 68.0673 65.3071 68.5153 64.3044 68.8192L63.7148 71.8579L58.9418 71.949L58.2579 68.9559C57.2466 68.6858 56.2729 68.2737 55.362 67.7303L52.9518 69.4269L49.5182 65.8818L51.0134 63.2382C50.4732 62.2798 50.0559 61.2475 49.7729 60.1692L46.943 59.5412L46.8582 54.416L49.6597 53.6766C49.9106 52.5904 50.2944 51.5448 50.8011 50.567L49.2211 47.9791L52.5226 44.2871L54.9894 45.8976L54.9846 45.8824ZM57.5268 52.7093C56.8228 53.4917 56.3507 54.4807 56.1702 55.5513C55.9898 56.6219 56.1091 57.7259 56.513 58.7237C56.917 59.7214 57.5875 60.5681 58.4397 61.1567C59.2919 61.7452 60.2874 62.0491 61.3005 62.03C62.3136 62.0109 63.2986 61.6695 64.131 61.0492C64.9634 60.4288 65.6057 59.5573 65.9767 58.5449C66.3478 57.5325 66.4308 56.4247 66.2154 55.3616C66 54.2985 65.4958 53.3279 64.7666 52.5725C63.7894 51.5603 62.4779 51.0061 61.1203 51.0318C59.7628 51.0574 58.4703 51.6608 57.5268 52.7093V52.7093Z" fill="white"/>
<g opacity="0.3">
<path d="M72.9448 33.0391L39.4814 61.7392V67.3252L79.3828 33.0391H72.9448Z" fill="white"/>
</g>
<g opacity="0.3">
<path d="M39.524 73.8381L82.6419 37.9211V48.0044L44.0282 79.4039C43.4324 79.4032 42.8427 79.2761 42.2929 79.0297C41.7431 78.7834 41.244 78.4227 40.8245 77.9685C40.405 77.5143 40.0733 76.9755 39.8485 76.3831C39.6237 75.7907 39.5102 75.1564 39.5145 74.5167L39.524 73.8381Z" fill="white"/>
</g>
</svg>
