<svg width="51" height="26" viewBox="0 0 51 26" fill="none" xmlns="http://www.w3.org/2000/svg">
<path d="M1.8125 13.3438V12.5781C1.8125 11.8906 2.125 11.3229 2.75 10.875L11.6406 4.57812C12.0052 4.33854 12.3229 4.29167 12.5938 4.4375C12.875 4.57292 13.0156 4.83333 13.0156 5.21875V7.90625C13.0156 8.67708 12.5573 9.38021 11.6406 10.0156L7.48438 12.9531L11.6406 15.9062C12.5573 16.5417 13.0156 17.2448 13.0156 18.0156V20.7031C13.0156 21.0885 12.875 21.349 12.5938 21.4844C12.3229 21.6198 12.0052 21.5729 11.6406 21.3438L2.75 15.0312C2.125 14.5938 1.8125 14.0312 1.8125 13.3438Z" fill="#FB8836"/>
<path d="M37.7812 20.7031V18.0156C37.7812 17.2448 38.2396 16.5417 39.1562 15.9062L43.3125 12.9531L39.1562 10.0156C38.2396 9.38021 37.7812 8.67708 37.7812 7.90625V5.21875C37.7812 4.83333 37.9219 4.56771 38.2031 4.42188C38.3073 4.36979 38.4323 4.34375 38.5781 4.34375C38.7344 4.34375 38.9271 4.42188 39.1562 4.57812L48.0469 10.875C48.6615 11.3229 48.974 11.8906 48.9844 12.5781V13.3438C48.9844 14.0312 48.6719 14.5938 48.0469 15.0312L39.1562 21.3438C38.9271 21.4896 38.7344 21.5625 38.5781 21.5625C38.4219 21.5625 38.2969 21.5365 38.2031 21.4844C37.9219 21.349 37.7812 21.0885 37.7812 20.7031Z" fill="#FB8836"/>
<path d="M24.477 15.2404L25.1741 15.8131C25.2664 15.889 25.3822 15.9305 25.5017 15.9305C25.6212 15.9305 25.737 15.889 25.8293 15.8131L26.5258 15.2404C26.6035 15.176 26.6595 15.0893 26.6861 14.992C26.7128 14.8947 26.7089 14.7916 26.6748 14.6966C26.6408 14.6017 26.5783 14.5195 26.4959 14.4613C26.4135 14.4031 26.3152 14.3717 26.2143 14.3714H24.7884C24.6874 14.3713 24.5888 14.4025 24.5061 14.4606C24.4234 14.5188 24.3608 14.601 24.3267 14.6962C24.2926 14.7913 24.2887 14.8947 24.3156 14.9921C24.3425 15.0895 24.3989 15.1762 24.477 15.2404V15.2404ZM25.6203 16.647C25.5744 16.6295 25.5253 16.6222 25.4763 16.6254C25.4273 16.6286 25.3796 16.6423 25.3363 16.6656C25.2931 16.6889 25.2554 16.7212 25.2257 16.7603C25.1961 16.7994 25.1752 16.8445 25.1645 16.8924C25.1068 17.1241 25.0298 17.4046 24.8709 17.6301C24.7252 17.8377 24.5093 18 24.125 18C23.6754 18 23.4375 17.6329 23.4375 17.3125C23.4375 17.2213 23.4013 17.1339 23.3368 17.0694C23.2724 17.005 23.1849 16.9687 23.0938 16.9687C23.0026 16.9687 22.9151 17.005 22.8507 17.0694C22.7862 17.1339 22.75 17.2213 22.75 17.3125C22.75 17.9092 23.1996 18.6875 24.125 18.6875C24.7609 18.6875 25.1755 18.3919 25.4333 18.0261C25.4567 17.9924 25.4787 17.9587 25.5 17.9244C25.5206 17.9587 25.5433 17.9931 25.5667 18.0261C25.8245 18.3919 26.2391 18.6875 26.875 18.6875C27.8004 18.6875 28.25 17.9092 28.25 17.3125C28.25 17.2213 28.2138 17.1339 28.1493 17.0694C28.0849 17.005 27.9974 16.9687 27.9062 16.9687C27.8151 16.9687 27.7276 17.005 27.6632 17.0694C27.5987 17.1339 27.5625 17.2213 27.5625 17.3125C27.5625 17.6329 27.3246 18 26.875 18C26.49 18 26.2748 17.8377 26.1291 17.6301C25.9703 17.4046 25.8933 17.1241 25.8355 16.8924C25.8205 16.8296 25.7887 16.7721 25.7434 16.7261C25.7087 16.6912 25.667 16.6642 25.621 16.647H25.6203Z" fill="#FBFBFB"/>
<path d="M25.5 22.6207C21.2375 22.6207 18.9729 21.3227 18.8787 21.2677C17.7651 20.7195 16.8283 19.8689 16.1755 18.8132C15.5227 17.7575 15.1803 16.5393 15.1875 15.2981C15.1875 14.8829 15.2267 14.469 15.3023 14.0606C15.5035 12.7103 15.9263 11.4025 16.5536 10.19C16.0241 9.42232 15.797 8.48609 15.9159 7.56116C16.0348 6.63624 16.4913 5.78787 17.1977 5.17905C17.904 4.57023 18.8105 4.2439 19.7428 4.26276C20.6751 4.28163 21.5676 4.64435 22.2488 5.28125C24.3585 4.57221 26.6422 4.57221 28.7519 5.28125C29.4324 4.63823 30.3274 4.27058 31.2634 4.24947C32.1995 4.22835 33.1101 4.55528 33.819 5.16695C34.5278 5.77863 34.9846 6.63155 35.1007 7.56062C35.2169 8.48968 34.9842 9.4288 34.4478 10.1962C35.0779 11.4174 35.5021 12.7342 35.7032 14.0936C35.9664 15.5252 35.7545 17.0036 35.0998 18.3037C34.4452 19.6038 33.3835 20.6543 32.0766 21.2952L32.0746 21.2966C31.9776 21.3509 29.7164 22.6207 25.5 22.6207V22.6207ZM25.5 13.1875C24.3868 13.1883 23.2979 13.5131 22.3664 14.1225C22.0596 14.3237 21.8081 14.5985 21.6349 14.922C21.4617 15.2454 21.3724 15.6071 21.375 15.9739V16.4827C21.3577 17.5951 21.7822 18.669 22.5555 19.469C23.3287 20.2689 24.3876 20.7296 25.5 20.75C26.6124 20.7296 27.6713 20.2689 28.4445 19.469C29.2178 18.669 29.6423 17.5951 29.625 16.4827V15.9739C29.6276 15.6071 29.5383 15.2454 29.3651 14.922C29.1919 14.5985 28.9404 14.3237 28.6336 14.1225C27.702 13.5131 26.6132 13.1883 25.5 13.1875V13.1875ZM19.3152 8.83562C19.8847 8.25892 20.5367 7.77004 21.2499 7.385C21.1481 7.13424 20.9886 6.91106 20.7842 6.73362C20.5799 6.55618 20.3366 6.4295 20.074 6.36388C19.8115 6.29827 19.5372 6.29557 19.2734 6.35602C19.0096 6.41646 18.7638 6.53834 18.556 6.71173C18.3483 6.88512 18.1844 7.10513 18.0777 7.35383C17.971 7.60254 17.9246 7.87292 17.9422 8.14297C17.9597 8.41301 18.0408 8.67509 18.1788 8.90788C18.3168 9.14066 18.5079 9.33756 18.7364 9.48256C18.9144 9.26256 19.1076 9.046 19.3152 8.83493V8.83562ZM31.6847 8.83562C31.8931 9.04668 32.0856 9.26325 32.2636 9.48325C32.4922 9.33827 32.6833 9.14136 32.8214 8.90855C32.9595 8.67574 33.0406 8.41361 33.0582 8.1435C33.0758 7.87339 33.0293 7.60295 32.9226 7.35419C32.8159 7.10544 32.652 6.8854 32.4441 6.71201C32.2363 6.53861 31.9904 6.41676 31.7265 6.35637C31.4627 6.29598 31.1883 6.29876 30.9257 6.36449C30.6631 6.43022 30.4198 6.55703 30.2155 6.73461C30.0112 6.91219 29.8518 7.1355 29.7501 7.38637C30.4632 7.771 31.1152 8.25941 31.6847 8.83562V8.83562ZM22.0625 11.7912V12.4787C22.0625 12.661 22.1349 12.8359 22.2639 12.9648C22.3928 13.0938 22.5677 13.1662 22.75 13.1662C22.9323 13.1662 23.1072 13.0938 23.2361 12.9648C23.3651 12.8359 23.4375 12.661 23.4375 12.4787V11.7912C23.4375 11.6088 23.3651 11.434 23.2361 11.305C23.1072 11.1761 22.9323 11.1037 22.75 11.1037C22.5677 11.1037 22.3928 11.1761 22.2639 11.305C22.1349 11.434 22.0625 11.6088 22.0625 11.7912ZM27.5625 11.7912V12.4787C27.5625 12.661 27.6349 12.8359 27.7639 12.9648C27.8928 13.0938 28.0677 13.1662 28.25 13.1662C28.4323 13.1662 28.6072 13.0938 28.7361 12.9648C28.8651 12.8359 28.9375 12.661 28.9375 12.4787V11.7912C28.9375 11.6088 28.8651 11.434 28.7361 11.305C28.6072 11.1761 28.4323 11.1037 28.25 11.1037C28.0677 11.1037 27.8928 11.1761 27.7639 11.305C27.6349 11.434 27.5625 11.6088 27.5625 11.7912Z" fill="#FBFBFB"/>
</svg>
