<svg width="2554" height="1788" viewBox="0 0 2554 1788" fill="none" xmlns="http://www.w3.org/2000/svg">
<path d="M2135.34 332.416C2064.07 228.71 1897.81 208.507 1803.91 292.388C1802.94 249.981 1789.55 208.789 1765.41 173.914C1741.26 139.039 1707.41 112.012 1668.06 96.1797C1628.71 80.3476 1585.57 76.4058 1544 84.8421C1502.43 93.2785 1464.25 113.723 1434.18 143.643C1447.59 96.5035 1398.14 50.5492 1349.22 48.0171C1300.3 45.485 1254.99 71.7754 1213.03 97.0422C1171.06 122.309 1125.48 148.33 1076.56 145.044C1023.61 141.488 979.591 104.531 930.135 85.4055C809.027 38.5892 655.756 121.662 628.927 248.697C494.889 194.823 322.924 283.176 289.199 423.732L2251.71 446.629C2244.71 418.723 2230.14 393.291 2209.61 373.138C2189.08 352.985 2163.38 338.893 2135.34 332.416V332.416Z" fill="#F5F5F5"/>
<path d="M79.0384 840.554C79.0384 840.554 33.138 847.072 59.2667 947.547C85.3955 1048.02 107.376 1099.63 107.376 1099.63C107.376 1099.63 110.878 1122.42 92.5068 1121.77C74.1359 1121.13 36.7475 1106.53 24.0333 1126.57C11.3191 1146.61 22.471 1171.88 51.4012 1197.74C80.3314 1223.6 141.478 1282.48 146.973 1287.87C152.468 1293.25 156.509 1304.03 143.956 1305.81C131.404 1307.59 42.1349 1296.97 39.6028 1339.69C37.0708 1382.42 129.626 1441.19 139.592 1447.82C149.559 1454.44 151.121 1459.62 148.913 1465.44C146.704 1471.25 116.965 1464.95 91.3755 1463.06C65.7855 1461.18 35.8855 1463.5 36.6398 1488.28C37.394 1513.06 85.9342 1575.5 227.191 1621.62L294.048 1638.69L343.235 1589.88C442.255 1479.07 452.922 1400.73 441.124 1378.91C429.325 1357.1 402.227 1370.19 381.055 1384.62C359.882 1399.06 337.309 1419.43 332.568 1415.55C327.827 1411.67 326.534 1406.34 331.814 1395.61C337.094 1384.89 387.412 1287.87 364.138 1251.93C340.865 1216 268.405 1269.93 256.606 1274.88C244.808 1279.84 242.868 1268.15 244.916 1260.88C246.963 1253.6 270.344 1171.77 282.627 1134.92C294.91 1098.07 292.217 1070.86 270.559 1059.5C248.902 1048.13 224.659 1080.29 209.09 1090.1C193.52 1099.9 185.17 1078.41 185.17 1078.41C185.17 1078.41 177.951 1022.7 149.882 922.711C121.814 822.722 77.9609 840.715 77.9609 840.715" fill="#EBEBEB"/>
<path d="M293.994 1655.29C273.792 1581.75 240.121 1450.57 210.544 1337.86C180.967 1225.16 154.192 1123.44 134.313 1049.8C124.4 1013.06 116.373 983.265 110.77 962.631L104.359 938.873L102.743 932.731L102.258 930.576C102.258 930.576 102.527 931.277 102.958 932.677L104.79 938.765C106.352 944.152 108.615 952.18 111.578 962.362C117.45 982.888 125.693 1012.63 135.821 1049.37C156.024 1122.91 183.068 1224.73 212.591 1337.32C242.114 1449.92 275.623 1581.26 295.341 1654.91" fill="#E0E0E0"/>
<path d="M75.6445 1149.2C77.1673 1149.85 78.6278 1150.65 80.0083 1151.57C82.8097 1153.18 86.7425 1155.66 91.5912 1158.73C101.235 1164.93 114.326 1173.76 128.656 1183.84L165.183 1209.7L176.281 1217.51C177.719 1218.36 179.057 1219.37 180.267 1220.52C178.71 1219.93 177.228 1219.15 175.85 1218.21C173.048 1216.59 169.115 1214.11 164.321 1210.99C154.731 1204.69 141.694 1195.63 127.417 1185.61L90.6214 1159.97L79.8467 1152.27C78.2982 1151.46 76.8812 1150.43 75.6445 1149.2V1149.2Z" fill="#E0E0E0"/>
<path d="M185.815 1217.24C185.276 1216.91 202.408 1189.06 224.012 1155.01C245.615 1120.97 263.555 1093.65 264.04 1094.24C264.525 1094.84 247.447 1122.37 225.843 1156.41C204.24 1190.46 186.3 1217.56 185.815 1217.24Z" fill="#E0E0E0"/>
<path d="M223.365 1392.11C224.449 1390.79 225.678 1389.6 227.029 1388.56L237.426 1379.45C246.154 1371.69 258.222 1360.97 271.097 1348.64C283.973 1336.3 295.287 1324.77 303.422 1316.31L313.065 1306.35C314.154 1305.03 315.403 1303.85 316.782 1302.84C315.879 1304.29 314.832 1305.65 313.658 1306.88C311.557 1309.42 308.27 1312.97 304.553 1317.34C296.741 1326.06 285.589 1337.81 272.606 1350.14C259.622 1362.48 247.501 1373.1 238.45 1380.53C233.924 1384.25 230.207 1387.21 227.675 1389.15C226.373 1390.32 224.924 1391.32 223.365 1392.11V1392.11Z" fill="#E0E0E0"/>
<path d="M110.178 1352.84C111.742 1353.01 113.279 1353.37 114.757 1353.92L126.986 1357.69C137.276 1360.92 151.499 1365.55 167.122 1370.78C182.746 1376 196.861 1380.91 207.097 1384.52L219.11 1388.93C220.62 1389.38 222.068 1390.01 223.42 1390.82C221.858 1390.6 220.323 1390.22 218.841 1389.69L206.612 1385.97C196.268 1382.68 182.099 1378.05 166.422 1372.82C150.745 1367.6 136.684 1362.75 126.501 1359.09L114.488 1354.72C112.989 1354.25 111.544 1353.62 110.178 1352.84V1352.84Z" fill="#E0E0E0"/>
<path d="M123.699 1511.17C125.695 1511.49 127.66 1511.98 129.571 1512.63L145.249 1517.37C158.502 1521.46 176.711 1527.28 196.86 1533.53C217.009 1539.78 235.11 1546.08 248.201 1550.56L263.717 1555.94C265.578 1556.53 267.382 1557.29 269.104 1558.21C267.102 1557.92 265.134 1557.44 263.232 1556.75L247.77 1552.17C234.517 1548.08 216.308 1542.26 196.159 1536.01C176.011 1529.76 157.909 1523.46 144.818 1518.99L129.302 1513.6C127.35 1513 125.471 1512.19 123.699 1511.17V1511.17Z" fill="#E0E0E0"/>
<path d="M266.143 1556.37C267.501 1554.69 269.016 1553.14 270.668 1551.74L283.436 1539.67C294.211 1529.44 308.972 1515.32 324.919 1499.21C340.865 1483.11 354.873 1468.24 364.947 1457.35L376.907 1444.42C378.297 1442.78 379.829 1441.27 381.486 1439.9C380.308 1441.69 378.993 1443.38 377.553 1444.96C374.914 1448.2 370.981 1452.77 366.078 1458.32C356.273 1469.48 342.374 1484.56 326.427 1500.67C310.481 1516.78 295.342 1530.62 284.567 1540.8C279.18 1545.71 274.493 1549.69 271.314 1552.39C269.699 1553.85 267.969 1555.18 266.143 1556.37V1556.37Z" fill="#E0E0E0"/>
<path d="M2203.28 1660.73C2091.6 1598.93 2049.63 1461.39 2036.65 1334.41C2034.49 1313.19 2029.32 1291.31 2036.22 1271.44C2043.11 1251.56 2063.15 1235.93 2082.17 1242.4C2097.85 1247.78 2106.68 1265.08 2116.92 1279.03C2130.25 1297.38 2148.52 1311.56 2169.61 1319.92C2183.13 1325.31 2199.24 1327.3 2210.66 1318.31C2226.34 1305.86 2224.94 1280.59 2222.03 1259.48L2205.54 1142.19C2202.58 1121.18 2199.62 1099.74 2203.06 1079C2206.51 1058.26 2217.5 1037.84 2235.39 1029.7C2253.27 1021.57 2278 1029.7 2284.68 1049.85C2286.6 1058.45 2287.97 1067.16 2288.78 1075.93C2290.5 1084.55 2295.56 1093.65 2303.65 1095.05C2311.73 1096.45 2318.89 1089.67 2323.9 1082.45C2341.36 1058.42 2351.43 1029.22 2360.59 1000.29C2369.75 971.359 2378.53 941.836 2393.83 916.192C2409.13 890.548 2432.08 868.675 2459.93 863.126C2487.79 857.577 2520.33 871.962 2531.37 900.299C2542.41 928.637 2530.4 961.177 2516.02 987.575C2494.98 1026.37 2468.47 1061.93 2437.31 1093.17C2431.04 1098.21 2426.52 1105.08 2424.38 1112.83C2422.01 1127.38 2436.28 1139.77 2449.86 1142.41C2465.16 1145.59 2480.84 1141.76 2496.41 1141.6C2511.98 1141.44 2529.54 1146.34 2537.4 1161.05C2548.18 1181.36 2534.6 1206.19 2520.06 1223.22C2491.27 1257.07 2456.7 1285.54 2417.97 1307.32C2404.28 1314.97 2389.74 1322.02 2379.55 1334.25C2369.37 1346.48 2364.85 1366.58 2373.9 1380.37C2382.95 1394.16 2401.64 1396.53 2416.35 1391.14C2431.06 1385.76 2443.29 1375.41 2457.08 1367.6C2482.56 1353 2517.69 1350.2 2538.32 1372.72C2551.9 1387.53 2555.99 1410.43 2552.87 1430.58C2548.96 1450.53 2541.22 1469.54 2530.08 1486.55C2494.14 1546.78 2444.63 1598.13 2385.16 1629.97C2325.68 1661.8 2268.52 1676.08 2203.06 1660.3" fill="#F5F5F5"/>
<path d="M2223.16 1577.28C2233.47 1505.82 2247.68 1434.98 2265.72 1365.07C2270.41 1346.54 2275.04 1328.16 2279.56 1310.12C2284.09 1292.07 2288.67 1274.18 2294.16 1257C2304.67 1224.13 2316.91 1191.85 2330.85 1160.29C2343.94 1130.18 2357.41 1102.11 2370.18 1075.98C2382.95 1049.85 2395.34 1025.72 2407.51 1004.28C2426.49 970.475 2448.1 938.23 2472.16 907.841C2480.57 897.067 2487.35 889.093 2492.04 883.706L2497.43 877.618C2498.01 876.897 2498.66 876.229 2499.37 875.625C2498.89 876.419 2498.35 877.175 2497.75 877.888L2492.63 884.245C2488.16 889.632 2481.54 898.036 2473.29 908.865C2449.81 939.578 2428.63 971.991 2409.94 1005.84C2397.92 1027.39 2385.75 1051.47 2373.03 1077.6C2360.32 1103.73 2346.85 1131.96 2333.92 1161.91C2320.11 1193.37 2307.97 1225.54 2297.56 1258.29C2292.17 1275.42 2287.65 1293.15 2283.07 1311.19C2278.49 1329.24 2273.91 1347.61 2269.22 1366.15C2251.24 1435.9 2236.96 1506.55 2226.44 1577.82" fill="#E0E0E0"/>
<path d="M2295.19 1256.73C2293.84 1253.96 2292.79 1251.05 2292.06 1248.05C2290.23 1242.4 2287.86 1234.1 2285.06 1223.81C2279.67 1203.28 2272.67 1174.68 2265.29 1143C2257.91 1111.32 2250.69 1082.98 2244.82 1062.62C2241.91 1052.44 2239.43 1044.2 2237.76 1038.54C2236.7 1035.64 2235.9 1032.64 2235.39 1029.6C2236.94 1032.26 2238.17 1035.1 2239.05 1038.05C2241.21 1043.44 2244.06 1051.68 2247.24 1061.81C2253.76 1082.07 2261.41 1110.3 2268.79 1142.14C2276.17 1173.98 2282.58 1201.4 2287.54 1222.95C2289.86 1232.7 2291.85 1240.89 2293.41 1247.46C2294.29 1250.49 2294.89 1253.59 2295.19 1256.73Z" fill="#E0E0E0"/>
<path d="M2540.85 1171.45C2537.65 1172.68 2534.33 1173.58 2530.94 1174.14C2524.53 1175.65 2515.26 1177.8 2504 1180.82C2481.27 1186.69 2450.13 1195.96 2416.14 1207.76C2382.14 1219.55 2351.97 1231.84 2330.31 1241.37C2319.54 1246.01 2310.81 1250.05 2304.78 1252.79C2301.74 1254.38 2298.57 1255.7 2295.3 1256.73C2298.05 1254.61 2301.04 1252.81 2304.19 1251.34C2310 1248.16 2318.57 1243.74 2329.29 1238.73C2357.25 1225.69 2385.86 1214.09 2415 1203.99C2443.97 1193.71 2473.49 1185.04 2503.41 1178.02C2514.89 1175.38 2524.26 1173.65 2530.78 1172.63C2534.09 1171.9 2537.46 1171.5 2540.85 1171.45V1171.45Z" fill="#E0E0E0"/>
<path d="M2225.58 1571.83C2225.58 1571.83 2224.72 1570.86 2223.37 1568.82L2217.99 1559.61C2213.14 1551.63 2206.35 1539.89 2198.22 1525.29C2182.05 1496.03 2160.5 1454.87 2137.45 1409.19C2114.39 1363.5 2093.38 1322.13 2077.65 1292.55L2058.9 1257.64L2053.83 1248.05C2053.15 1246.99 2052.62 1245.82 2052.27 1244.61C2053.14 1245.53 2053.88 1246.56 2054.48 1247.68L2059.87 1256.83C2064.72 1264.81 2071.5 1276.55 2079.64 1291.21C2095.8 1320.46 2117.35 1361.57 2140.41 1407.3C2163.47 1453.04 2184.48 1494.31 2200.21 1523.89L2218.96 1558.85L2224.02 1568.33C2224.69 1569.43 2225.21 1570.61 2225.58 1571.83Z" fill="#E0E0E0"/>
<path d="M2545.49 1410C2544.54 1410.79 2543.49 1411.44 2542.36 1411.94L2533.09 1416.73L2498.78 1434.13C2469.85 1448.84 2430.14 1469.64 2386.29 1492.69C2342.44 1515.75 2302.52 1536.17 2273.15 1550.23C2258.55 1557.29 2246.7 1562.84 2238.41 1566.39L2228.87 1570.54C2226.66 1571.46 2225.48 1571.89 2225.42 1571.73C2226.38 1570.97 2227.43 1570.33 2228.55 1569.84L2237.81 1564.99L2272.08 1547.59C2300.95 1532.88 2340.71 1512.09 2384.56 1489.03C2428.42 1465.97 2468.34 1445.55 2497.7 1431.49C2512.3 1424.49 2524.21 1418.89 2532.5 1415.33L2542.04 1411.18C2543.12 1410.62 2544.29 1410.23 2545.49 1410V1410Z" fill="#E0E0E0"/>
<path d="M2540.42 1785.71C2540.42 1786.52 1971.79 1787.17 1270.51 1787.17C569.237 1787.17 0.492188 1786.52 0.492188 1785.71C0.492188 1784.9 569.022 1784.31 1270.51 1784.31C1972 1784.31 2540.42 1784.96 2540.42 1785.71Z" fill="#263238"/>
<path d="M2209.75 395.986H310.322C266.971 395.986 231.828 431.129 231.828 474.48V1677.37C231.828 1720.72 266.971 1755.87 310.322 1755.87H2209.75C2253.1 1755.87 2288.24 1720.72 2288.24 1677.37V474.48C2288.24 431.129 2253.1 395.986 2209.75 395.986Z" fill="#455A64"/>
<path d="M151.447 1668.05H2379.45V1693.16C2379.45 1718.05 2369.56 1741.92 2351.96 1759.52C2334.36 1777.12 2310.49 1787.01 2285.6 1787.01H245.295C220.405 1787.01 196.535 1777.12 178.935 1759.52C161.335 1741.92 151.447 1718.05 151.447 1693.16V1668.05Z" fill="#455A64"/>
<path d="M2227.26 450.021H286.994V1598.45H2227.26V450.021Z" fill="#263238"/>
<path d="M1057.28 1655.34L1084.97 1699.3H1473.99L1499.64 1655.34H1057.28Z" fill="#263238"/>
<path d="M2173.7 488.918H344.583C334.854 488.918 326.967 496.805 326.967 506.535V1577.17C326.967 1586.9 334.854 1594.78 344.583 1594.78H2173.7C2183.43 1594.78 2191.32 1586.9 2191.32 1577.17V506.535C2191.32 496.805 2183.43 488.918 2173.7 488.918Z" fill="#EBEBEB"/>
<path d="M2189.33 1596.4H324.975L326.968 571.561H2189.33V1596.4Z" fill="#FAFAFA"/>
<path d="M2186 572H331V1585.73H2186V572Z" fill="white"/>
<path d="M570.528 660.827H450.865C447.98 660.827 445.213 659.872 443.173 658.173C441.132 656.474 439.986 654.17 439.986 651.767C439.986 649.364 441.132 647.06 443.173 645.361C445.213 643.662 447.98 642.707 450.865 642.707H570.528C573.413 642.707 576.18 643.662 578.22 645.361C580.261 647.06 581.407 649.364 581.407 651.767C581.407 654.17 580.261 656.474 578.22 658.173C576.18 659.872 573.413 660.827 570.528 660.827Z" fill="#263238"/>
<path d="M900.146 712.045H450.502C447.616 712.045 444.849 711.091 442.809 709.392C440.769 707.693 439.623 705.388 439.623 702.986C439.623 700.583 440.769 698.278 442.809 696.579C444.849 694.88 447.616 693.926 450.502 693.926H900.146C903.031 693.926 905.798 694.88 907.838 696.579C909.878 698.278 911.024 700.583 911.024 702.986C911.024 705.388 909.878 707.693 907.838 709.392C905.798 711.091 903.031 712.045 900.146 712.045V712.045Z" fill="#FF6363"/>
<path d="M1595.13 712.045H1145.85C1142.97 712.045 1140.2 711.091 1138.16 709.392C1136.12 707.693 1134.97 705.388 1134.97 702.986C1134.97 700.583 1136.12 698.278 1138.16 696.579C1140.2 694.88 1142.97 693.926 1145.85 693.926H1595.13C1598.02 693.926 1600.79 694.88 1602.83 696.579C1604.87 698.278 1606.01 700.583 1606.01 702.986C1606.01 705.388 1604.87 707.693 1602.83 709.392C1600.79 711.091 1598.02 712.045 1595.13 712.045V712.045Z" fill="#FF6363"/>
<path d="M1107.05 712.045H929.154C926.269 712.045 923.502 711.091 921.462 709.392C919.422 707.693 918.275 705.388 918.275 702.986C918.275 700.583 919.422 698.278 921.462 696.579C923.502 694.88 926.269 693.926 929.154 693.926H1106.91C1109.79 693.926 1112.56 694.88 1114.6 696.579C1116.64 698.278 1117.79 700.583 1117.79 702.986C1117.79 705.388 1116.64 707.693 1114.6 709.392C1112.56 711.091 1109.79 712.045 1106.91 712.045H1107.05Z" fill="#263238"/>
<path d="M709.483 763.141H450.865C447.98 763.141 445.213 762.186 443.172 760.487C441.132 758.788 439.986 756.484 439.986 754.081C439.986 751.678 441.132 749.374 443.172 747.675C445.213 745.976 447.98 745.021 450.865 745.021H709.483C712.368 745.021 715.135 745.976 717.175 747.675C719.215 749.374 720.361 751.678 720.361 754.081C720.361 756.484 719.215 758.788 717.175 760.487C715.135 762.186 712.368 763.141 709.483 763.141Z" fill="#263238"/>
<path d="M1000.37 763.141H741.828C738.943 763.141 736.176 762.186 734.136 760.487C732.095 758.788 730.949 756.484 730.949 754.081C730.949 751.678 732.095 749.374 734.136 747.675C736.176 745.976 738.943 745.021 741.828 745.021H1000.37C1003.26 745.021 1006.03 745.976 1008.07 747.675C1010.11 749.374 1011.25 751.678 1011.25 754.081C1011.25 756.484 1010.11 758.788 1008.07 760.487C1006.03 762.186 1003.26 763.141 1000.37 763.141Z" fill="#263238"/>
<path d="M1291.26 763.141H1032.72C1029.83 763.141 1027.06 762.186 1025.02 760.487C1022.98 758.788 1021.84 756.484 1021.84 754.081C1021.84 751.678 1022.98 749.374 1025.02 747.675C1027.06 745.976 1029.83 745.021 1032.72 745.021H1291.26C1294.15 745.021 1296.91 745.976 1298.95 747.675C1300.99 749.374 1302.14 751.678 1302.14 754.081C1302.14 756.484 1300.99 758.788 1298.95 760.487C1296.91 762.186 1294.15 763.141 1291.26 763.141Z" fill="#263238"/>
<path d="M1433.48 763.141H1323.61C1320.72 763.141 1317.96 762.186 1315.92 760.487C1313.88 758.788 1312.73 756.484 1312.73 754.081C1312.73 751.678 1313.88 749.374 1315.92 747.675C1317.96 745.976 1320.72 745.021 1323.61 745.021H1433.48C1436.37 745.021 1439.13 745.976 1441.17 747.675C1443.21 749.374 1444.36 751.678 1444.36 754.081C1444.36 756.484 1443.21 758.788 1441.17 760.487C1439.13 762.186 1436.37 763.141 1433.48 763.141V763.141Z" fill="#263238"/>
<path d="M722.389 660.827H602.798C599.913 660.827 597.146 659.872 595.106 658.173C593.066 656.474 591.92 654.17 591.92 651.767C591.92 649.364 593.066 647.06 595.106 645.361C597.146 643.662 599.913 642.707 602.798 642.707H722.389C725.274 642.707 728.041 643.662 730.082 645.361C732.122 647.06 733.268 649.364 733.268 651.767C733.268 654.17 732.122 656.474 730.082 658.173C728.041 659.872 725.274 660.827 722.389 660.827Z" fill="#263238"/>
<path d="M1433.48 660.827H1313.89C1311.01 660.827 1308.24 659.872 1306.2 658.173C1304.16 656.474 1303.01 654.17 1303.01 651.767C1303.01 649.364 1304.16 647.06 1306.2 645.361C1308.24 643.662 1311.01 642.707 1313.89 642.707H1433.48C1436.37 642.707 1439.13 643.662 1441.17 645.361C1443.21 647.06 1444.36 649.364 1444.36 651.767C1444.36 654.17 1443.21 656.474 1441.17 658.173C1439.13 659.872 1436.37 660.827 1433.48 660.827Z" fill="#263238"/>
<path d="M1275.09 660.827H1155.5C1152.61 660.827 1149.85 659.872 1147.81 658.173C1145.77 656.474 1144.62 654.17 1144.62 651.767C1144.62 649.364 1145.77 647.06 1147.81 645.361C1149.85 643.662 1152.61 642.707 1155.5 642.707H1275.09C1277.98 642.707 1280.74 643.662 1282.78 645.361C1284.82 647.06 1285.97 649.364 1285.97 651.767C1285.97 654.17 1284.82 656.474 1282.78 658.173C1280.74 659.872 1277.98 660.827 1275.09 660.827Z" fill="#FF6363"/>
<path d="M1103.79 660.827H755.097C752.212 660.827 749.445 659.872 747.405 658.173C745.365 656.474 744.219 654.17 744.219 651.767C744.219 649.364 745.365 647.06 747.405 645.361C749.445 643.662 752.212 642.707 755.097 642.707H1104.15C1107.04 642.707 1109.8 643.662 1111.84 645.361C1113.88 647.06 1115.03 649.364 1115.03 651.767C1115.03 654.17 1113.88 656.474 1111.84 658.173C1109.8 659.872 1107.04 660.827 1104.15 660.827H1103.79Z" fill="#263238"/>
<path d="M570.528 973.086H450.865C447.98 973.086 445.213 972.132 443.173 970.433C441.132 968.734 439.986 966.429 439.986 964.027C439.986 961.624 441.132 959.319 443.173 957.62C445.213 955.921 447.98 954.967 450.865 954.967H570.528C573.413 954.967 576.18 955.921 578.22 957.62C580.261 959.319 581.407 961.624 581.407 964.027C581.407 966.429 580.261 968.734 578.22 970.433C576.18 972.132 573.413 973.086 570.528 973.086Z" fill="#263238"/>
<path d="M900.146 1024.24H450.502C447.616 1024.24 444.849 1023.29 442.809 1021.59C440.769 1019.89 439.623 1017.59 439.623 1015.18C439.623 1012.78 440.769 1010.48 442.809 1008.78C444.849 1007.08 447.616 1006.12 450.502 1006.12H900.146C903.031 1006.12 905.798 1007.08 907.838 1008.78C909.878 1010.48 911.024 1012.78 911.024 1015.18C911.024 1017.59 909.878 1019.89 907.838 1021.59C905.798 1023.29 903.031 1024.24 900.146 1024.24V1024.24Z" fill="#FF6363"/>
<path d="M1595.13 1024.24H1145.85C1142.97 1024.24 1140.2 1023.29 1138.16 1021.59C1136.12 1019.89 1134.97 1017.59 1134.97 1015.18C1134.97 1012.78 1136.12 1010.48 1138.16 1008.78C1140.2 1007.08 1142.97 1006.12 1145.85 1006.12H1595.13C1598.02 1006.12 1600.79 1007.08 1602.83 1008.78C1604.87 1010.48 1606.01 1012.78 1606.01 1015.18C1606.01 1017.59 1604.87 1019.89 1602.83 1021.59C1600.79 1023.29 1598.02 1024.24 1595.13 1024.24V1024.24Z" fill="#263238"/>
<path d="M1107.05 1024.24H929.154C926.269 1024.24 923.502 1023.29 921.462 1021.59C919.422 1019.89 918.275 1017.59 918.275 1015.18C918.275 1012.78 919.422 1010.48 921.462 1008.78C923.502 1007.08 926.269 1006.12 929.154 1006.12H1106.91C1109.79 1006.12 1112.56 1007.08 1114.6 1008.78C1116.64 1010.48 1117.79 1012.78 1117.79 1015.18C1117.79 1017.59 1116.64 1019.89 1114.6 1021.59C1112.56 1023.29 1109.79 1024.24 1106.91 1024.24H1107.05Z" fill="#263238"/>
<path d="M709.483 1075.4H450.865C447.98 1075.4 445.213 1074.45 443.172 1072.75C441.132 1071.05 439.986 1068.75 439.986 1066.34C439.986 1063.94 441.132 1061.64 443.172 1059.94C445.213 1058.24 447.98 1057.28 450.865 1057.28H709.483C712.368 1057.28 715.135 1058.24 717.175 1059.94C719.215 1061.64 720.361 1063.94 720.361 1066.34C720.361 1068.75 719.215 1071.05 717.175 1072.75C715.135 1074.45 712.368 1075.4 709.483 1075.4V1075.4Z" fill="#263238"/>
<path d="M1000.37 1075.4H741.828C738.943 1075.4 736.176 1074.45 734.136 1072.75C732.095 1071.05 730.949 1068.75 730.949 1066.34C730.949 1063.94 732.095 1061.64 734.136 1059.94C736.176 1058.24 738.943 1057.28 741.828 1057.28H1000.37C1003.26 1057.28 1006.03 1058.24 1008.07 1059.94C1010.11 1061.64 1011.25 1063.94 1011.25 1066.34C1011.25 1068.75 1010.11 1071.05 1008.07 1072.75C1006.03 1074.45 1003.26 1075.4 1000.37 1075.4V1075.4Z" fill="#263238"/>
<path d="M1291.26 1075.4H1032.72C1029.83 1075.4 1027.06 1074.45 1025.02 1072.75C1022.98 1071.05 1021.84 1068.75 1021.84 1066.34C1021.84 1063.94 1022.98 1061.64 1025.02 1059.94C1027.06 1058.24 1029.83 1057.28 1032.72 1057.28H1291.26C1294.15 1057.28 1296.91 1058.24 1298.95 1059.94C1300.99 1061.64 1302.14 1063.94 1302.14 1066.34C1302.14 1068.75 1300.99 1071.05 1298.95 1072.75C1296.91 1074.45 1294.15 1075.4 1291.26 1075.4V1075.4Z" fill="#FF6363"/>
<path d="M1433.48 1075.4H1323.61C1320.72 1075.4 1317.96 1074.45 1315.92 1072.75C1313.88 1071.05 1312.73 1068.75 1312.73 1066.34C1312.73 1063.94 1313.88 1061.64 1315.92 1059.94C1317.96 1058.24 1320.72 1057.28 1323.61 1057.28H1433.48C1436.37 1057.28 1439.13 1058.24 1441.17 1059.94C1443.21 1061.64 1444.36 1063.94 1444.36 1066.34C1444.36 1068.75 1443.21 1071.05 1441.17 1072.75C1439.13 1074.45 1436.37 1075.4 1433.48 1075.4V1075.4Z" fill="#263238"/>
<path d="M722.389 973.086H602.798C599.913 973.086 597.146 972.132 595.106 970.433C593.066 968.734 591.92 966.429 591.92 964.027C591.92 961.624 593.066 959.319 595.106 957.62C597.146 955.921 599.913 954.967 602.798 954.967H722.389C725.274 954.967 728.041 955.921 730.082 957.62C732.122 959.319 733.268 961.624 733.268 964.027C733.268 966.429 732.122 968.734 730.082 970.433C728.041 972.132 725.274 973.086 722.389 973.086Z" fill="#263238"/>
<path d="M1433.48 973.086H1313.89C1311.01 973.086 1308.24 972.132 1306.2 970.433C1304.16 968.734 1303.01 966.429 1303.01 964.027C1303.01 961.624 1304.16 959.319 1306.2 957.62C1308.24 955.921 1311.01 954.967 1313.89 954.967H1433.48C1436.37 954.967 1439.13 955.921 1441.17 957.62C1443.21 959.319 1444.36 961.624 1444.36 964.027C1444.36 966.429 1443.21 968.734 1441.17 970.433C1439.13 972.132 1436.37 973.086 1433.48 973.086Z" fill="#263238"/>
<path d="M1275.09 973.086H1155.5C1152.61 973.086 1149.85 972.132 1147.81 970.433C1145.77 968.734 1144.62 966.429 1144.62 964.027C1144.62 961.624 1145.77 959.319 1147.81 957.62C1149.85 955.921 1152.61 954.967 1155.5 954.967H1275.09C1277.98 954.967 1280.74 955.921 1282.78 957.62C1284.82 959.319 1285.97 961.624 1285.97 964.027C1285.97 966.429 1284.82 968.734 1282.78 970.433C1280.74 972.132 1277.98 973.086 1275.09 973.086Z" fill="#FF6363"/>
<path d="M1103.79 973.086H755.097C752.212 973.086 749.445 972.132 747.405 970.433C745.365 968.734 744.219 966.429 744.219 964.027C744.219 961.624 745.365 959.319 747.405 957.62C749.445 955.921 752.212 954.967 755.097 954.967H1104.15C1107.04 954.967 1109.8 955.921 1111.84 957.62C1113.88 959.319 1115.03 961.624 1115.03 964.027C1115.03 966.429 1113.88 968.734 1111.84 970.433C1109.8 972.132 1107.04 973.086 1104.15 973.086H1103.79Z" fill="#263238"/>
<path d="M570.528 1433.38H450.865C447.98 1433.38 445.213 1432.43 443.173 1430.73C441.132 1429.03 439.986 1426.73 439.986 1424.32C439.986 1421.92 441.132 1419.62 443.173 1417.92C445.213 1416.22 447.98 1415.26 450.865 1415.26H570.528C573.413 1415.26 576.18 1416.22 578.22 1417.92C580.261 1419.62 581.407 1421.92 581.407 1424.32C581.407 1426.73 580.261 1429.03 578.22 1430.73C576.18 1432.43 573.413 1433.38 570.528 1433.38Z" fill="#263238"/>
<path d="M900.146 1484.54H450.502C447.616 1484.54 444.849 1483.59 442.809 1481.89C440.769 1480.19 439.623 1477.88 439.623 1475.48C439.623 1473.08 440.769 1470.77 442.809 1469.07C444.849 1467.37 447.616 1466.42 450.502 1466.42H900.146C903.031 1466.42 905.798 1467.37 907.838 1469.07C909.878 1470.77 911.024 1473.08 911.024 1475.48C911.024 1477.88 909.878 1480.19 907.838 1481.89C905.798 1483.59 903.031 1484.54 900.146 1484.54V1484.54Z" fill="#FF6363"/>
<path d="M1595.13 1484.54H1145.85C1142.97 1484.54 1140.2 1483.59 1138.16 1481.89C1136.12 1480.19 1134.97 1477.88 1134.97 1475.48C1134.97 1473.08 1136.12 1470.77 1138.16 1469.07C1140.2 1467.37 1142.97 1466.42 1145.85 1466.42H1595.13C1598.02 1466.42 1600.79 1467.37 1602.83 1469.07C1604.87 1470.77 1606.01 1473.08 1606.01 1475.48C1606.01 1477.88 1604.87 1480.19 1602.83 1481.89C1600.79 1483.59 1598.02 1484.54 1595.13 1484.54V1484.54Z" fill="#263238"/>
<path d="M1107.05 1484.54H929.154C926.269 1484.54 923.502 1483.59 921.462 1481.89C919.422 1480.19 918.275 1477.88 918.275 1475.48C918.275 1473.08 919.422 1470.77 921.462 1469.07C923.502 1467.37 926.269 1466.42 929.154 1466.42H1106.91C1109.79 1466.42 1112.56 1467.37 1114.6 1469.07C1116.64 1470.77 1117.79 1473.08 1117.79 1475.48C1117.79 1477.88 1116.64 1480.19 1114.6 1481.89C1112.56 1483.59 1109.79 1484.54 1106.91 1484.54H1107.05Z" fill="#263238"/>
<path d="M709.483 1535.7H450.865C447.98 1535.7 445.213 1534.74 443.172 1533.04C441.132 1531.35 439.986 1529.04 439.986 1526.64C439.986 1524.24 441.132 1521.93 443.172 1520.23C445.213 1518.53 447.98 1517.58 450.865 1517.58H709.483C712.368 1517.58 715.135 1518.53 717.175 1520.23C719.215 1521.93 720.361 1524.24 720.361 1526.64C720.361 1529.04 719.215 1531.35 717.175 1533.04C715.135 1534.74 712.368 1535.7 709.483 1535.7Z" fill="#263238"/>
<path d="M1000.37 1535.7H741.828C738.943 1535.7 736.176 1534.74 734.136 1533.04C732.095 1531.35 730.949 1529.04 730.949 1526.64C730.949 1524.24 732.095 1521.93 734.136 1520.23C736.176 1518.53 738.943 1517.58 741.828 1517.58H1000.37C1003.26 1517.58 1006.03 1518.53 1008.07 1520.23C1010.11 1521.93 1011.25 1524.24 1011.25 1526.64C1011.25 1529.04 1010.11 1531.35 1008.07 1533.04C1006.03 1534.74 1003.26 1535.7 1000.37 1535.7Z" fill="#263238"/>
<path d="M1291.26 1535.7H1032.72C1029.83 1535.7 1027.06 1534.74 1025.02 1533.04C1022.98 1531.35 1021.84 1529.04 1021.84 1526.64C1021.84 1524.24 1022.98 1521.93 1025.02 1520.23C1027.06 1518.53 1029.83 1517.58 1032.72 1517.58H1291.26C1294.15 1517.58 1296.91 1518.53 1298.95 1520.23C1300.99 1521.93 1302.14 1524.24 1302.14 1526.64C1302.14 1529.04 1300.99 1531.35 1298.95 1533.04C1296.91 1534.74 1294.15 1535.7 1291.26 1535.7Z" fill="#FF6363"/>
<path d="M1433.48 1535.7H1323.61C1320.72 1535.7 1317.96 1534.74 1315.92 1533.04C1313.88 1531.35 1312.73 1529.04 1312.73 1526.64C1312.73 1524.24 1313.88 1521.93 1315.92 1520.23C1317.96 1518.53 1320.72 1517.58 1323.61 1517.58H1433.48C1436.37 1517.58 1439.13 1518.53 1441.17 1520.23C1443.21 1521.93 1444.36 1524.24 1444.36 1526.64C1444.36 1529.04 1443.21 1531.35 1441.17 1533.04C1439.13 1534.74 1436.37 1535.7 1433.48 1535.7V1535.7Z" fill="#263238"/>
<path d="M722.389 1433.38H602.798C599.913 1433.38 597.146 1432.43 595.106 1430.73C593.066 1429.03 591.92 1426.73 591.92 1424.32C591.92 1421.92 593.066 1419.62 595.106 1417.92C597.146 1416.22 599.913 1415.26 602.798 1415.26H722.389C725.274 1415.26 728.041 1416.22 730.082 1417.92C732.122 1419.62 733.268 1421.92 733.268 1424.32C733.268 1426.73 732.122 1429.03 730.082 1430.73C728.041 1432.43 725.274 1433.38 722.389 1433.38Z" fill="#263238"/>
<path d="M1433.48 1433.38H1313.89C1311.01 1433.38 1308.24 1432.43 1306.2 1430.73C1304.16 1429.03 1303.01 1426.73 1303.01 1424.32C1303.01 1421.92 1304.16 1419.62 1306.2 1417.92C1308.24 1416.22 1311.01 1415.26 1313.89 1415.26H1433.48C1436.37 1415.26 1439.13 1416.22 1441.17 1417.92C1443.21 1419.62 1444.36 1421.92 1444.36 1424.32C1444.36 1426.73 1443.21 1429.03 1441.17 1430.73C1439.13 1432.43 1436.37 1433.38 1433.48 1433.38Z" fill="#263238"/>
<path d="M1275.09 1433.38H1155.5C1152.61 1433.38 1149.85 1432.43 1147.81 1430.73C1145.77 1429.03 1144.62 1426.73 1144.62 1424.32C1144.62 1421.92 1145.77 1419.62 1147.81 1417.92C1149.85 1416.22 1152.61 1415.26 1155.5 1415.26H1275.09C1277.98 1415.26 1280.74 1416.22 1282.78 1417.92C1284.82 1419.62 1285.97 1421.92 1285.97 1424.32C1285.97 1426.73 1284.82 1429.03 1282.78 1430.73C1280.74 1432.43 1277.98 1433.38 1275.09 1433.38Z" fill="#FF6363"/>
<path d="M1103.79 1433.38H755.097C752.212 1433.38 749.445 1432.43 747.405 1430.73C745.365 1429.03 744.219 1426.73 744.219 1424.32C744.219 1421.92 745.365 1419.62 747.405 1417.92C749.445 1416.22 752.212 1415.26 755.097 1415.26H1104.15C1107.04 1415.26 1109.8 1416.22 1111.84 1417.92C1113.88 1419.62 1115.03 1421.92 1115.03 1424.32C1115.03 1426.73 1113.88 1429.03 1111.84 1430.73C1109.8 1432.43 1107.04 1433.38 1104.15 1433.38H1103.79Z" fill="#263238"/>
<path d="M1242.82 816.957H1123.23C1120.34 816.957 1117.57 816.003 1115.53 814.304C1113.49 812.605 1112.35 810.3 1112.35 807.898C1112.35 805.495 1113.49 803.191 1115.53 801.491C1117.57 799.792 1120.34 798.838 1123.23 798.838H1242.82C1245.7 798.838 1248.47 799.792 1250.51 801.491C1252.55 803.191 1253.7 805.495 1253.7 807.898C1253.7 810.3 1252.55 812.605 1250.51 814.304C1248.47 816.003 1245.7 816.957 1242.82 816.957V816.957Z" fill="#263238"/>
<path d="M1084.42 816.957H964.834C961.948 816.957 959.181 816.003 957.141 814.304C955.101 812.605 953.955 810.3 953.955 807.898C953.955 805.495 955.101 803.191 957.141 801.491C959.181 799.792 961.948 798.838 964.834 798.838H1084.42C1087.31 798.838 1090.08 799.792 1092.12 801.491C1094.16 803.191 1095.3 805.495 1095.3 807.898C1095.3 810.3 1094.16 812.605 1092.12 814.304C1090.08 816.003 1087.31 816.957 1084.42 816.957V816.957Z" fill="#263238"/>
<path d="M913.127 816.957H564C561.114 816.957 558.347 816.003 556.307 814.304C554.267 812.605 553.121 810.3 553.121 807.898C553.121 805.495 554.267 803.191 556.307 801.491C558.347 799.792 561.114 798.838 564 798.838H913.127C916.012 798.838 918.779 799.792 920.819 801.491C922.859 803.191 924.005 805.495 924.005 807.898C924.005 810.3 922.859 812.605 920.819 814.304C918.779 816.003 916.012 816.957 913.127 816.957V816.957Z" fill="#263238"/>
<path d="M1242.82 908.459H1123.23C1120.34 908.459 1117.57 907.505 1115.53 905.806C1113.49 904.107 1112.35 901.802 1112.35 899.4C1112.35 896.997 1113.49 894.692 1115.53 892.993C1117.57 891.294 1120.34 890.34 1123.23 890.34H1242.82C1245.7 890.34 1248.47 891.294 1250.51 892.993C1252.55 894.692 1253.7 896.997 1253.7 899.4C1253.7 901.802 1252.55 904.107 1250.51 905.806C1248.47 907.505 1245.7 908.459 1242.82 908.459V908.459Z" fill="#263238"/>
<path d="M1084.42 908.459H964.834C961.948 908.459 959.181 907.505 957.141 905.806C955.101 904.107 953.955 901.802 953.955 899.4C953.955 896.997 955.101 894.692 957.141 892.993C959.181 891.294 961.948 890.34 964.834 890.34H1084.42C1087.31 890.34 1090.08 891.294 1092.12 892.993C1094.16 894.692 1095.3 896.997 1095.3 899.4C1095.3 901.802 1094.16 904.107 1092.12 905.806C1090.08 907.505 1087.31 908.459 1084.42 908.459V908.459Z" fill="#263238"/>
<path d="M913.127 908.459H564C561.114 908.459 558.347 907.505 556.307 905.806C554.267 904.107 553.121 901.802 553.121 899.4C553.121 896.997 554.267 894.692 556.307 892.993C558.347 891.294 561.114 890.34 564 890.34H913.127C916.012 890.34 918.779 891.294 920.819 892.993C922.859 894.692 924.005 896.997 924.005 899.4C924.005 901.802 922.859 904.107 920.819 905.806C918.779 907.505 916.012 908.459 913.127 908.459V908.459Z" fill="#FF6363"/>
<path d="M683.59 863.039H564C561.114 863.039 558.347 862.085 556.307 860.386C554.267 858.687 553.121 856.382 553.121 853.98C553.121 851.577 554.267 849.273 556.307 847.574C558.347 845.874 561.114 844.92 564 844.92H683.59C686.476 844.92 689.243 845.874 691.283 847.574C693.323 849.273 694.469 851.577 694.469 853.98C694.469 856.382 693.323 858.687 691.283 860.386C689.243 862.085 686.476 863.039 683.59 863.039V863.039Z" fill="#263238"/>
<path d="M842.126 863.039H722.39C719.505 863.039 716.738 862.085 714.698 860.386C712.658 858.687 711.512 856.382 711.512 853.98C711.512 851.577 712.658 849.273 714.698 847.574C716.738 845.874 719.505 844.92 722.39 844.92H842.126C845.011 844.92 847.778 845.874 849.818 847.574C851.858 849.273 853.005 851.577 853.005 853.98C853.005 856.382 851.858 858.687 849.818 860.386C847.778 862.085 845.011 863.039 842.126 863.039Z" fill="#263238"/>
<path d="M1242.82 863.039H893.691C890.806 863.039 888.039 862.085 885.999 860.386C883.959 858.687 882.812 856.382 882.812 853.98C882.812 851.577 883.959 849.273 885.999 847.574C888.039 845.874 890.806 844.92 893.691 844.92H1242.82C1245.7 844.92 1248.47 845.874 1250.51 847.574C1252.55 849.273 1253.7 851.577 1253.7 853.98C1253.7 856.382 1252.55 858.687 1250.51 860.386C1248.47 862.085 1245.7 863.039 1242.82 863.039V863.039Z" fill="#FF6363"/>
<path d="M1242.82 1137.31H1123.23C1120.34 1137.31 1117.57 1136.35 1115.53 1134.66C1113.49 1132.96 1112.35 1130.65 1112.35 1128.25C1112.35 1125.85 1113.49 1123.54 1115.53 1121.84C1117.57 1120.14 1120.34 1119.19 1123.23 1119.19H1242.82C1245.7 1119.19 1248.47 1120.14 1250.51 1121.84C1252.55 1123.54 1253.7 1125.85 1253.7 1128.25C1253.7 1130.65 1252.55 1132.96 1250.51 1134.66C1248.47 1136.35 1245.7 1137.31 1242.82 1137.31V1137.31Z" fill="#263238"/>
<path d="M1084.42 1137.31H964.834C961.948 1137.31 959.181 1136.35 957.141 1134.66C955.101 1132.96 953.955 1130.65 953.955 1128.25C953.955 1125.85 955.101 1123.54 957.141 1121.84C959.181 1120.14 961.948 1119.19 964.834 1119.19H1084.42C1087.31 1119.19 1090.08 1120.14 1092.12 1121.84C1094.16 1123.54 1095.3 1125.85 1095.3 1128.25C1095.3 1130.65 1094.16 1132.96 1092.12 1134.66C1090.08 1136.35 1087.31 1137.31 1084.42 1137.31V1137.31Z" fill="#263238"/>
<path d="M913.127 1137.31H564C561.114 1137.31 558.347 1136.35 556.307 1134.66C554.267 1132.96 553.121 1130.65 553.121 1128.25C553.121 1125.85 554.267 1123.54 556.307 1121.84C558.347 1120.14 561.114 1119.19 564 1119.19H913.127C916.012 1119.19 918.779 1120.14 920.819 1121.84C922.859 1123.54 924.005 1125.85 924.005 1128.25C924.005 1130.65 922.859 1132.96 920.819 1134.66C918.779 1136.35 916.012 1137.31 913.127 1137.31V1137.31Z" fill="#263238"/>
<path d="M1242.82 1228.81H1123.23C1120.34 1228.81 1117.57 1227.86 1115.53 1226.16C1113.49 1224.46 1112.35 1222.16 1112.35 1219.75C1112.35 1217.35 1113.49 1215.05 1115.53 1213.35C1117.57 1211.65 1120.34 1210.69 1123.23 1210.69H1242.82C1245.7 1210.69 1248.47 1211.65 1250.51 1213.35C1252.55 1215.05 1253.7 1217.35 1253.7 1219.75C1253.7 1222.16 1252.55 1224.46 1250.51 1226.16C1248.47 1227.86 1245.7 1228.81 1242.82 1228.81V1228.81Z" fill="#263238"/>
<path d="M1084.42 1228.81H964.834C961.948 1228.81 959.181 1227.86 957.141 1226.16C955.101 1224.46 953.955 1222.16 953.955 1219.75C953.955 1217.35 955.101 1215.05 957.141 1213.35C959.181 1211.65 961.948 1210.69 964.834 1210.69H1084.42C1087.31 1210.69 1090.08 1211.65 1092.12 1213.35C1094.16 1215.05 1095.3 1217.35 1095.3 1219.75C1095.3 1222.16 1094.16 1224.46 1092.12 1226.16C1090.08 1227.86 1087.31 1228.81 1084.42 1228.81V1228.81Z" fill="#263238"/>
<path d="M913.127 1228.81H564C561.114 1228.81 558.347 1227.86 556.307 1226.16C554.267 1224.46 553.121 1222.16 553.121 1219.75C553.121 1217.35 554.267 1215.05 556.307 1213.35C558.347 1211.65 561.114 1210.69 564 1210.69H913.127C916.012 1210.69 918.779 1211.65 920.819 1213.35C922.859 1215.05 924.005 1217.35 924.005 1219.75C924.005 1222.16 922.859 1224.46 920.819 1226.16C918.779 1227.86 916.012 1228.81 913.127 1228.81V1228.81Z" fill="#FF6363"/>
<path d="M683.59 1183.15H564C561.114 1183.15 558.347 1182.2 556.307 1180.5C554.267 1178.8 553.121 1176.49 553.121 1174.09C553.121 1171.69 554.267 1169.38 556.307 1167.68C558.347 1165.99 561.114 1165.03 564 1165.03H683.59C686.476 1165.03 689.243 1165.99 691.283 1167.68C693.323 1169.38 694.469 1171.69 694.469 1174.09C694.469 1176.49 693.323 1178.8 691.283 1180.5C689.243 1182.2 686.476 1183.15 683.59 1183.15V1183.15Z" fill="#263238"/>
<path d="M842.126 1183.15H722.39C719.505 1183.15 716.738 1182.2 714.698 1180.5C712.658 1178.8 711.512 1176.49 711.512 1174.09C711.512 1171.69 712.658 1169.38 714.698 1167.68C716.738 1165.99 719.505 1165.03 722.39 1165.03H842.126C845.011 1165.03 847.778 1165.99 849.818 1167.68C851.858 1169.38 853.005 1171.69 853.005 1174.09C853.005 1176.49 851.858 1178.8 849.818 1180.5C847.778 1182.2 845.011 1183.15 842.126 1183.15Z" fill="#263238"/>
<path d="M1242.82 1183.15H893.691C890.806 1183.15 888.039 1182.2 885.999 1180.5C883.959 1178.8 882.812 1176.49 882.812 1174.09C882.812 1171.69 883.959 1169.38 885.999 1167.68C888.039 1165.99 890.806 1165.03 893.691 1165.03H1242.82C1245.7 1165.03 1248.47 1165.99 1250.51 1167.68C1252.55 1169.38 1253.7 1171.69 1253.7 1174.09C1253.7 1176.49 1252.55 1178.8 1250.51 1180.5C1248.47 1182.2 1245.7 1183.15 1242.82 1183.15V1183.15Z" fill="#FF6363"/>
<path d="M683.59 1282.69H564C561.114 1282.69 558.347 1281.74 556.307 1280.04C554.267 1278.34 553.121 1276.03 553.121 1273.63C553.121 1271.23 554.267 1268.92 556.307 1267.22C558.347 1265.52 561.114 1264.57 564 1264.57H683.59C686.476 1264.57 689.243 1265.52 691.283 1267.22C693.323 1268.92 694.469 1271.23 694.469 1273.63C694.469 1276.03 693.323 1278.34 691.283 1280.04C689.243 1281.74 686.476 1282.69 683.59 1282.69V1282.69Z" fill="#263238"/>
<path d="M842.126 1282.69H722.39C719.505 1282.69 716.738 1281.74 714.698 1280.04C712.658 1278.34 711.512 1276.03 711.512 1273.63C711.512 1271.23 712.658 1268.92 714.698 1267.22C716.738 1265.52 719.505 1264.57 722.39 1264.57H842.126C845.011 1264.57 847.778 1265.52 849.818 1267.22C851.858 1268.92 853.005 1271.23 853.005 1273.63C853.005 1276.03 851.858 1278.34 849.818 1280.04C847.778 1281.74 845.011 1282.69 842.126 1282.69V1282.69Z" fill="#263238"/>
<path d="M1242.82 1282.69H893.691C890.806 1282.69 888.039 1281.74 885.999 1280.04C883.959 1278.34 882.812 1276.03 882.812 1273.63C882.812 1271.23 883.959 1268.92 885.999 1267.22C888.039 1265.52 890.806 1264.57 893.691 1264.57H1242.82C1245.7 1264.57 1248.47 1265.52 1250.51 1267.22C1252.55 1268.92 1253.7 1271.23 1253.7 1273.63C1253.7 1276.03 1252.55 1278.34 1250.51 1280.04C1248.47 1281.74 1245.7 1282.69 1242.82 1282.69V1282.69Z" fill="#FF6363"/>
<path d="M683.59 1374.19H564C561.114 1374.19 558.347 1373.24 556.307 1371.54C554.267 1369.84 553.121 1367.53 553.121 1365.13C553.121 1362.73 554.267 1360.42 556.307 1358.73C558.347 1357.03 561.114 1356.07 564 1356.07H683.59C686.476 1356.07 689.243 1357.03 691.283 1358.73C693.323 1360.42 694.469 1362.73 694.469 1365.13C694.469 1367.53 693.323 1369.84 691.283 1371.54C689.243 1373.24 686.476 1374.19 683.59 1374.19V1374.19Z" fill="#263238"/>
<path d="M842.126 1374.19H722.39C719.505 1374.19 716.738 1373.24 714.698 1371.54C712.658 1369.84 711.512 1367.53 711.512 1365.13C711.512 1362.73 712.658 1360.42 714.698 1358.73C716.738 1357.03 719.505 1356.07 722.39 1356.07H842.126C845.011 1356.07 847.778 1357.03 849.818 1358.73C851.858 1360.42 853.005 1362.73 853.005 1365.13C853.005 1367.53 851.858 1369.84 849.818 1371.54C847.778 1373.24 845.011 1374.19 842.126 1374.19V1374.19Z" fill="#263238"/>
<path d="M1242.82 1374.19H893.691C890.806 1374.19 888.039 1373.24 885.999 1371.54C883.959 1369.84 882.812 1367.53 882.812 1365.13C882.812 1362.73 883.959 1360.42 885.999 1358.73C888.039 1357.03 890.806 1356.07 893.691 1356.07H1242.82C1245.7 1356.07 1248.47 1357.03 1250.51 1358.73C1252.55 1360.42 1253.7 1362.73 1253.7 1365.13C1253.7 1367.53 1252.55 1369.84 1250.51 1371.54C1248.47 1373.24 1245.7 1374.19 1242.82 1374.19V1374.19Z" fill="#FF6363"/>
<path d="M1242.82 1328.41H1123.23C1120.34 1328.41 1117.57 1327.46 1115.53 1325.76C1113.49 1324.06 1112.35 1321.75 1112.35 1319.35C1112.35 1316.95 1113.49 1314.64 1115.53 1312.94C1117.57 1311.25 1120.34 1310.29 1123.23 1310.29H1242.82C1245.7 1310.29 1248.47 1311.25 1250.51 1312.94C1252.55 1314.64 1253.7 1316.95 1253.7 1319.35C1253.7 1321.75 1252.55 1324.06 1250.51 1325.76C1248.47 1327.46 1245.7 1328.41 1242.82 1328.41V1328.41Z" fill="#263238"/>
<path d="M1084.42 1328.41H964.834C961.948 1328.41 959.181 1327.46 957.141 1325.76C955.101 1324.06 953.955 1321.75 953.955 1319.35C953.955 1316.95 955.101 1314.64 957.141 1312.94C959.181 1311.25 961.948 1310.29 964.834 1310.29H1084.42C1087.31 1310.29 1090.08 1311.25 1092.12 1312.94C1094.16 1314.64 1095.3 1316.95 1095.3 1319.35C1095.3 1321.75 1094.16 1324.06 1092.12 1325.76C1090.08 1327.46 1087.31 1328.41 1084.42 1328.41V1328.41Z" fill="#263238"/>
<path d="M913.127 1328.41H564C561.114 1328.41 558.347 1327.46 556.307 1325.76C554.267 1324.06 553.121 1321.75 553.121 1319.35C553.121 1316.95 554.267 1314.64 556.307 1312.94C558.347 1311.25 561.114 1310.29 564 1310.29H913.127C916.012 1310.29 918.779 1311.25 920.819 1312.94C922.859 1314.64 924.005 1316.95 924.005 1319.35C924.005 1321.75 922.859 1324.06 920.819 1325.76C918.779 1327.46 916.012 1328.41 913.127 1328.41V1328.41Z" fill="#FF6363"/>
<path d="M406.554 634.01H368.334V665.417H406.554V634.01Z" fill="#263238"/>
<path d="M406.554 685.588H368.334V716.995H406.554V685.588Z" fill="#263238"/>
<path d="M406.554 737.229H368.334V768.636H406.554V737.229Z" fill="#263238"/>
<path d="M406.554 788.811H368.334V820.218H406.554V788.811Z" fill="#263238"/>
<path d="M406.554 840.393H368.334V871.8H406.554V840.393Z" fill="#263238"/>
<path d="M406.554 892.033H368.334V923.44H406.554V892.033Z" fill="#263238"/>
<path d="M406.554 943.611H368.334V975.019H406.554V943.611Z" fill="#263238"/>
<path d="M406.554 995.193H368.334V1026.6H406.554V995.193Z" fill="#263238"/>
<path d="M406.554 1046.83H368.334V1078.24H406.554V1046.83Z" fill="#263238"/>
<path d="M406.554 1098.41H368.334V1129.82H406.554V1098.41Z" fill="#263238"/>
<path d="M406.554 1149.99H368.334V1181.4H406.554V1149.99Z" fill="#263238"/>
<path d="M406.554 1201.63H368.334V1233.04H406.554V1201.63Z" fill="#263238"/>
<path d="M406.554 1253.21H368.334V1284.62H406.554V1253.21Z" fill="#263238"/>
<path d="M406.554 1304.79H368.334V1336.2H406.554V1304.79Z" fill="#263238"/>
<path d="M406.554 1356.44H368.334V1387.84H406.554V1356.44Z" fill="#263238"/>
<path d="M406.554 1408.02H368.334V1439.42H406.554V1408.02Z" fill="#263238"/>
<path d="M406.554 1459.6H368.334V1491H406.554V1459.6Z" fill="#263238"/>
<path d="M406.554 1511.24H368.334V1542.64H406.554V1511.24Z" fill="#263238"/>
<path d="M479.861 531.64C479.851 534.578 478.97 537.448 477.329 539.886C475.689 542.324 473.363 544.221 470.645 545.339C467.927 546.456 464.939 546.743 462.058 546.163C459.178 545.583 456.533 544.163 454.459 542.081C452.385 539.999 450.974 537.35 450.405 534.467C449.835 531.584 450.133 528.597 451.26 525.883C452.387 523.17 454.293 520.851 456.737 519.219C459.181 517.588 462.054 516.717 464.992 516.717C466.949 516.717 468.887 517.103 470.695 517.854C472.502 518.604 474.144 519.704 475.525 521.091C476.907 522.477 478.001 524.123 478.745 525.933C479.489 527.743 479.868 529.683 479.861 531.64V531.64Z" fill="#263238"/>
<path d="M389.623 531.64C389.623 534.594 388.747 537.481 387.105 539.936C385.462 542.392 383.129 544.304 380.399 545.432C377.669 546.56 374.665 546.852 371.769 546.272C368.873 545.692 366.214 544.265 364.129 542.173C362.044 540.08 360.627 537.416 360.058 534.518C359.488 531.62 359.791 528.618 360.929 525.892C362.067 523.166 363.988 520.839 366.449 519.206C368.91 517.572 371.8 516.706 374.754 516.717C376.711 516.717 378.649 517.103 380.457 517.854C382.264 518.604 383.906 519.705 385.287 521.091C386.669 522.477 387.763 524.123 388.507 525.933C389.251 527.743 389.63 529.683 389.623 531.64V531.64Z" fill="#263238"/>
<path d="M432.937 531.64C432.927 534.578 432.046 537.448 430.405 539.886C428.765 542.324 426.439 544.221 423.721 545.339C421.003 546.456 418.015 546.743 415.135 546.163C412.254 545.583 409.609 544.163 407.535 542.081C405.461 539.999 404.05 537.35 403.481 534.467C402.912 531.584 403.209 528.597 404.336 525.883C405.463 523.17 407.369 520.851 409.813 519.219C412.257 517.588 415.13 516.717 418.068 516.717C420.025 516.717 421.963 517.103 423.771 517.854C425.578 518.604 427.22 519.704 428.601 521.091C429.983 522.477 431.077 524.123 431.821 525.933C432.565 527.743 432.945 529.683 432.937 531.64V531.64Z" fill="#263238"/>
<path d="M2270.57 1655.34C2270.57 1656.04 1814.15 1656.63 1251.23 1656.63C688.3 1656.63 231.828 1656.04 231.828 1655.34C231.828 1654.64 688.139 1653.99 1251.23 1653.99C1814.31 1653.99 2270.57 1654.53 2270.57 1655.34Z" fill="#263238"/>
<path d="M1992.96 1012.79C1966.98 1035.18 1947.7 1064.32 1937.24 1096.99C1926.78 1129.66 1925.56 1164.58 1933.7 1197.9C1909.4 1193.1 1884.3 1194.35 1860.6 1201.53C1836.9 1208.7 1815.33 1221.59 1797.77 1239.05C1780.22 1256.52 1767.22 1278.03 1759.92 1301.69C1752.62 1325.35 1751.25 1350.44 1755.91 1374.76C1702.53 1338.02 1620.91 1351.76 1582.5 1404.02C1581.69 1369.54 1580.34 1333.17 1562.24 1303.81C1544.14 1274.45 1502.98 1256.35 1473.94 1274.99C1484.94 1262.45 1491.63 1246.71 1493.01 1230.08C1494.39 1213.45 1490.39 1196.82 1481.61 1182.64C1472.82 1168.46 1459.71 1157.47 1444.2 1151.3C1428.7 1145.14 1411.63 1144.11 1395.5 1148.39C1394.69 1107.01 1368.56 814.046 1347.01 566.873H1162.98C1141.43 809.736 1116.81 1088.69 1116 1129.05C1099.83 1124.68 1082.68 1125.65 1067.11 1131.82C1051.54 1137.98 1038.37 1149 1029.56 1163.25C1020.76 1177.5 1016.78 1194.21 1018.23 1210.89C1019.68 1227.58 1026.48 1243.35 1037.62 1255.86C1008.58 1237.22 967.58 1255.38 949.317 1284.69C931.054 1313.99 929.815 1350.41 929.007 1384.89C890.595 1332.69 809.03 1318.9 755.587 1355.64C760.255 1331.32 758.879 1306.23 751.58 1282.56C744.282 1258.9 731.284 1237.39 713.729 1219.93C696.174 1202.46 674.599 1189.58 650.898 1182.4C627.198 1175.22 602.098 1173.98 577.804 1178.77C586.436 1145.45 585.434 1110.37 574.913 1077.59C564.392 1044.82 544.784 1015.71 518.371 993.639C491.957 971.57 459.822 957.452 425.701 952.926C391.58 948.4 356.875 953.651 325.621 968.071V1595.86H2185.88V987.088C2154.49 973.141 2119.84 968.159 2085.79 972.695C2051.74 977.23 2019.61 991.107 1992.96 1012.79V1012.79Z" fill="#FF725E"/>
<g opacity="0.8">
<path d="M1992.96 1012.79C1966.98 1035.18 1947.7 1064.32 1937.24 1096.99C1926.78 1129.66 1925.56 1164.58 1933.7 1197.9C1909.4 1193.1 1884.3 1194.35 1860.6 1201.53C1836.9 1208.7 1815.33 1221.59 1797.77 1239.05C1780.22 1256.52 1767.22 1278.03 1759.92 1301.69C1752.62 1325.35 1751.25 1350.45 1755.91 1374.77C1702.53 1338.02 1620.91 1351.76 1582.5 1404.02C1581.69 1369.54 1580.34 1333.17 1562.24 1303.81C1544.14 1274.45 1502.98 1256.35 1473.94 1274.99C1484.94 1262.45 1491.63 1246.71 1493.01 1230.08C1494.39 1213.45 1490.39 1196.82 1481.61 1182.64C1472.82 1168.46 1459.71 1157.47 1444.2 1151.31C1428.7 1145.14 1411.63 1144.12 1395.5 1148.39C1394.69 1107.01 1368.56 814.048 1347.01 566.875H1162.98C1141.43 809.738 1116.81 1088.7 1116 1129.05C1099.83 1124.68 1082.68 1125.66 1067.11 1131.82C1051.54 1137.98 1038.37 1149.01 1029.56 1163.25C1020.76 1177.5 1016.78 1194.21 1018.23 1210.89C1019.68 1227.58 1026.48 1243.35 1037.62 1255.87C1008.58 1237.23 967.58 1255.38 949.317 1284.69C931.054 1314 929.815 1350.41 929.007 1384.89C890.595 1332.69 809.03 1318.9 755.587 1355.64C760.255 1331.32 758.879 1306.23 751.58 1282.57C744.282 1258.9 731.284 1237.39 713.729 1219.93C696.174 1202.46 674.599 1189.58 650.898 1182.4C627.198 1175.23 602.098 1173.98 577.804 1178.77C586.436 1145.45 585.434 1110.37 574.913 1077.6C564.392 1044.82 544.784 1015.71 518.371 993.641C491.957 971.572 459.822 957.454 425.701 952.928C391.58 948.402 356.875 953.653 325.621 968.073V1595.86H2185.88V987.09C2154.49 973.142 2119.84 968.161 2085.79 972.697C2051.74 977.232 2019.61 991.109 1992.96 1012.79V1012.79Z" fill="white"/>
</g>
<path d="M1981.59 1470.5C1948.21 1448.07 1910.58 1432.73 1871.03 1425.43C1831.48 1418.13 1790.85 1419.03 1751.66 1428.05C1712.47 1437.08 1675.55 1454.06 1643.18 1477.93C1610.81 1501.79 1583.69 1532.05 1563.48 1566.82C1547.11 1544.71 1525.73 1526.8 1501.09 1514.57C1502.84 1509.92 1504.3 1505.17 1505.46 1500.34C1510.22 1479.7 1509.64 1458.19 1503.77 1437.83C1497.9 1417.48 1486.93 1398.96 1471.9 1384.04C1456.87 1369.11 1438.28 1358.27 1417.88 1352.53C1397.49 1346.8 1375.97 1346.37 1355.36 1351.27L1300.3 566.873H1228.11V1288.19C1183.4 1295.03 1152.21 1347.99 1167.99 1390.55C1152.41 1392.97 1137.66 1399.14 1124.99 1408.52C1112.32 1417.91 1102.12 1430.23 1095.26 1444.42C1090.95 1453.69 1090.31 1473.3 1094.02 1495.49C1066.77 1495.99 1039.98 1502.7 1015.71 1515.11C991.439 1527.51 970.317 1545.29 953.951 1567.09C933.743 1532.32 906.617 1502.06 874.248 1478.2C841.88 1454.33 804.958 1437.35 765.768 1428.32C726.577 1419.3 685.95 1418.4 646.401 1425.7C606.852 1433 569.221 1448.34 535.837 1470.77C516.927 1379.18 414.513 1314.1 323.574 1336.08V1597.53L1162.87 1596.45C1168.64 1598.1 1174.6 1598.93 1180.6 1598.93L1385.75 1596.51L2194.23 1597.53V1335.6C2103.08 1313.83 2000.66 1378.91 1981.59 1470.5Z" fill="#FF725E"/>
<g opacity="0.6">
<path d="M1981.59 1470.5C1948.21 1448.07 1910.58 1432.74 1871.03 1425.44C1831.48 1418.14 1790.85 1419.03 1751.66 1428.06C1712.47 1437.09 1675.55 1454.06 1643.18 1477.93C1610.81 1501.8 1583.69 1532.05 1563.48 1566.83C1547.11 1544.71 1525.73 1526.8 1501.09 1514.57C1502.84 1509.92 1504.3 1505.17 1505.46 1500.35C1510.22 1479.71 1509.64 1458.19 1503.77 1437.84C1497.9 1417.48 1486.93 1398.97 1471.9 1384.04C1456.87 1369.11 1438.28 1358.27 1417.88 1352.53C1397.49 1346.8 1375.97 1346.37 1355.36 1351.28L1300.3 566.875H1228.11V1288.19C1183.4 1295.03 1152.21 1347.99 1167.99 1390.55C1152.41 1392.97 1137.66 1399.14 1124.99 1408.53C1112.32 1417.91 1102.12 1430.23 1095.26 1444.42C1090.95 1453.69 1090.31 1473.3 1094.02 1495.5C1066.77 1495.99 1039.98 1502.7 1015.71 1515.11C991.439 1527.51 970.317 1545.29 953.951 1567.09C933.743 1532.32 906.617 1502.07 874.248 1478.2C841.88 1454.33 804.958 1437.35 765.768 1428.33C726.577 1419.3 685.95 1418.41 646.401 1425.71C606.852 1433.01 569.221 1448.34 535.837 1470.77C516.927 1379.18 414.513 1314.1 323.574 1336.08V1597.53L1162.87 1596.46C1168.64 1598.1 1174.6 1598.93 1180.6 1598.93L1385.75 1596.51L2194.23 1597.53V1335.6C2103.08 1313.83 2000.66 1378.91 1981.59 1470.5Z" fill="white"/>
</g>
<path d="M1202.47 674.412C1169.95 689.867 1155.22 734.41 1172.15 766.208C1178.84 778.91 1189.77 789.792 1191.21 803.934C1193.41 825.613 1172.92 842.549 1166.56 863.212C1163.34 875.596 1165.03 888.746 1171.28 899.912C1177.53 911.078 1187.86 919.395 1200.1 923.125C1211.23 926.046 1224.57 925.538 1232.02 934.303C1241.55 945.481 1234.65 963.942 1242.82 976.263C1250.15 987.314 1267.29 987.865 1278.35 980.497C1289.4 973.13 1295.49 960.385 1299.85 947.852C1304.22 935.319 1307.48 922.151 1315.01 911.227C1323.48 899.244 1335.97 891.03 1346.05 880.487C1370.27 855.082 1377.68 816.975 1372.22 782.213C1366.75 747.451 1349.94 715.653 1330.93 686.141" fill="#FF725E"/>
<g opacity="0.3">
<path d="M1202.47 674.412C1169.95 689.867 1155.22 734.41 1172.15 766.208C1178.84 778.91 1189.77 789.792 1191.21 803.934C1193.41 825.613 1172.92 842.549 1166.56 863.212C1163.34 875.596 1165.03 888.746 1171.28 899.912C1177.53 911.078 1187.86 919.395 1200.1 923.125C1211.23 926.046 1224.57 925.538 1232.02 934.303C1241.55 945.481 1234.65 963.942 1242.82 976.263C1250.15 987.314 1267.29 987.865 1278.35 980.497C1289.4 973.13 1295.49 960.385 1299.85 947.852C1304.22 935.319 1307.48 922.151 1315.01 911.227C1323.48 899.244 1335.97 891.03 1346.05 880.487C1370.27 855.082 1377.68 816.975 1372.22 782.213C1366.75 747.451 1349.94 715.653 1330.93 686.141" fill="white"/>
</g>
<path d="M1231.05 692.703C1203.49 704.855 1191.42 743.089 1207 768.917C1216.53 784.668 1234.99 798.895 1230.5 816.721C1227.45 828.83 1214.5 836.24 1210.77 848.138C1205.82 863.974 1220.81 880.783 1237.32 882.773C1253.83 884.763 1269.75 875.956 1282.24 864.99C1325.47 826.883 1336.02 752.362 1309.04 701.51" fill="#FF725E"/>
<path d="M1373.15 450.342C1373.15 450.342 1514.74 544.001 1499.28 706.041L1369.13 647.61L1373.15 450.342Z" fill="#FF725E"/>
<path d="M1137.9 644.35L1170.08 697.657H1336.95L1369.13 647.398L1137.9 644.35Z" fill="#263238"/>
<path d="M1244.85 106.488C1213.1 108.616 1183.39 122.898 1161.89 146.364C1140.4 169.831 1128.77 200.679 1129.43 232.496L1137.9 647.44H1369.12L1376.83 232.284C1377.16 215.144 1373.92 198.124 1367.32 182.302C1360.72 166.481 1350.9 152.203 1338.49 140.376C1326.08 128.548 1311.35 119.428 1295.23 113.595C1279.11 107.761 1261.96 105.341 1244.85 106.488Z" fill="#FF725E"/>
<g opacity="0.8">
<path d="M1244.85 106.49C1213.1 108.618 1183.39 122.899 1161.89 146.366C1140.4 169.833 1128.77 200.681 1129.43 232.498L1137.9 647.442H1369.12L1376.83 232.286C1377.16 215.146 1373.92 198.126 1367.32 182.304C1360.72 166.483 1350.9 152.205 1338.49 140.378C1326.08 128.55 1311.35 119.43 1295.23 113.597C1279.11 107.763 1261.96 105.343 1244.85 106.49Z" fill="white"/>
</g>
<path d="M1133.67 450.342C1133.67 450.342 992.246 544.001 1007.74 706.041L1137.9 647.525L1133.67 450.342Z" fill="#FF725E"/>
<path d="M1130.7 218.735C1179.61 175.928 1333.09 176.859 1374.29 211.706C1363.71 57.6688 1246.08 0 1246.08 0C1125.75 83.3276 1130.7 218.735 1130.7 218.735Z" fill="#FF725E"/>
<path d="M1246.08 0.0429688L1247.48 1.31322C1248.37 2.16005 1249.72 3.38793 1251.42 5.03924L1257.85 11.1364L1262.09 15.0318L1266.32 19.774C1269.37 23.119 1272.84 26.8027 1276.53 30.9521L1287.79 45.0094C1289.69 47.5922 1291.6 50.3868 1293.59 53.1813C1295.58 55.9758 1297.82 58.855 1299.6 62.0306C1303.37 68.2971 1307.56 74.733 1311.16 82.1427C1319.42 97.8914 1325.83 114.544 1330.26 131.767C1332.75 141.342 1334.61 151.074 1335.8 160.897C1336.52 165.978 1336.9 171.144 1337.62 176.267C1338.08 181.589 1338.27 186.931 1338.17 192.272C1338.17 235.249 1337.62 282.502 1337.07 331.999C1335.89 431.247 1334.49 521.052 1333.43 586.046C1332.88 618.522 1332.42 644.816 1332.08 663.023C1332.08 672.084 1331.74 679.155 1331.65 684.193C1331.65 686.564 1331.65 688.427 1331.65 689.613C1331.65 690.798 1331.65 691.476 1331.65 691.476C1331.65 691.476 1331.65 690.841 1331.65 689.613C1331.65 688.385 1331.65 686.564 1331.65 684.193C1331.65 679.366 1331.65 672.295 1331.87 663.023C1332.08 644.816 1332.42 618.522 1332.8 586.046C1333.64 520.968 1334.79 431.162 1336.1 331.999C1336.65 282.375 1337.29 235.122 1337.29 192.272C1337.4 186.988 1337.22 181.701 1336.73 176.437C1336.06 171.229 1335.68 166.105 1335 161.067C1333.82 151.273 1331.98 141.569 1329.49 132.021C1325.12 114.871 1318.8 98.2777 1310.65 82.5661C1306.84 75.1564 1302.65 68.7205 1298.8 62.454C1296.93 59.2784 1294.56 56.4839 1292.83 53.6047C1291.09 50.7255 1289.02 48.0156 1287.11 45.4328L1275.93 31.3332C1272.29 27.0991 1268.86 23.5 1265.81 20.1127L1261.58 15.3282L1257.56 11.3904L1251.21 5.20861L1247.35 1.3979L1246.08 0.0429688Z" fill="#263238"/>
<path d="M1300.16 323.664C1307.43 290.736 1288.52 258.567 1257.92 251.811C1227.32 245.056 1196.62 266.273 1189.35 299.2C1182.08 332.127 1200.99 364.297 1231.59 371.052C1262.19 377.808 1292.89 356.591 1300.16 323.664Z" fill="#FAFAFA"/>
<path d="M1257.89 251.802C1257.57 251.849 1257.24 251.849 1256.92 251.802L1254.17 251.421L1252.14 251.083H1249.64H1246.76C1245.7 251.083 1244.6 251.083 1243.46 251.083C1240.88 251.243 1238.32 251.582 1235.79 252.099C1232.79 252.736 1229.84 253.629 1226.98 254.766C1220.01 257.548 1213.63 261.629 1208.19 266.791C1201.58 273.023 1196.42 280.625 1193.07 289.063C1192.14 291.365 1191.36 293.727 1190.74 296.134C1190.44 297.362 1190.06 298.589 1189.77 299.817L1189.13 303.628L1188.79 305.576V307.524C1188.79 308.836 1188.58 310.191 1188.5 311.504C1188.41 312.816 1188.5 314.171 1188.5 315.526V317.558L1188.71 319.633C1189.82 331.137 1194.23 342.075 1201.41 351.135C1208.97 360.982 1219.75 367.849 1231.87 370.529C1243.99 373.208 1256.67 371.529 1267.67 365.785C1277.95 360.52 1286.5 352.425 1292.32 342.455L1293.38 340.719L1294.26 338.856L1296.04 335.257L1297.44 331.531L1298.12 329.668L1298.67 327.763L1299.68 324.037C1299.98 322.809 1300.11 321.538 1300.36 320.311C1300.79 317.859 1301.07 315.385 1301.21 312.901C1301.77 303.834 1300.33 294.754 1296.97 286.311C1293.1 276.428 1286.58 267.801 1278.13 261.372C1276.05 259.822 1273.87 258.408 1271.61 257.137C1270.55 256.629 1269.62 256.037 1268.69 255.613L1266.02 254.512L1263.69 253.581L1261.75 252.988L1259.04 252.183C1258.73 252.104 1258.43 251.991 1258.15 251.845H1259.08L1261.79 252.522L1263.82 253.073L1266.15 253.962L1268.86 255.02L1271.82 256.502C1274.14 257.767 1276.38 259.182 1278.51 260.736C1280.99 262.609 1283.32 264.661 1285.5 266.876C1290.77 272.341 1294.94 278.766 1297.78 285.802C1301.28 294.343 1302.83 303.558 1302.31 312.774C1302.21 315.301 1301.94 317.819 1301.51 320.311C1301.25 321.581 1301.12 322.851 1300.83 324.121C1300.53 325.392 1300.15 326.662 1299.77 327.932L1299.26 329.837L1298.58 331.7L1297.14 335.511L1295.37 339.195L1294.48 341.1L1293.38 342.878C1287.5 353.068 1278.79 361.334 1268.31 366.674C1257.07 372.574 1244.1 374.309 1231.71 371.574C1219.31 368.839 1208.28 361.81 1200.56 351.728C1193.32 342.449 1188.91 331.275 1187.86 319.548V317.474V315.399C1187.86 314.044 1187.86 312.647 1187.86 311.165C1187.86 309.683 1187.86 308.455 1188.2 306.931V304.941L1188.5 302.951C1188.75 301.68 1188.96 300.368 1189.17 299.098C1189.39 297.827 1189.85 296.599 1190.19 295.329C1190.82 292.887 1191.62 290.496 1192.6 288.174C1196.01 279.596 1201.29 271.887 1208.06 265.606C1213.61 260.422 1220.11 256.354 1227.2 253.623C1230.09 252.497 1233.08 251.619 1236.13 250.998C1238.69 250.509 1241.28 250.197 1243.88 250.066C1245.06 250.066 1246.17 250.066 1247.22 250.066H1250.15H1252.64L1254.68 250.447L1257.43 250.956L1257.89 251.802Z" fill="#263238"/>
<path d="M1186.25 302.274C1186.25 302.994 1173.21 302.655 1157.5 305.492C1141.8 308.329 1129.69 313.071 1129.43 312.394C1131.76 310.699 1134.37 309.424 1137.14 308.625C1150.1 303.76 1163.85 301.32 1177.7 301.427C1180.58 301.243 1183.47 301.529 1186.25 302.274V302.274Z" fill="#263238"/>
<path d="M1373.19 302.19C1369.69 302.213 1366.2 301.887 1362.77 301.216C1356.42 300.454 1347.62 299.438 1337.88 298.718C1328.14 297.999 1319.29 297.829 1312.85 297.702C1309.37 297.888 1305.89 297.732 1302.44 297.236C1305.82 296.357 1309.31 295.958 1312.81 296.051C1321.28 295.667 1329.76 295.78 1338.22 296.39C1346.6 296.972 1354.94 298.033 1363.2 299.565C1366.62 300.023 1369.98 300.905 1373.19 302.19V302.19Z" fill="#263238"/>
<path d="M1374.46 539.64C1373.64 539.751 1372.82 539.751 1372 539.64L1365.02 539.09L1339.32 537.142C1317.64 535.618 1287.62 534.136 1254.63 534.178C1221.65 534.22 1191.46 535.744 1169.74 537.311L1144.08 539.344L1137.09 539.852C1136.28 539.971 1135.45 539.971 1134.64 539.852C1135.42 539.577 1136.23 539.406 1137.05 539.344L1144 538.37C1150.01 537.565 1158.77 536.591 1169.4 535.618C1191.08 533.585 1221.18 531.807 1254.42 531.764C1287.66 531.722 1317.93 533.458 1339.4 535.448C1350.28 536.422 1359.01 537.354 1365.06 538.158L1372 539.09C1372.84 539.162 1373.67 539.347 1374.46 539.64Z" fill="#263238"/>
<path d="M1192.39 361.764C1192.39 362.102 1190.95 362.229 1189.98 363.881C1189.7 364.306 1189.51 364.787 1189.43 365.291C1189.35 365.795 1189.38 366.31 1189.51 366.802C1189.73 367.323 1190.09 367.769 1190.56 368.085C1191.03 368.401 1191.58 368.574 1192.14 368.581C1192.71 368.666 1193.28 368.583 1193.8 368.342C1194.32 368.101 1194.76 367.713 1195.06 367.226C1195.27 366.76 1195.38 366.255 1195.38 365.744C1195.38 365.233 1195.27 364.727 1195.06 364.262C1194.34 362.483 1192.94 362.145 1193.03 361.806C1193.11 361.467 1194.98 361.171 1196.54 363.457C1196.99 364.14 1197.26 364.917 1197.35 365.726C1197.44 366.535 1197.34 367.353 1197.05 368.115C1196.62 369.064 1195.91 369.852 1195 370.362C1194.09 370.873 1193.05 371.079 1192.01 370.952C1191.12 370.904 1190.26 370.607 1189.53 370.094C1188.8 369.581 1188.24 368.872 1187.89 368.05C1187.55 367.228 1187.44 366.325 1187.58 365.445C1187.73 364.565 1188.12 363.744 1188.71 363.076C1190.57 360.832 1192.56 361.467 1192.39 361.764Z" fill="#263238"/>
<path d="M1242.78 388.903C1242.78 389.284 1241.34 389.411 1240.37 391.062C1240.09 391.483 1239.91 391.957 1239.83 392.453C1239.75 392.948 1239.77 393.456 1239.9 393.942C1240.1 394.474 1240.46 394.932 1240.93 395.257C1241.4 395.581 1241.96 395.757 1242.52 395.762C1243.09 395.838 1243.67 395.746 1244.19 395.498C1244.71 395.25 1245.15 394.856 1245.45 394.365C1245.65 393.904 1245.75 393.407 1245.75 392.904C1245.75 392.402 1245.65 391.905 1245.45 391.443C1244.68 389.665 1243.29 389.326 1243.37 388.988C1243.46 388.649 1245.32 388.352 1246.89 390.639C1247.33 391.314 1247.6 392.084 1247.69 392.886C1247.78 393.688 1247.68 394.499 1247.39 395.254C1246.97 396.207 1246.25 397 1245.35 397.517C1244.44 398.035 1243.39 398.251 1242.36 398.133C1241.42 398.122 1240.52 397.836 1239.75 397.312C1238.98 396.787 1238.38 396.047 1238.02 395.184C1237.67 394.322 1237.58 393.374 1237.76 392.46C1237.95 391.546 1238.4 390.707 1239.05 390.046C1240.96 388.014 1242.95 388.48 1242.78 388.903Z" fill="#263238"/>
<path d="M1298.37 365.744C1298.37 366.125 1296.98 366.252 1295.96 367.904C1295.68 368.324 1295.5 368.798 1295.42 369.294C1295.34 369.79 1295.37 370.297 1295.49 370.783C1295.71 371.312 1296.08 371.765 1296.56 372.088C1297.03 372.412 1297.59 372.591 1298.16 372.604C1298.73 372.687 1299.3 372.599 1299.82 372.35C1300.33 372.1 1300.76 371.702 1301.04 371.206C1301.24 370.745 1301.34 370.248 1301.34 369.745C1301.34 369.243 1301.24 368.746 1301.04 368.285C1300.32 366.506 1298.88 366.168 1298.97 365.787C1299.05 365.406 1300.91 365.194 1302.48 367.48C1302.94 368.147 1303.23 368.916 1303.32 369.72C1303.42 370.524 1303.32 371.339 1303.03 372.095C1302.59 373.044 1301.86 373.83 1300.95 374.346C1300.04 374.862 1298.99 375.082 1297.95 374.975C1296.91 374.932 1295.91 374.56 1295.1 373.913C1294.28 373.266 1293.7 372.378 1293.42 371.376C1293.25 370.584 1293.28 369.763 1293.49 368.983C1293.7 368.202 1294.1 367.484 1294.65 366.887C1296.55 364.855 1298.54 365.49 1298.37 365.744Z" fill="#263238"/>
<path d="M1316.45 324.207C1316.45 324.546 1315.01 324.673 1314 326.324C1313.73 326.755 1313.55 327.238 1313.48 327.74C1313.41 328.243 1313.44 328.756 1313.58 329.245C1313.78 329.778 1314.14 330.236 1314.61 330.56C1315.08 330.885 1315.63 331.061 1316.2 331.066C1316.76 331.139 1317.34 331.045 1317.85 330.797C1318.36 330.549 1318.79 330.157 1319.08 329.669C1319.28 329.208 1319.38 328.711 1319.38 328.208C1319.38 327.706 1319.28 327.209 1319.08 326.747C1318.36 324.969 1316.96 324.588 1317 324.249C1317.05 323.91 1318.95 323.656 1320.56 325.943C1321.01 326.616 1321.29 327.386 1321.37 328.189C1321.46 328.992 1321.36 329.804 1321.07 330.558C1320.64 331.503 1319.92 332.287 1319.01 332.797C1318.11 333.306 1317.06 333.516 1316.03 333.395C1314.99 333.354 1313.98 332.984 1313.16 332.338C1312.34 331.691 1311.74 330.802 1311.46 329.796C1311.29 329.004 1311.32 328.184 1311.53 327.404C1311.75 326.624 1312.14 325.906 1312.69 325.308C1314.59 323.318 1316.58 323.953 1316.45 324.207Z" fill="#263238"/>
<path d="M1174.02 320.183C1174.02 320.522 1172.58 320.649 1171.6 322.301C1171.33 322.73 1171.15 323.211 1171.07 323.713C1170.99 324.216 1171.01 324.729 1171.14 325.222C1171.35 325.751 1171.71 326.206 1172.17 326.53C1172.64 326.854 1173.19 327.032 1173.76 327.043C1174.33 327.108 1174.91 327.011 1175.42 326.764C1175.94 326.517 1176.38 326.129 1176.68 325.645C1176.89 325.187 1177 324.689 1177 324.185C1177 323.681 1176.89 323.182 1176.68 322.724C1175.96 320.946 1174.57 320.565 1174.65 320.226C1174.74 319.887 1176.6 319.633 1178.17 321.919C1178.61 322.593 1178.89 323.363 1178.98 324.166C1179.07 324.968 1178.96 325.78 1178.67 326.535C1178.25 327.484 1177.53 328.271 1176.62 328.782C1175.72 329.292 1174.67 329.499 1173.64 329.372C1172.59 329.331 1171.59 328.961 1170.77 328.314C1169.94 327.668 1169.35 326.778 1169.06 325.772C1168.9 324.977 1168.93 324.154 1169.15 323.373C1169.37 322.591 1169.78 321.875 1170.33 321.284C1172.2 319.294 1174.19 319.929 1174.02 320.183Z" fill="#263238"/>
<path d="M1298.29 263.194C1298.29 262.855 1299.73 262.728 1300.7 261.077C1300.98 260.651 1301.17 260.171 1301.25 259.666C1301.33 259.162 1301.3 258.647 1301.17 258.155C1300.95 257.632 1300.59 257.183 1300.12 256.861C1299.66 256.538 1299.11 256.355 1298.54 256.334C1297.98 256.262 1297.41 256.355 1296.89 256.604C1296.38 256.852 1295.95 257.244 1295.66 257.732C1295.44 258.187 1295.33 258.686 1295.33 259.192C1295.33 259.698 1295.44 260.198 1295.66 260.653C1296.38 262.431 1297.78 262.813 1297.69 263.151C1297.61 263.49 1295.75 263.744 1294.18 261.458C1293.74 260.784 1293.46 260.014 1293.37 259.211C1293.28 258.409 1293.38 257.597 1293.67 256.842C1294.1 255.893 1294.82 255.106 1295.72 254.595C1296.63 254.085 1297.68 253.878 1298.71 254.006C1299.64 254.017 1300.55 254.303 1301.32 254.827C1302.09 255.352 1302.69 256.092 1303.04 256.954C1303.4 257.817 1303.49 258.765 1303.3 259.679C1303.12 260.592 1302.67 261.432 1302.01 262.093C1300.11 264.125 1298.12 263.448 1298.29 263.194Z" fill="#263238"/>
<path d="M1242.69 238.55C1242.69 238.211 1244.13 238.084 1245.11 236.433C1245.38 236.003 1245.56 235.523 1245.64 235.02C1245.72 234.518 1245.7 234.004 1245.57 233.511C1245.35 232.985 1244.98 232.535 1244.5 232.212C1244.03 231.89 1243.48 231.709 1242.91 231.691C1242.34 231.618 1241.77 231.712 1241.26 231.96C1240.75 232.208 1240.32 232.6 1240.03 233.088C1239.83 233.549 1239.72 234.046 1239.72 234.549C1239.72 235.051 1239.83 235.548 1240.03 236.009C1240.75 237.83 1242.19 238.169 1242.1 238.508C1242.02 238.846 1240.15 239.143 1238.59 236.814C1238.03 236.063 1237.7 235.161 1237.66 234.224C1237.61 233.287 1237.85 232.359 1238.33 231.557C1238.82 230.756 1239.54 230.119 1240.39 229.727C1241.24 229.336 1242.19 229.209 1243.12 229.362C1244.16 229.405 1245.15 229.777 1245.97 230.423C1246.78 231.07 1247.37 231.959 1247.65 232.961C1247.81 233.753 1247.79 234.572 1247.57 235.352C1247.36 236.132 1246.96 236.851 1246.42 237.449C1244.51 239.481 1242.52 238.846 1242.69 238.55Z" fill="#263238"/>
<path d="M1187.73 263.194C1187.73 262.856 1189.17 262.729 1190.15 261.077C1190.42 260.648 1190.6 260.167 1190.68 259.665C1190.76 259.162 1190.74 258.649 1190.61 258.156C1190.39 257.63 1190.02 257.179 1189.55 256.857C1189.07 256.534 1188.52 256.353 1187.95 256.335C1187.38 256.263 1186.81 256.356 1186.3 256.604C1185.79 256.853 1185.36 257.245 1185.07 257.732C1184.87 258.194 1184.77 258.691 1184.77 259.193C1184.77 259.696 1184.87 260.193 1185.07 260.654C1185.79 262.432 1187.23 262.813 1187.14 263.152C1187.06 263.491 1185.19 263.745 1183.63 261.458C1183.07 260.707 1182.74 259.806 1182.7 258.869C1182.65 257.932 1182.89 257.003 1183.38 256.202C1183.86 255.4 1184.58 254.763 1185.43 254.372C1186.28 253.981 1187.23 253.853 1188.16 254.006C1189.2 254.049 1190.2 254.421 1191.01 255.068C1191.82 255.715 1192.41 256.603 1192.69 257.605C1192.85 258.397 1192.83 259.217 1192.61 259.997C1192.4 260.777 1192.01 261.495 1191.46 262.094C1189.56 264.126 1187.57 263.449 1187.73 263.194Z" fill="#263238"/>
<path d="M1235.66 467.362L1240.62 715.101C1240.7 718.541 1242.13 721.81 1244.62 724.191C1247.1 726.572 1250.43 727.871 1253.87 727.803V727.803C1257.22 727.728 1260.4 726.365 1262.77 723.999C1265.14 721.633 1266.5 718.446 1266.57 715.101C1267.08 670.473 1268.73 520.331 1268.99 467.108C1269 464.706 1268.48 462.331 1267.49 460.146C1266.49 457.961 1265.04 456.017 1263.22 454.448C1261.4 452.879 1259.26 451.722 1256.96 451.057C1254.65 450.392 1252.22 450.234 1249.85 450.595C1245.86 451.199 1242.22 453.232 1239.61 456.315C1237 459.399 1235.6 463.324 1235.66 467.362Z" fill="#FF725E"/>
<g opacity="0.3">
<path d="M1235.66 467.364L1240.62 715.103C1240.7 718.543 1242.13 721.812 1244.62 724.193C1247.1 726.574 1250.43 727.873 1253.87 727.805V727.805C1257.22 727.73 1260.4 726.367 1262.77 724.001C1265.14 721.635 1266.5 718.448 1266.57 715.103C1267.08 670.475 1268.73 520.333 1268.99 467.11C1269 464.708 1268.48 462.333 1267.49 460.148C1266.49 457.963 1265.04 456.019 1263.22 454.45C1261.4 452.881 1259.26 451.724 1256.96 451.059C1254.65 450.394 1252.22 450.236 1249.85 450.597C1245.86 451.201 1242.22 453.234 1239.61 456.317C1237 459.401 1235.6 463.326 1235.66 467.364Z" fill="black"/>
</g>
<path d="M1243.33 14.1846C1244.05 15.0315 1235.84 22.9916 1223.85 36.9642C1217.84 43.9082 1211.15 52.5458 1204.08 62.369C1196.56 73.148 1189.63 84.3286 1183.33 95.8609C1177.19 107.462 1171.69 119.392 1166.86 131.597C1162.63 142.902 1159.03 153.276 1156.53 162.125C1151.49 179.824 1149.37 191.086 1148.06 190.917C1146.75 190.748 1147.6 179.231 1151.49 160.897C1153.82 150.183 1156.85 139.632 1160.55 129.311C1165.14 116.667 1170.6 104.358 1176.9 92.4736C1183.37 80.7158 1190.61 69.3999 1198.57 58.6006C1205.15 49.8194 1212.3 41.4747 1219.96 33.6193C1233.29 20.1124 1242.78 13.5495 1243.33 14.1846Z" fill="white"/>
<path d="M1128.46 474.984C1129.13 476.043 1117.41 483.452 1101.06 498.78L1094.75 504.792C1092.55 506.909 1090.52 509.323 1088.23 511.652C1083.62 516.309 1079.3 521.814 1074.6 527.445C1064.79 539.966 1056.08 553.311 1048.56 567.33C1041.23 581.467 1035.11 596.198 1030.27 611.365C1028.28 618.394 1026.03 625.084 1024.93 631.477C1024.26 634.695 1023.45 637.744 1022.94 640.75C1022.43 643.756 1021.97 646.593 1021.55 649.218C1018.24 671.278 1018.54 685.209 1017.31 685.251C1016.8 685.251 1016.34 681.821 1015.91 675.47C1015.91 673.861 1015.7 672.083 1015.62 670.177C1015.53 668.272 1015.62 666.155 1015.62 663.911C1015.65 658.804 1015.95 653.702 1016.51 648.626C1016.8 645.789 1017.14 642.825 1017.48 639.734C1017.82 636.643 1018.54 633.468 1019.09 630.207C1020.15 623.56 1022.05 616.658 1023.96 609.375C1032.95 577.79 1048.45 548.438 1069.48 523.211C1074.04 517.722 1078.87 512.465 1083.96 507.46C1086.33 505.131 1088.57 502.76 1090.9 500.728L1097.68 494.927C1101.56 491.594 1105.61 488.47 1109.83 485.569C1111.65 484.257 1113.34 482.987 1114.95 481.928L1119.48 479.218C1125.2 476.127 1128.16 474.561 1128.46 474.984Z" fill="white"/>
<path d="M946.221 1282.77C940.525 1279.54 935.957 1274.64 933.132 1268.74C930.307 1262.83 929.362 1256.2 930.423 1249.74C931.485 1243.28 934.502 1237.3 939.068 1232.6C943.634 1227.91 949.53 1224.73 955.959 1223.49C967.561 1221.21 982.084 1224.51 989.366 1215.02C996.014 1206.56 991.018 1195.38 993.939 1181.83C996.861 1168.28 1008.5 1161.89 1021.33 1162.06C1027.77 1162.43 1034 1164.43 1039.45 1167.86C1044.9 1171.3 1049.39 1176.06 1052.5 1181.7C1059.37 1194.25 1062.47 1208.51 1061.43 1222.77C1058 1252.03 1042.38 1267.02 1022.94 1279.43C1003.51 1291.83 966.714 1294.67 946.221 1282.52" fill="#FF725E"/>
<g opacity="0.8">
<path d="M946.221 1282.77C940.525 1279.54 935.957 1274.64 933.132 1268.74C930.307 1262.83 929.362 1256.2 930.423 1249.74C931.485 1243.28 934.502 1237.3 939.068 1232.6C943.634 1227.91 949.53 1224.73 955.959 1223.49C967.561 1221.21 982.084 1224.51 989.366 1215.02C996.014 1206.56 991.018 1195.38 993.939 1181.83C996.861 1168.28 1008.5 1161.89 1021.33 1162.06C1027.77 1162.43 1034 1164.43 1039.45 1167.86C1044.9 1171.3 1049.39 1176.06 1052.5 1181.7C1059.37 1194.25 1062.47 1208.51 1061.43 1222.77C1058 1252.03 1042.38 1267.02 1022.94 1279.43C1003.51 1291.83 966.714 1294.67 946.221 1282.52" fill="white"/>
</g>
<path d="M1421.25 1048.24C1425.97 1039.22 1433.33 1031.85 1442.36 1027.13C1451.38 1022.4 1461.63 1020.55 1471.74 1021.82C1481.84 1023.08 1491.32 1027.41 1498.9 1034.21C1506.48 1041.02 1511.8 1049.98 1514.14 1059.89C1518.38 1077.88 1514.15 1100.66 1529.09 1111.54C1542.68 1121.41 1559.87 1112.9 1581.21 1116.63C1602.55 1120.35 1613.22 1138.13 1613.69 1158.2C1614.16 1178.27 1601.88 1197.33 1584.9 1208C1565.74 1219.46 1543.69 1225.16 1521.39 1224.43C1475.53 1220.83 1451.18 1197.33 1430.65 1167.77C1410.11 1138.22 1403.51 1080.93 1421.25 1048.24" fill="#FF725E"/>
<g opacity="0.8">
<path d="M1421.25 1048.24C1425.97 1039.22 1433.33 1031.85 1442.36 1027.12C1451.38 1022.4 1461.63 1020.55 1471.74 1021.82C1481.84 1023.08 1491.32 1027.41 1498.9 1034.21C1506.48 1041.02 1511.8 1049.97 1514.14 1059.89C1518.38 1077.88 1514.15 1100.66 1529.09 1111.54C1542.68 1121.41 1559.87 1112.9 1581.21 1116.62C1602.55 1120.35 1613.22 1138.13 1613.69 1158.2C1614.16 1178.27 1601.88 1197.33 1584.9 1208C1565.74 1219.46 1543.69 1225.16 1521.39 1224.42C1475.53 1220.82 1451.18 1197.33 1430.65 1167.77C1410.11 1138.22 1403.51 1080.93 1421.25 1048.24" fill="white"/>
</g>
<path d="M1079.09 988.204C1073.98 990.828 1069.7 994.81 1066.71 999.71C1063.72 1004.61 1062.15 1010.24 1062.15 1015.98C1062.36 1022.36 1064.63 1028.49 1068.61 1033.48C1072.59 1038.46 1078.07 1042.03 1084.24 1043.66C1090.41 1045.28 1096.93 1044.87 1102.85 1042.48C1108.77 1040.1 1113.76 1035.87 1117.08 1030.42C1120.4 1024.97 1121.87 1018.6 1121.28 1012.25C1120.69 1005.9 1118.07 999.906 1113.8 995.164C1109.54 990.422 1103.85 987.184 1097.6 985.93C1091.34 984.676 1084.85 985.473 1079.09 988.204" fill="#FF725E"/>
<g opacity="0.8">
<path d="M1079.09 988.204C1073.98 990.828 1069.7 994.81 1066.71 999.71C1063.73 1004.61 1062.15 1010.24 1062.15 1015.98C1062.37 1022.36 1064.63 1028.49 1068.61 1033.48C1072.59 1038.46 1078.07 1042.03 1084.24 1043.66C1090.41 1045.28 1096.94 1044.87 1102.85 1042.48C1108.77 1040.1 1113.76 1035.87 1117.08 1030.42C1120.4 1024.97 1121.88 1018.6 1121.29 1012.25C1120.7 1005.9 1118.07 999.906 1113.81 995.164C1109.54 990.422 1103.86 987.184 1097.6 985.93C1091.35 984.676 1084.85 985.473 1079.09 988.204" fill="white"/>
</g>
<path d="M1529.26 1343.28C1526.71 1344.6 1524.58 1346.59 1523.09 1349.04C1521.59 1351.49 1520.8 1354.3 1520.79 1357.16C1520.89 1360.36 1522.02 1363.44 1524.02 1365.95C1526.01 1368.45 1528.76 1370.25 1531.85 1371.07C1534.95 1371.88 1538.22 1371.68 1541.19 1370.48C1544.16 1369.29 1546.67 1367.17 1548.33 1364.43C1550 1361.7 1550.74 1358.5 1550.44 1355.31C1550.15 1352.13 1548.83 1349.12 1546.68 1346.74C1544.54 1344.37 1541.69 1342.74 1538.55 1342.12C1535.41 1341.5 1532.15 1341.9 1529.26 1343.28" fill="#FF725E"/>
<g opacity="0.8">
<path d="M1529.26 1343.28C1526.72 1344.6 1524.58 1346.59 1523.09 1349.04C1521.6 1351.49 1520.8 1354.3 1520.79 1357.16C1520.89 1360.36 1522.03 1363.44 1524.02 1365.95C1526.01 1368.45 1528.76 1370.25 1531.86 1371.07C1534.95 1371.88 1538.23 1371.68 1541.2 1370.48C1544.17 1369.29 1546.67 1367.17 1548.34 1364.43C1550 1361.7 1550.74 1358.5 1550.44 1355.31C1550.15 1352.13 1548.83 1349.12 1546.69 1346.74C1544.54 1344.37 1541.69 1342.74 1538.55 1342.12C1535.41 1341.5 1532.15 1341.9 1529.26 1343.28" fill="white"/>
</g>
<rect x="537" y="1107" width="1446" height="207" rx="30" fill="#FF6363"/>
<path d="M656.12 1225.95C656.12 1234.4 657.912 1257.05 688.248 1257.05C715.512 1257.05 719.736 1238.75 720.248 1229.02C720.376 1227.1 719.224 1225.69 717.432 1225.31L702.968 1222.11C700.408 1221.47 698.36 1223.13 697.976 1225.82C697.208 1231.71 695.288 1235.04 688.248 1235.04C678.776 1235.04 678.136 1229.02 678.136 1219.17V1200.73C678.136 1190.88 678.776 1184.86 688.248 1184.86C695.16 1184.86 697.464 1188.19 698.104 1193.82C698.488 1196.51 700.536 1198.3 703.224 1197.79L717.432 1194.59C719.224 1194.21 720.376 1192.8 720.248 1191.01C719.736 1181.15 715.512 1162.85 688.248 1162.85C657.912 1162.85 656.12 1185.5 656.12 1193.95V1225.95ZM747.201 1165.15C749.633 1165.15 751.041 1166.56 751.041 1168.99V1200.99C751.041 1203.42 752.449 1204.83 754.881 1204.83H767.169C769.729 1204.83 771.009 1203.42 771.009 1200.99V1168.99C771.009 1166.56 772.417 1165.15 774.849 1165.15H789.185C791.745 1165.15 793.025 1166.43 793.025 1168.99V1250.91C793.025 1253.34 791.745 1254.75 789.185 1254.75H774.849C772.417 1254.75 771.009 1253.34 771.009 1250.91V1230.69C771.009 1228.13 769.729 1226.85 767.169 1226.85H754.881C752.449 1226.85 751.041 1228.13 751.041 1230.69V1250.91C751.041 1253.34 749.761 1254.75 747.201 1254.75H732.865C730.433 1254.75 729.025 1253.34 729.025 1250.91V1168.99C729.025 1166.43 730.305 1165.15 732.865 1165.15H747.201ZM867.855 1250.4C867.855 1253.21 866.575 1254.75 864.015 1254.75H849.679C847.247 1254.75 845.839 1253.47 845.839 1250.91V1239.77C845.839 1237.21 844.559 1235.93 841.999 1235.93H830.991C828.559 1235.93 827.151 1237.21 827.151 1239.77V1250.91C827.151 1253.47 825.871 1254.75 823.311 1254.75H808.975C806.543 1254.75 805.135 1253.21 805.135 1250.4V1196.13C805.135 1180 807.695 1162.85 836.495 1162.85C865.295 1162.85 867.855 1180 867.855 1196.13V1250.4ZM845.839 1196.13C845.839 1189.98 844.943 1186.91 836.495 1186.91C828.047 1186.91 827.151 1189.98 827.151 1196.13V1210.08C827.151 1212.51 828.559 1213.92 830.991 1213.92H841.999C844.559 1213.79 845.839 1212.51 845.839 1209.95V1196.13ZM898.201 1165.15C900.761 1165.15 902.041 1166.43 902.041 1168.99V1228.89C902.041 1231.33 903.449 1232.73 905.881 1232.73H934.425C936.985 1232.73 938.265 1234.01 938.265 1236.57V1250.91C938.265 1253.47 936.985 1254.75 934.425 1254.75H883.865C881.433 1254.75 880.025 1253.34 880.025 1250.91V1168.99C880.025 1166.43 881.433 1165.15 883.865 1165.15H898.201ZM964.326 1165.15C966.886 1165.15 968.166 1166.43 968.166 1168.99V1228.89C968.166 1231.33 969.574 1232.73 972.006 1232.73H1000.55C1003.11 1232.73 1004.39 1234.01 1004.39 1236.57V1250.91C1004.39 1253.47 1003.11 1254.75 1000.55 1254.75H949.99C947.558 1254.75 946.15 1253.34 946.15 1250.91V1168.99C946.15 1166.43 947.558 1165.15 949.99 1165.15H964.326ZM1069.88 1165.15C1072.44 1165.15 1073.72 1166.43 1073.72 1168.99V1183.33C1073.72 1185.76 1072.44 1187.17 1069.88 1187.17H1038.9C1036.47 1187.17 1035.06 1188.45 1035.06 1191.01V1195.1C1035.06 1197.53 1036.47 1198.94 1038.9 1198.94H1058.74C1061.3 1198.94 1062.58 1200.22 1062.58 1202.78V1217.12C1062.58 1219.55 1061.3 1220.96 1058.74 1220.96H1038.9C1036.47 1220.96 1035.06 1222.24 1035.06 1224.8V1228.89C1035.06 1231.33 1036.47 1232.73 1038.9 1232.73H1069.88C1072.44 1232.73 1073.72 1234.01 1073.72 1236.57V1250.91C1073.72 1253.47 1072.44 1254.75 1069.88 1254.75H1016.12C1013.68 1254.75 1012.28 1253.34 1012.28 1250.91V1168.99C1012.28 1166.43 1013.68 1165.15 1016.12 1165.15H1069.88ZM1106.18 1165.15C1108.36 1165.15 1109.77 1166.05 1110.66 1168.09L1128.07 1210.72C1128.58 1211.87 1129.61 1211.61 1129.61 1210.33V1168.99C1129.61 1166.43 1131.01 1165.15 1133.45 1165.15H1147.78C1150.34 1165.15 1151.62 1166.43 1151.62 1168.99V1250.91C1151.62 1253.34 1150.34 1254.75 1147.78 1254.75H1128.97C1126.79 1254.75 1125.38 1253.85 1124.49 1251.81L1107.08 1209.18C1106.57 1208.03 1105.54 1208.29 1105.54 1209.57V1250.91C1105.54 1253.34 1104.26 1254.75 1101.7 1254.75H1087.37C1084.93 1254.75 1083.53 1253.34 1083.53 1250.91V1168.99C1083.53 1166.43 1084.93 1165.15 1087.37 1165.15H1106.18ZM1163.12 1225.95C1163.12 1234.4 1164.91 1257.05 1195.25 1257.05C1225.58 1257.05 1227.38 1234.4 1227.38 1225.95V1208.67C1227.38 1206.11 1226.1 1204.83 1223.54 1204.83H1197.94C1195.5 1204.83 1194.1 1206.11 1194.1 1208.67V1218.91C1194.1 1221.34 1195.5 1222.75 1197.94 1222.75H1205.36C1205.36 1229.02 1204.72 1235.04 1195.25 1235.04C1185.78 1235.04 1185.14 1229.02 1185.14 1219.17V1200.73C1185.14 1190.88 1185.78 1184.86 1195.25 1184.86C1202.54 1184.86 1204.72 1188.45 1205.23 1194.59C1205.49 1197.28 1206.9 1198.43 1209.46 1197.92L1223.92 1194.72C1226.22 1194.21 1227.38 1192.8 1227.25 1190.49C1226.61 1180.51 1222.13 1162.85 1195.25 1162.85C1164.91 1162.85 1163.12 1185.5 1163.12 1193.95V1225.95ZM1296.25 1165.15C1298.81 1165.15 1300.09 1166.43 1300.09 1168.99V1183.33C1300.09 1185.76 1298.81 1187.17 1296.25 1187.17H1265.27C1262.84 1187.17 1261.43 1188.45 1261.43 1191.01V1195.1C1261.43 1197.53 1262.84 1198.94 1265.27 1198.94H1285.11C1287.67 1198.94 1288.95 1200.22 1288.95 1202.78V1217.12C1288.95 1219.55 1287.67 1220.96 1285.11 1220.96H1265.27C1262.84 1220.96 1261.43 1222.24 1261.43 1224.8V1228.89C1261.43 1231.33 1262.84 1232.73 1265.27 1232.73H1296.25C1298.81 1232.73 1300.09 1234.01 1300.09 1236.57V1250.91C1300.09 1253.47 1298.81 1254.75 1296.25 1254.75H1242.49C1240.06 1254.75 1238.65 1253.34 1238.65 1250.91V1168.99C1238.65 1166.43 1240.06 1165.15 1242.49 1165.15H1296.25ZM1407.54 1193.69C1409.84 1193.18 1411 1191.77 1410.87 1189.47C1410.1 1180.25 1403.96 1163.1 1377.59 1163.1C1348.92 1163.1 1346.61 1185.76 1346.74 1189.6C1346.74 1219.04 1385.27 1216.61 1387.7 1227.49C1388.47 1230.94 1383.86 1234.65 1377.59 1234.65C1371.57 1234.65 1366.84 1231.07 1366.32 1224.93C1366.07 1222.24 1364.66 1221.09 1362.1 1221.6L1347.64 1224.8C1345.33 1225.31 1344.18 1226.72 1344.31 1229.02C1344.95 1239.01 1350.71 1256.67 1377.59 1256.67C1407.92 1256.67 1412.28 1234.01 1412.28 1230.17C1412.28 1200.73 1371.83 1200.99 1370.04 1191.01C1369.52 1188.06 1372.6 1185.12 1377.59 1185.12C1383.6 1185.12 1387.83 1188.45 1388.72 1193.69C1389.11 1196.25 1390.39 1197.41 1392.95 1196.89L1407.54 1193.69ZM1440.76 1191.01C1440.76 1188.45 1439.48 1187.17 1436.92 1187.17H1419C1416.56 1187.17 1415.16 1185.76 1415.16 1183.33V1168.99C1415.16 1166.43 1416.56 1165.15 1419 1165.15H1484.53C1487.09 1165.15 1488.37 1166.43 1488.37 1168.99V1183.33C1488.37 1185.76 1487.09 1187.17 1484.53 1187.17H1466.61C1464.18 1187.17 1462.77 1188.45 1462.77 1191.01V1250.91C1462.77 1253.34 1461.49 1254.75 1458.93 1254.75H1444.6C1442.16 1254.75 1440.76 1253.34 1440.76 1250.91V1191.01ZM1556.86 1250.4C1556.86 1253.21 1555.58 1254.75 1553.01 1254.75H1538.68C1536.25 1254.75 1534.84 1253.47 1534.84 1250.91V1239.77C1534.84 1237.21 1533.56 1235.93 1531 1235.93H1519.99C1517.56 1235.93 1516.15 1237.21 1516.15 1239.77V1250.91C1516.15 1253.47 1514.87 1254.75 1512.31 1254.75H1497.98C1495.54 1254.75 1494.14 1253.21 1494.14 1250.4V1196.13C1494.14 1180 1496.7 1162.85 1525.5 1162.85C1554.3 1162.85 1556.86 1180 1556.86 1196.13V1250.4ZM1534.84 1196.13C1534.84 1189.98 1533.94 1186.91 1525.5 1186.91C1517.05 1186.91 1516.15 1189.98 1516.15 1196.13V1210.08C1516.15 1212.51 1517.56 1213.92 1519.99 1213.92H1531C1533.56 1213.79 1534.84 1212.51 1534.84 1209.95V1196.13ZM1622.91 1222.62C1622.66 1221.98 1622.79 1221.34 1623.3 1220.96C1630.08 1216.09 1633.03 1207.77 1633.03 1195.87C1633.03 1174.88 1623.81 1165.15 1601.03 1165.15H1572.99C1570.69 1165.15 1569.03 1166.81 1569.03 1169.12V1250.78C1569.03 1253.09 1570.69 1254.75 1572.99 1254.75H1587.33C1589.63 1254.75 1591.3 1253.09 1591.3 1250.78V1230.56C1591.3 1228.25 1592.96 1226.59 1595.27 1226.59H1600.39C1600.77 1226.59 1601.15 1226.85 1601.41 1227.23L1614.72 1252.96C1615.23 1254.11 1616.39 1254.75 1617.67 1254.75H1632.26C1636.23 1254.75 1638.27 1251.17 1636.48 1247.84L1622.91 1222.62ZM1601.79 1187.17C1607.94 1187.17 1611.01 1187.93 1611.01 1195.87C1611.01 1203.81 1607.94 1204.57 1601.79 1204.57H1595.27C1592.96 1204.57 1591.3 1202.91 1591.3 1200.61V1191.13C1591.3 1188.83 1592.96 1187.17 1595.27 1187.17H1601.79ZM1662.88 1191.01C1662.88 1188.45 1661.6 1187.17 1659.04 1187.17H1641.12C1638.69 1187.17 1637.28 1185.76 1637.28 1183.33V1168.99C1637.28 1166.43 1638.69 1165.15 1641.12 1165.15H1706.66C1709.22 1165.15 1710.5 1166.43 1710.5 1168.99V1183.33C1710.5 1185.76 1709.22 1187.17 1706.66 1187.17H1688.74C1686.3 1187.17 1684.9 1188.45 1684.9 1191.01V1250.91C1684.9 1253.34 1683.62 1254.75 1681.06 1254.75H1666.72C1664.29 1254.75 1662.88 1253.34 1662.88 1250.91V1191.01ZM1775.75 1165.15C1778.31 1165.15 1779.59 1166.43 1779.59 1168.99V1183.33C1779.59 1185.76 1778.31 1187.17 1775.75 1187.17H1744.77C1742.34 1187.17 1740.93 1188.45 1740.93 1191.01V1195.1C1740.93 1197.53 1742.34 1198.94 1744.77 1198.94H1764.61C1767.17 1198.94 1768.45 1200.22 1768.45 1202.78V1217.12C1768.45 1219.55 1767.17 1220.96 1764.61 1220.96H1744.77C1742.34 1220.96 1740.93 1222.24 1740.93 1224.8V1228.89C1740.93 1231.33 1742.34 1232.73 1744.77 1232.73H1775.75C1778.31 1232.73 1779.59 1234.01 1779.59 1236.57V1250.91C1779.59 1253.47 1778.31 1254.75 1775.75 1254.75H1721.99C1719.56 1254.75 1718.15 1253.34 1718.15 1250.91V1168.99C1718.15 1166.43 1719.56 1165.15 1721.99 1165.15H1775.75ZM1793.24 1165.15C1790.68 1165.28 1789.4 1166.56 1789.4 1169.12V1250.91C1789.4 1253.34 1790.81 1254.75 1793.24 1254.75H1821.78C1845.85 1254.75 1853.78 1244.89 1853.78 1223.9V1195.87C1853.78 1174.88 1845.85 1165.15 1821.78 1165.15H1793.24ZM1815.26 1232.73C1812.82 1232.73 1811.42 1231.33 1811.42 1228.89V1191.01C1811.42 1188.45 1812.82 1187.17 1815.26 1187.17H1822.17C1828.31 1187.17 1831.38 1187.93 1831.38 1195.87C1831.38 1196 1831.38 1223.9 1831.38 1224.03C1831.38 1231.71 1828.31 1232.73 1822.17 1232.73H1815.26Z" fill="white"/>
<path d="M2344.67 173.439C2316.15 173.437 2288.28 181.973 2264.65 197.95C2241.03 213.926 2222.73 236.611 2212.11 263.081C2201.49 289.552 2199.04 318.595 2205.07 346.471C2211.1 374.346 2225.35 399.776 2245.96 419.486L2225.63 457.451L2275.58 441.266C2294.66 451.822 2315.9 457.871 2337.68 458.949C2359.46 460.028 2381.19 456.106 2401.22 447.486C2421.25 438.865 2439.03 425.774 2453.22 409.216C2467.4 392.658 2477.61 373.073 2483.06 351.96C2488.5 330.848 2489.04 308.769 2484.64 287.415C2480.23 266.061 2471 245.999 2457.64 228.767C2444.28 211.535 2427.15 197.589 2407.57 187.999C2387.99 178.409 2366.47 173.428 2344.67 173.439V173.439Z" fill="#263238"/>
<path d="M2344.67 460.399C2320.44 460.399 2296.6 454.282 2275.36 442.615L2226 458.626C2225.77 458.695 2225.51 458.697 2225.28 458.631C2225.04 458.565 2224.82 458.433 2224.66 458.251C2224.5 458.057 2224.4 457.82 2224.38 457.571C2224.36 457.321 2224.41 457.071 2224.53 456.852L2244.51 419.737C2227.42 403.181 2214.7 382.65 2207.48 359.978C2200.25 337.307 2198.76 313.199 2203.12 289.808C2207.49 266.418 2217.58 244.472 2232.49 225.932C2247.41 207.391 2266.68 192.832 2288.59 183.555C2310.5 174.278 2334.37 170.572 2358.06 172.767C2381.76 174.962 2404.54 182.991 2424.37 196.135C2444.2 209.28 2460.47 227.132 2471.73 248.098C2482.98 269.063 2488.87 292.488 2488.86 316.283C2488.82 354.506 2473.61 391.15 2446.58 418.171C2419.54 445.191 2382.89 460.379 2344.67 460.399V460.399ZM2275.48 440.018C2275.7 440.014 2275.91 440.075 2276.08 440.193C2303.26 455.244 2334.63 460.941 2365.36 456.406C2396.1 451.872 2424.49 437.358 2446.16 415.1C2467.83 392.842 2481.58 364.075 2485.3 333.232C2489.01 302.388 2482.48 271.18 2466.71 244.414C2450.94 217.648 2426.8 196.811 2398.03 185.112C2369.25 173.413 2337.42 171.501 2307.45 179.672C2277.47 187.843 2251.02 205.642 2232.16 230.328C2213.3 255.014 2203.08 285.217 2203.08 316.283C2203 335.432 2206.84 354.395 2214.36 372.006C2221.88 389.616 2232.92 405.503 2246.81 418.688C2247 418.88 2247.13 419.128 2247.18 419.397C2247.22 419.666 2247.18 419.942 2247.06 420.186L2228.2 455.404L2275.08 440.193L2275.48 440.018Z" fill="#263238"/>
<path d="M2337.95 163.25C2309.43 163.247 2281.56 171.784 2257.93 187.76C2234.31 203.737 2216.01 226.421 2205.39 252.892C2194.77 279.362 2192.32 308.406 2198.35 336.281C2204.39 364.157 2218.63 389.587 2239.24 409.297L2218.91 447.236L2268.86 431.076C2287.94 441.633 2309.18 447.682 2330.96 448.76C2352.74 449.838 2374.47 445.917 2394.5 437.296C2414.53 428.676 2432.31 415.585 2446.5 399.027C2460.69 382.469 2470.89 362.883 2476.34 341.771C2481.78 320.658 2482.33 298.579 2477.92 277.225C2473.51 255.872 2464.28 235.81 2450.92 218.578C2437.56 201.345 2420.43 187.4 2400.85 177.809C2381.27 168.219 2359.75 163.239 2337.95 163.25V163.25Z" fill="white"/>
<path d="M2337.95 450.182C2313.72 450.173 2289.89 444.066 2268.64 432.424L2219.31 448.434C2219.07 448.507 2218.82 448.508 2218.58 448.437C2218.34 448.366 2218.12 448.226 2217.96 448.034C2217.81 447.84 2217.71 447.605 2217.68 447.357C2217.66 447.109 2217.7 446.859 2217.81 446.636L2237.79 409.545C2213.79 386.273 2198.62 355.377 2194.9 322.152C2191.17 288.926 2199.12 255.439 2217.37 227.427C2235.62 199.415 2263.05 178.623 2294.95 168.611C2326.85 158.6 2361.23 159.994 2392.22 172.553C2423.2 185.112 2448.86 208.056 2464.78 237.452C2480.71 266.849 2485.92 300.869 2479.52 333.684C2473.11 366.499 2455.5 396.067 2429.69 417.321C2403.88 438.574 2371.48 450.192 2338.05 450.182H2337.95ZM2268.79 429.826C2269 429.828 2269.2 429.88 2269.39 429.976C2300.92 447.479 2337.93 452.323 2372.9 443.524C2407.87 434.724 2438.18 412.941 2457.67 382.601C2477.17 352.26 2484.38 315.637 2477.84 280.172C2471.3 244.708 2451.51 213.061 2422.48 191.663C2393.46 170.264 2357.37 160.718 2321.56 164.964C2285.75 169.21 2252.9 186.93 2229.68 214.523C2206.46 242.117 2194.62 277.514 2196.56 313.524C2198.5 349.533 2214.07 383.455 2240.12 408.396C2240.31 408.583 2240.44 408.828 2240.48 409.095C2240.52 409.361 2240.47 409.634 2240.34 409.87L2221.48 445.087L2268.39 429.876L2268.79 429.826Z" fill="#263238"/>
<path d="M2290.12 364.961L2235.17 326.197V305.641L2290.12 266.502V287.233L2250.78 315.831L2290.12 344.43V364.961Z" fill="#FF725E"/>
<path d="M2306.83 371.879L2348.67 216.398H2366.52L2324.49 371.879H2306.83Z" fill="#FF725E"/>
<path d="M2383.21 364.961V344.43L2422.75 315.631L2383.21 287.233V266.502L2438.31 305.466V325.997L2383.21 364.961Z" fill="#FF725E"/>
<path d="M2296.94 356.443L2241.99 317.679V297.148L2296.94 257.984V278.715L2257.58 307.314L2296.94 335.912V356.443Z" fill="#263238"/>
<path d="M2313.62 363.362L2355.46 207.906H2373.32L2331.28 363.362H2313.62Z" fill="#263238"/>
<path d="M2390 356.443V335.912L2429.59 307.139L2390 278.715V257.984L2445.1 296.948V317.504L2390 356.443Z" fill="#263238"/>
</svg>
