<svg width="309" height="278" viewBox="0 0 309 278" fill="none" xmlns="http://www.w3.org/2000/svg">
<path d="M154.67 277.851C239.904 277.851 309 241.8 309 197.329C309 152.858 239.904 116.807 154.67 116.807C69.4364 116.807 0.340576 152.858 0.340576 197.329C0.340576 241.8 69.4364 277.851 154.67 277.851Z" fill="#F5F5F5"/>
<path d="M183.609 265.452C210.757 265.452 232.764 253.394 232.764 238.519C232.764 223.644 210.757 211.586 183.609 211.586C156.462 211.586 134.455 223.644 134.455 238.519C134.455 253.394 156.462 265.452 183.609 265.452Z" fill="#E0E0E0"/>
<path d="M143.889 205.878L232.52 157.297C233.57 156.724 233.57 155.792 232.52 155.22L193.646 133.918C193.059 133.633 192.409 133.484 191.75 133.484C191.09 133.484 190.441 133.633 189.854 133.918L101.223 182.532C100.173 183.104 100.173 184.036 101.223 184.609L140.104 205.91C140.692 206.191 141.342 206.334 142 206.329C142.659 206.323 143.306 206.169 143.889 205.878Z" fill="#E0E0E0"/>
<path d="M69.2024 215.623L12.5444 184.576C11.5015 184.004 11.5015 183.072 12.5444 182.5L104.758 131.964C105.346 131.682 105.995 131.536 106.654 131.536C107.313 131.536 107.962 131.682 108.55 131.964L165.208 163.011C166.258 163.589 166.258 164.515 165.208 165.094L72.995 215.623C72.407 215.905 71.7575 216.052 71.0987 216.052C70.44 216.052 69.7904 215.905 69.2024 215.623Z" fill="#E0E0E0"/>
<path d="M99.0483 127.208L13.9259 173.861C13.6025 174.06 13.3333 174.328 13.1403 174.644C12.9472 174.96 12.8358 175.315 12.8152 175.68V177.808C12.8358 178.173 12.9472 178.528 13.1403 178.844C13.3333 179.16 13.6025 179.428 13.9259 179.627L69.8931 210.301C70.2363 210.466 70.6156 210.551 71.0004 210.551C71.3851 210.551 71.7644 210.466 72.1077 210.301L157.25 163.641C157.572 163.441 157.839 163.172 158.031 162.856C158.223 162.54 158.333 162.186 158.354 161.822V159.694C158.334 159.329 158.222 158.974 158.029 158.658C157.836 158.342 157.567 158.073 157.244 157.875L101.263 127.208C100.92 127.043 100.54 126.957 100.156 126.957C99.7709 126.957 99.3916 127.043 99.0483 127.208Z" fill="#37474F"/>
<path d="M69.8927 205.743L13.9255 175.076C13.7924 175.032 13.677 174.95 13.5953 174.841C13.5136 174.733 13.4697 174.602 13.4697 174.469C13.4697 174.335 13.5136 174.205 13.5953 174.096C13.677 173.987 13.7924 173.905 13.9255 173.861L99.0479 127.208C99.3912 127.043 99.7705 126.957 100.155 126.957C100.54 126.957 100.919 127.043 101.262 127.208L157.243 157.875C157.374 157.92 157.487 158.002 157.567 158.11C157.647 158.218 157.689 158.347 157.689 158.479C157.689 158.611 157.647 158.74 157.567 158.848C157.487 158.956 157.374 159.038 157.243 159.083L72.1073 205.743C71.764 205.908 71.3847 205.994 71 205.994C70.6152 205.994 70.2359 205.908 69.8927 205.743Z" fill="#455A64"/>
<path d="M71.0715 205.994V210.545C70.6656 210.565 70.2613 210.483 69.8999 210.307L13.9191 179.627C13.5983 179.428 13.3313 179.16 13.1395 178.845C12.9477 178.531 12.8367 178.177 12.8152 177.814V175.687C12.8341 175.361 12.9239 175.043 13.0789 174.752C13.2339 174.461 13.4508 174.203 13.7159 173.996C13.3231 174.337 13.3908 174.78 13.9191 175.07L69.8999 205.743C70.2602 205.924 70.6645 206.01 71.0715 205.994Z" fill="#263238"/>
<path d="M143.875 162.285L141.545 163.57L149.814 104.357L152.151 103.078L143.875 162.285Z" fill="#E0E0E0"/>
<path d="M141.545 163.57L91.6526 136.239L99.9217 77.0319L149.814 104.357L141.545 163.57Z" fill="#FAFAFA"/>
<path d="M152.15 103.078L149.814 104.357L99.9216 77.0319L102.292 75.7335L152.15 103.078Z" fill="#EBEBEB"/>
<path d="M147.207 105.25L101.479 80.2008L93.9756 134.304L139.703 159.315L147.207 105.25Z" fill="#BA68C8"/>
<path opacity="0.8" d="M147.207 105.25L101.479 80.2008L93.9756 134.304L139.703 159.315L147.207 105.25Z" fill="white"/>
<path d="M98.879 113.465L110.616 102.91C111.841 101.811 113.291 102.152 113.833 103.669L122.244 127.182C122.284 127.307 122.372 127.413 122.49 127.48C122.609 127.547 122.749 127.57 122.884 127.544C123.019 127.518 123.139 127.446 123.221 127.341C123.303 127.236 123.341 127.106 123.327 126.976L122.962 122.02L130.445 117.02C130.752 116.8 131.107 116.648 131.483 116.576C131.86 116.504 132.249 116.513 132.621 116.602C132.993 116.692 133.34 116.86 133.635 117.093C133.93 117.327 134.166 117.62 134.326 117.952L143.13 134.664L140.001 157.162L96.0549 133.121L98.879 113.465Z" fill="#BA68C8"/>
<path d="M138.667 105.398C136.635 104.267 134.671 105.038 134.353 107.114C134.034 109.19 135.477 111.8 137.563 112.944C139.649 114.088 141.579 113.324 141.877 111.235C142.175 109.145 140.732 106.516 138.667 105.398Z" fill="#BA68C8"/>
<path d="M103.552 81.345L96.0545 133.121L93.9822 134.266L101.479 80.2008L103.552 81.345Z" fill="#E0E0E0"/>
<path d="M96.0545 133.121L140.001 157.187L139.703 159.315L93.9822 134.266L96.0545 133.121Z" fill="#EBEBEB"/>
<path d="M131.468 169.111L129.131 170.39L137.407 111.183L139.744 109.904L131.468 169.111Z" fill="#E0E0E0"/>
<path d="M129.131 170.39L79.2388 143.059L87.5079 83.8518L137.407 111.183L129.131 170.39Z" fill="#FAFAFA"/>
<path d="M139.744 109.904L137.407 111.183L87.5081 83.8518L89.8784 82.5533L139.744 109.904Z" fill="#EBEBEB"/>
<path d="M134.8 112.07L89.0724 87.0272L81.5686 141.124L127.296 166.141L134.8 112.07Z" fill="#BA68C8"/>
<path opacity="0.8" d="M134.8 112.07L89.0724 87.0272L81.5686 141.124L127.296 166.141L134.8 112.07Z" fill="white"/>
<path d="M86.4655 120.285L98.1953 109.737C99.4211 108.631 100.904 108.972 101.412 110.489L109.824 134.002C109.864 134.127 109.952 134.233 110.07 134.3C110.188 134.367 110.328 134.39 110.463 134.364C110.598 134.338 110.718 134.266 110.8 134.161C110.882 134.056 110.92 133.926 110.907 133.796L110.541 128.84L118.025 123.846C118.332 123.626 118.687 123.475 119.064 123.403C119.441 123.33 119.831 123.339 120.204 123.429C120.577 123.518 120.924 123.686 121.219 123.919C121.515 124.153 121.752 124.446 121.912 124.778L130.716 141.49L127.594 163.988L83.6414 139.928L86.4655 120.285Z" fill="#BA68C8"/>
<path d="M126.253 112.212C124.187 111.08 122.264 111.845 121.946 113.921C121.627 115.998 123.063 118.614 125.156 119.758C127.249 120.902 129.172 120.131 129.463 118.042C129.754 115.953 128.319 113.343 126.253 112.212Z" fill="#BA68C8"/>
<path d="M91.1444 88.165L83.6405 139.948L81.575 141.085L89.072 87.0272L91.1444 88.165Z" fill="#E0E0E0"/>
<path d="M83.6405 139.948L127.587 164.007L127.296 166.141L81.575 141.085L83.6405 139.948Z" fill="#EBEBEB"/>
<path d="M119.054 175.937L116.724 177.216L124.993 118.009L127.33 116.724L119.054 175.937Z" fill="#E0E0E0"/>
<path d="M116.724 177.216L66.825 149.885L75.1008 90.6782L124.993 118.009L116.724 177.216Z" fill="#FAFAFA"/>
<path d="M127.33 116.724L124.993 118.009L75.1008 90.6783L77.4712 89.3798L127.33 116.724Z" fill="#EBEBEB"/>
<path d="M122.386 118.896L76.6586 93.8471L69.1548 147.95L114.882 172.961L122.386 118.896Z" fill="#BA68C8"/>
<path opacity="0.8" d="M122.386 118.896L76.6586 93.8471L69.1548 147.95L114.882 172.961L122.386 118.896Z" fill="white"/>
<path d="M74.0441 127.111L85.7739 116.557C86.9997 115.458 88.4422 115.798 88.9908 117.315L97.3953 140.828C97.4358 140.953 97.5236 141.059 97.6418 141.126C97.76 141.193 97.9001 141.216 98.0351 141.19C98.17 141.165 98.2902 141.093 98.3722 140.988C98.4542 140.883 98.4922 140.753 98.4789 140.623L98.1132 135.667L105.604 130.666C105.91 130.446 106.265 130.295 106.641 130.223C107.018 130.15 107.407 130.159 107.779 130.249C108.152 130.338 108.498 130.506 108.793 130.739C109.088 130.973 109.324 131.266 109.484 131.598L118.288 148.31L115.166 170.808L71.22 146.748L74.0441 127.111Z" fill="#BA68C8"/>
<path d="M113.845 119.031C111.78 117.9 109.85 118.672 109.531 120.748C109.213 122.824 110.656 125.434 112.741 126.578C114.827 127.722 116.757 126.957 117.049 124.868C117.34 122.779 115.904 120.182 113.845 119.031Z" fill="#BA68C8"/>
<path d="M78.7308 94.9913L71.2337 146.774L69.1614 147.912L76.6584 93.8471L78.7308 94.9913Z" fill="#E0E0E0"/>
<path d="M71.2337 146.774L115.18 170.834L114.882 172.961L69.1614 147.912L71.2337 146.774Z" fill="#EBEBEB"/>
<path d="M106.64 182.757L104.311 184.036L112.586 124.829L114.916 123.55L106.64 182.757Z" fill="#E0E0E0"/>
<path d="M104.311 184.036L54.4182 156.705L62.6873 97.4982L112.586 124.829L104.311 184.036Z" fill="#FAFAFA"/>
<path d="M114.916 123.55L112.586 124.829L62.6873 97.4982L65.0576 96.1998L114.916 123.55Z" fill="#EBEBEB"/>
<path d="M109.979 125.716L64.2516 100.674L56.7478 154.77L102.475 179.788L109.979 125.716Z" fill="#BA68C8"/>
<path opacity="0.8" d="M109.979 125.716L64.2516 100.674L56.7478 154.77L102.475 179.788L109.979 125.716Z" fill="white"/>
<path d="M61.6439 133.931L73.367 123.396C74.5928 122.297 76.0759 122.631 76.5839 124.148L84.9952 147.661C85.0356 147.786 85.1235 147.892 85.2417 147.959C85.3599 148.026 85.5 148.049 85.635 148.023C85.7699 147.998 85.89 147.925 85.972 147.82C86.054 147.716 86.0921 147.586 86.0788 147.456L85.7131 142.5L93.1627 137.505C93.47 137.286 93.8252 137.134 94.2022 137.062C94.5793 136.99 94.9686 136.999 95.3415 137.088C95.7144 137.177 96.0615 137.345 96.3572 137.579C96.6529 137.812 96.8896 138.105 97.0501 138.437L105.854 155.15L102.725 177.647L58.8198 153.607L61.6439 133.931Z" fill="#BA68C8"/>
<path d="M101.432 125.858C99.3666 124.727 97.4364 125.491 97.1249 127.568C96.8134 129.644 98.2424 132.26 100.328 133.404C102.414 134.548 104.351 133.783 104.642 131.688C104.933 129.592 103.498 126.989 101.432 125.858Z" fill="#BA68C8"/>
<path d="M66.3172 101.818L58.8202 153.594L56.7478 154.732L64.2516 100.674L66.3172 101.818Z" fill="#E0E0E0"/>
<path d="M58.8202 153.594L102.766 177.654L102.475 179.788L56.7478 154.732L58.8202 153.594Z" fill="#EBEBEB"/>
<path d="M94.233 189.577L91.9033 190.863L100.172 131.649L102.509 130.37L94.233 189.577Z" fill="#E0E0E0"/>
<path d="M91.9035 190.863L42.0044 163.532L50.2803 104.325L100.173 131.649L91.9035 190.863Z" fill="#FAFAFA"/>
<path d="M102.509 130.37L100.172 131.649L50.28 104.324L52.6436 103.026L102.509 130.37Z" fill="#EBEBEB"/>
<path d="M97.5652 132.543L51.8378 107.493L44.334 161.597L90.0613 186.608L97.5652 132.543Z" fill="#BA68C8"/>
<path opacity="0.8" d="M97.5652 132.543L51.8378 107.493L44.334 161.597L90.0613 186.608L97.5652 132.543Z" fill="white"/>
<path d="M49.2374 140.751L60.9672 130.197C62.1931 129.098 63.6356 129.438 64.1774 130.955L72.5887 154.468C72.6291 154.593 72.717 154.699 72.8352 154.766C72.9534 154.833 73.0935 154.856 73.2285 154.83C73.3634 154.805 73.4835 154.732 73.5655 154.628C73.6475 154.523 73.6856 154.393 73.6723 154.263L73.3066 149.307L80.8172 144.312C81.1243 144.098 81.4778 143.95 81.8521 143.881C82.2265 143.812 82.6123 143.823 82.9817 143.913C83.3512 144.003 83.6949 144.169 83.9882 144.401C84.2815 144.632 84.5169 144.922 84.6775 145.251L93.4816 161.963L90.3595 184.461L46.4133 160.42L49.2374 140.751Z" fill="#BA68C8"/>
<path d="M89.0178 132.678C86.9861 131.553 85.0288 132.318 84.7105 134.394C84.3922 136.47 85.8347 139.08 87.9206 140.224C90.0066 141.368 91.9367 140.603 92.2279 138.514C92.5191 136.425 91.0834 133.809 89.0178 132.678Z" fill="#BA68C8"/>
<path d="M53.91 108.638L46.4129 160.42L44.3406 161.558L51.8376 107.493L53.91 108.638Z" fill="#E0E0E0"/>
<path d="M46.4129 160.421L90.3591 184.48L90.0611 186.608L44.3406 161.558L46.4129 160.421Z" fill="#EBEBEB"/>
<path d="M81.8195 196.404L79.4897 197.683L87.7589 138.476L90.0953 137.197L81.8195 196.404Z" fill="#E0E0E0"/>
<path d="M79.4895 197.683L29.5972 170.351L37.8663 111.144L87.7586 138.476L79.4895 197.683Z" fill="#FAFAFA"/>
<path d="M90.0951 137.197L87.7586 138.476L37.8662 111.144L40.2366 109.846L90.0951 137.197Z" fill="#EBEBEB"/>
<path d="M85.1513 139.363L39.4308 114.32L31.9202 168.417L77.6475 193.434L85.1513 139.363Z" fill="#BA68C8"/>
<path opacity="0.8" d="M85.1513 139.363L39.4308 114.32L31.9202 168.417L77.6475 193.434L85.1513 139.363Z" fill="white"/>
<path d="M36.796 147.578L48.5258 137.03C49.7517 135.93 51.2348 136.265 51.7427 137.782L60.1812 161.32C60.2216 161.445 60.3094 161.551 60.4276 161.618C60.5458 161.685 60.686 161.708 60.8209 161.682C60.9559 161.657 61.076 161.585 61.158 161.48C61.24 161.375 61.278 161.245 61.2648 161.115L60.899 156.159L68.3487 151.164C68.6554 150.945 69.0101 150.793 69.3866 150.721C69.7632 150.649 70.152 150.658 70.5245 150.747C70.8969 150.837 71.2434 151.004 71.5385 151.238C71.8335 151.471 72.0696 151.765 72.2293 152.096L81.0334 168.809L77.9046 191.306L33.999 167.24L36.796 147.578Z" fill="#BA68C8"/>
<path d="M76.6111 139.504C74.5794 138.373 72.6154 139.138 72.3039 141.22C71.9923 143.303 73.4213 145.906 75.5072 147.05C77.5931 148.195 79.5233 147.43 79.8212 145.334C80.1192 143.239 78.6767 140.635 76.6111 139.504Z" fill="#BA68C8"/>
<path d="M41.4964 115.464L33.9994 167.24L31.927 168.385L39.4308 114.32L41.4964 115.464Z" fill="#E0E0E0"/>
<path d="M33.9994 167.24L77.9455 191.3L77.6476 193.434L31.927 168.385L33.9994 167.24Z" fill="#EBEBEB"/>
<path d="M99.0483 52.4197L13.9259 99.073C13.6016 99.2721 13.3319 99.5414 13.1388 99.8588C12.9457 100.176 12.8348 100.533 12.8152 100.899V103.026C12.8359 103.392 12.9472 103.748 13.1402 104.065C13.3332 104.382 13.6024 104.652 13.9259 104.852L69.8931 135.519C70.2363 135.684 70.6156 135.77 71.0004 135.77C71.3851 135.77 71.7644 135.684 72.1077 135.519L157.25 88.8592C157.572 88.6593 157.839 88.3905 158.031 88.0745C158.223 87.7585 158.333 87.4042 158.354 87.0401V84.9125C158.334 84.5476 158.222 84.1925 158.029 83.8763C157.836 83.5601 157.567 83.2918 157.244 83.0934L101.263 52.4261C100.92 52.2602 100.541 52.1731 100.156 52.172C99.7717 52.1709 99.3921 52.2557 99.0483 52.4197Z" fill="#37474F"/>
<path d="M69.8927 130.955L13.9255 100.288C13.7924 100.244 13.677 100.162 13.5953 100.053C13.5136 99.9444 13.4697 99.8141 13.4697 99.6804C13.4697 99.5468 13.5136 99.4165 13.5953 99.3076C13.677 99.1987 13.7924 99.1167 13.9255 99.073L99.0479 52.4196C99.3912 52.2547 99.7705 52.1688 100.155 52.1688C100.54 52.1688 100.919 52.2547 101.262 52.4196L157.243 83.0869C157.86 83.4212 157.86 83.9611 157.243 84.3018L72.1073 130.955C71.765 131.123 71.3853 131.211 71 131.211C70.6147 131.211 70.235 131.123 69.8927 130.955Z" fill="#455A64"/>
<path d="M71.0715 131.206V135.763C70.6653 135.779 70.2619 135.694 69.8999 135.519L13.9191 104.839C13.5983 104.64 13.3313 104.372 13.1395 104.057C12.9477 103.743 12.8367 103.389 12.8152 103.026V100.899C12.8341 100.573 12.9239 100.255 13.0789 99.9637C13.2339 99.6727 13.4508 99.4154 13.7159 99.208C13.3231 99.5487 13.3908 99.9922 13.9191 100.288L69.8999 130.955C70.259 131.139 70.6642 131.225 71.0715 131.206Z" fill="#263238"/>
<path d="M143.875 87.0144L141.545 88.2935L149.814 29.0865L152.151 27.8074L143.875 87.0144Z" fill="#E0E0E0"/>
<path d="M141.545 88.2935L91.6526 60.9623L99.9217 1.75525L149.814 29.0865L141.545 88.2935Z" fill="#FAFAFA"/>
<path d="M152.15 27.8074L149.814 29.0865L99.9216 1.75527L102.292 0.456848L152.15 27.8074Z" fill="#EBEBEB"/>
<path d="M147.207 29.9736L101.479 4.93066L93.9756 59.0275L139.703 84.0447L147.207 29.9736Z" fill="#BA68C8"/>
<path opacity="0.8" d="M147.207 29.9736L101.479 4.93066L93.9756 59.0275L139.703 84.0447L147.207 29.9736Z" fill="white"/>
<path d="M98.879 38.1884L110.616 27.621C111.841 26.5154 113.291 26.8561 113.833 28.3731L122.244 51.8862C122.284 52.011 122.372 52.1172 122.49 52.1841C122.609 52.251 122.749 52.2738 122.884 52.2482C123.019 52.2226 123.139 52.1503 123.221 52.0454C123.303 51.9405 123.341 51.8105 123.327 51.6805L122.962 46.7246L130.438 41.7623C130.744 41.5413 131.099 41.3884 131.475 41.3151C131.852 41.2418 132.241 41.2499 132.613 41.3388C132.986 41.4278 133.333 41.5952 133.628 41.8287C133.924 42.0623 134.16 42.3559 134.319 42.6879L143.123 59.4003L139.994 81.8978L96.0549 57.8319L98.879 38.1884Z" fill="#BA68C8"/>
<path d="M138.667 30.115C136.635 28.9837 134.671 29.7486 134.353 31.8248C134.034 33.901 135.477 36.5172 137.563 37.6613C139.649 38.8055 141.579 38.0341 141.877 35.9451C142.175 33.856 140.732 31.2463 138.667 30.115Z" fill="#BA68C8"/>
<path d="M103.552 6.0684L96.0545 57.8512L93.9822 58.989L101.479 4.93066L103.552 6.0684Z" fill="#E0E0E0"/>
<path d="M96.0545 57.8512L140.001 81.9107L139.703 84.0447L93.9822 58.9889L96.0545 57.8512Z" fill="#EBEBEB"/>
<path d="M131.468 93.8343L129.131 95.1135L137.407 35.9065L139.744 34.6273L131.468 93.8343Z" fill="#E0E0E0"/>
<path d="M129.131 95.1135L79.2388 67.7887L87.5079 8.58173L137.407 35.9065L129.131 95.1135Z" fill="#FAFAFA"/>
<path d="M139.744 34.6273L137.407 35.9065L87.5081 8.58163L89.8784 7.2832L139.744 34.6273Z" fill="#EBEBEB"/>
<path d="M134.8 36.8L89.0724 11.7506L81.5686 65.8475L127.296 90.8647L134.8 36.8Z" fill="#BA68C8"/>
<path opacity="0.8" d="M134.8 36.8L89.0724 11.7506L81.5686 65.8475L127.296 90.8647L134.8 36.8Z" fill="white"/>
<path d="M86.4655 45.0083L98.1953 34.4602C99.4211 33.3611 100.904 33.7017 101.412 35.2187L109.824 58.7318C109.863 58.8581 109.952 58.9655 110.071 59.0331C110.19 59.1006 110.332 59.1233 110.468 59.0967C110.604 59.0701 110.724 58.9961 110.806 58.8893C110.887 58.7825 110.923 58.6506 110.907 58.5197L110.541 53.5703L118.025 48.5694C118.332 48.3497 118.687 48.1982 119.064 48.126C119.441 48.0538 119.831 48.0627 120.204 48.1522C120.577 48.2416 120.924 48.4092 121.219 48.6427C121.515 48.8762 121.752 49.1696 121.912 49.5014L130.716 66.2138L127.594 88.7113L83.6414 64.6519L86.4655 45.0083Z" fill="#BA68C8"/>
<path d="M126.253 36.9349C124.187 35.8036 122.264 36.575 121.946 38.6512C121.627 40.7274 123.063 43.3371 125.156 44.4812C127.249 45.6254 129.172 44.8605 129.463 42.7714C129.754 40.6824 128.319 38.0662 126.253 36.9349Z" fill="#BA68C8"/>
<path d="M91.1444 12.8948L83.6405 64.6712L81.575 65.8153L89.072 11.7506L91.1444 12.8948Z" fill="#E0E0E0"/>
<path d="M83.6405 64.6711L127.587 88.7306L127.296 90.8647L81.575 65.8153L83.6405 64.6711Z" fill="#EBEBEB"/>
<path d="M119.054 100.661L116.724 101.94L124.993 42.7328L127.33 41.4537L119.054 100.661Z" fill="#E0E0E0"/>
<path d="M116.724 101.94L66.825 74.6086L75.1008 15.4016L124.993 42.7328L116.724 101.94Z" fill="#FAFAFA"/>
<path d="M127.33 41.4537L124.993 42.7329L75.1008 15.4016L77.4712 14.1032L127.33 41.4537Z" fill="#EBEBEB"/>
<path d="M122.386 43.6199L76.6586 18.5706L69.1548 72.6738L114.882 97.6846L122.386 43.6199Z" fill="#BA68C8"/>
<path opacity="0.8" d="M122.386 43.6199L76.6586 18.5706L69.1548 72.6738L114.882 97.6846L122.386 43.6199Z" fill="white"/>
<path d="M74.0447 51.8347L85.7745 41.2866C87.0003 40.181 88.4428 40.5217 88.9914 42.0387L97.4095 65.5453C97.4499 65.6702 97.5378 65.7763 97.656 65.8432C97.7742 65.9101 97.9143 65.933 98.0493 65.9074C98.1842 65.8817 98.3043 65.8095 98.3863 65.7046C98.4683 65.5997 98.5064 65.4696 98.4931 65.3396L98.1274 60.3838L105.618 55.3893C105.923 55.1683 106.278 55.0155 106.654 54.9421C107.031 54.8688 107.42 54.8769 107.793 54.9659C108.165 55.0548 108.512 55.2222 108.808 55.4558C109.103 55.6893 109.339 55.983 109.498 56.3149L118.302 73.0274L115.18 95.5249L71.2341 71.4654L74.0447 51.8347Z" fill="#BA68C8"/>
<path d="M113.845 43.7614C111.78 42.6301 109.85 43.395 109.531 45.4712C109.213 47.5474 110.656 50.1635 112.741 51.3077C114.827 52.4518 116.757 51.6805 117.049 49.5915C117.34 47.5024 115.904 44.8927 113.845 43.7614Z" fill="#BA68C8"/>
<path d="M78.7308 19.7147L71.2337 71.4975L69.1614 72.6353L76.6584 18.5706L78.7308 19.7147Z" fill="#E0E0E0"/>
<path d="M71.2337 71.4976L115.18 95.557L114.882 97.6847L69.1614 72.6353L71.2337 71.4976Z" fill="#EBEBEB"/>
<path d="M106.64 107.481L104.311 108.76L112.586 49.5528L114.916 48.2737L106.64 107.481Z" fill="#E0E0E0"/>
<path d="M104.311 108.76L54.4182 81.435L62.6873 22.228L112.586 49.5529L104.311 108.76Z" fill="#FAFAFA"/>
<path d="M114.916 48.2737L112.586 49.5529L62.6873 22.2281L65.0576 20.9296L114.916 48.2737Z" fill="#EBEBEB"/>
<path d="M109.979 50.4398L64.2516 25.3969L56.7478 79.4938L102.475 104.511L109.979 50.4398Z" fill="#BA68C8"/>
<path opacity="0.8" d="M109.979 50.4398L64.2516 25.3969L56.7478 79.4938L102.475 104.511L109.979 50.4398Z" fill="white"/>
<path d="M61.644 58.6547L73.3671 48.1066C74.5929 47.0074 76.076 47.3481 76.584 48.8651L84.9953 72.3782C85.0357 72.503 85.1236 72.6092 85.2418 72.6761C85.36 72.743 85.5001 72.7658 85.6351 72.7402C85.77 72.7146 85.8901 72.6423 85.9721 72.5374C86.0541 72.4325 86.0922 72.3025 86.0789 72.1725L85.7132 67.2166L93.1628 62.2157C93.4701 61.9961 93.8253 61.8446 94.2023 61.7724C94.5794 61.7002 94.9687 61.7091 95.3416 61.7985C95.7145 61.8879 96.0616 62.0556 96.3573 62.2891C96.653 62.5226 96.8897 62.816 97.0502 63.1478L105.854 79.8602L102.725 102.358L58.7793 78.2918L61.644 58.6547Z" fill="#BA68C8"/>
<path d="M101.432 50.5813C99.3666 49.45 97.4364 50.2213 97.1249 52.2975C96.8134 54.3737 98.2424 56.9834 100.328 58.1276C102.414 59.2718 104.351 58.5068 104.642 56.4178C104.933 54.3287 103.498 51.7126 101.432 50.5813Z" fill="#BA68C8"/>
<path d="M66.3172 26.5411L58.8202 78.3175L56.7478 79.4616L64.2516 25.3969L66.3172 26.5411Z" fill="#E0E0E0"/>
<path d="M58.8202 78.3174L102.766 102.383L102.475 104.511L56.7478 79.4616L58.8202 78.3174Z" fill="#EBEBEB"/>
<path d="M94.233 114.307L91.9033 115.586L100.172 56.3792L102.509 55.1001L94.233 114.307Z" fill="#E0E0E0"/>
<path d="M91.9035 115.586L42.0044 88.2549L50.2803 29.0479L100.173 56.3792L91.9035 115.586Z" fill="#FAFAFA"/>
<path d="M102.509 55.1L100.172 56.3792L50.28 29.0479L52.6436 27.7495L102.509 55.1Z" fill="#EBEBEB"/>
<path d="M97.5652 57.2663L51.8378 32.2233L44.334 86.3202L90.0613 111.337L97.5652 57.2663Z" fill="#BA68C8"/>
<path opacity="0.8" d="M97.5652 57.2663L51.8378 32.2233L44.334 86.3202L90.0613 111.337L97.5652 57.2663Z" fill="white"/>
<path d="M49.2374 65.4811L60.9672 54.933C62.1931 53.8274 63.6356 54.168 64.1774 55.685L72.5887 79.1981C72.6291 79.323 72.717 79.4291 72.8352 79.496C72.9534 79.5629 73.0935 79.5858 73.2285 79.5602C73.3634 79.5345 73.4835 79.4623 73.5655 79.3574C73.6475 79.2525 73.6856 79.1224 73.6723 78.9924L73.3066 74.0366L80.8172 69.0421C81.1235 68.8211 81.4784 68.6682 81.8554 68.5949C82.2323 68.5216 82.6219 68.5296 82.9952 68.6185C83.3684 68.7074 83.7159 68.8748 84.0118 69.1083C84.3076 69.3419 84.5444 69.6356 84.7046 69.9677L93.5087 86.6802L90.3866 109.178L46.4133 85.1439L49.2374 65.4811Z" fill="#BA68C8"/>
<path d="M89.0178 57.4077C86.9861 56.2764 85.0288 57.0413 84.7105 59.1175C84.3922 61.1937 85.8347 63.8098 87.9206 64.954C90.0066 66.0982 91.9367 65.3268 92.2279 63.2378C92.5191 61.1487 91.0834 58.539 89.0178 57.4077Z" fill="#BA68C8"/>
<path d="M53.91 33.3611L46.4129 85.1439L44.3406 86.2816L51.8376 32.2233L53.91 33.3611Z" fill="#E0E0E0"/>
<path d="M46.4129 85.1439L90.3591 109.203L90.0611 111.337L44.3406 86.2816L46.4129 85.1439Z" fill="#EBEBEB"/>
<path d="M81.8195 121.127L79.4897 122.406L87.7589 63.1992L90.0953 61.92L81.8195 121.127Z" fill="#E0E0E0"/>
<path d="M79.4895 122.406L29.5972 95.0814L37.8663 35.8744L87.7586 63.1992L79.4895 122.406Z" fill="#FAFAFA"/>
<path d="M90.0951 61.9201L87.7586 63.1992L37.8662 35.8744L40.2366 34.576L90.0951 61.9201Z" fill="#EBEBEB"/>
<path d="M85.1513 64.0926L39.4308 39.0433L31.9202 93.1401L77.6475 118.157L85.1513 64.0926Z" fill="#BA68C8"/>
<path opacity="0.8" d="M85.1513 64.0926L39.4308 39.0433L31.9202 93.1401L77.6475 118.157L85.1513 64.0926Z" fill="white"/>
<path d="M36.796 72.3074L48.5529 61.7529C49.7787 60.6537 51.2619 60.9944 51.7698 62.5114L60.1812 86.0245C60.2216 86.1493 60.3094 86.2555 60.4276 86.3224C60.5458 86.3893 60.686 86.4121 60.8209 86.3865C60.9559 86.3609 61.076 86.2886 61.158 86.1838C61.24 86.0789 61.278 85.9488 61.2648 85.8188L60.899 80.8629L68.3487 75.862C68.6554 75.6424 69.0101 75.4909 69.3866 75.4187C69.7632 75.3465 70.152 75.3555 70.5245 75.445C70.8969 75.5344 71.2434 75.7021 71.5385 75.9356C71.8335 76.1691 72.0696 76.4624 72.2293 76.7941L81.0334 93.5065L77.9046 116.004L33.999 91.9638L36.796 72.3074Z" fill="#BA68C8"/>
<path d="M76.6111 64.2598C74.5794 63.1285 72.6154 63.8998 72.3039 65.976C71.9923 68.0522 73.4213 70.6619 75.5072 71.8061C77.5931 72.9502 79.5233 72.1853 79.8212 70.0963C80.1192 68.0072 78.6767 65.3589 76.6111 64.2598Z" fill="#BA68C8"/>
<path d="M41.4964 40.1874L33.9994 91.9638L31.927 93.108L39.4308 39.0433L41.4964 40.1874Z" fill="#E0E0E0"/>
<path d="M33.9994 91.9639L77.9455 116.023L77.6476 118.157L31.927 93.108L33.9994 91.9639Z" fill="#EBEBEB"/>
<path d="M233.332 4.04365V148.214C233.273 149.253 232.957 150.265 232.408 151.166C231.86 152.068 231.095 152.833 230.176 153.401L142.914 201.173C142.601 201.359 142.24 201.457 141.871 201.456C141.734 201.454 141.598 201.439 141.465 201.411C141.371 201.391 141.28 201.361 141.194 201.321L141.031 201.231L140.841 201.115C140.78 201.07 140.721 201.02 140.665 200.967C140.421 200.745 140.225 200.478 140.09 200.183C139.868 199.705 139.755 199.188 139.758 198.666V55.2608C139.817 54.2216 140.134 53.2103 140.682 52.3091C141.231 51.4078 141.995 50.6419 142.914 50.0735L230.176 2.31455C230.482 2.11234 230.834 1.98382 231.204 1.94013C231.573 1.89645 231.948 1.93892 232.296 2.06387C232.393 2.10047 232.485 2.15026 232.567 2.21171C232.647 2.26584 232.717 2.33082 232.777 2.40454C232.812 2.43801 232.844 2.4746 232.872 2.51382C232.914 2.55963 232.949 2.61175 232.973 2.66809C233.053 2.78766 233.115 2.91755 233.156 3.05376C233.196 3.13714 233.221 3.22617 233.231 3.3173C233.235 3.32627 233.238 3.33618 233.238 3.34623C233.238 3.35627 233.235 3.36618 233.231 3.37515C233.257 3.46537 233.273 3.55805 233.278 3.65155C233.304 3.78121 233.322 3.91211 233.332 4.04365Z" fill="#455A64"/>
<path d="M233.325 4.02433C233.325 2.13454 231.91 1.36962 230.176 2.32095L142.914 50.0542C141.989 50.6231 141.22 51.3913 140.668 52.2961C140.116 53.2009 139.797 54.2168 139.737 55.2608V65.0311L233.325 13.8525V4.02433Z" fill="#BA68C8"/>
<path opacity="0.15" d="M135.721 62.8007V53.0689C135.764 52.0083 136.095 50.9763 136.683 50.0735L140.699 52.2654C140.106 53.166 139.774 54.1994 139.737 55.2608V65.0312L135.721 62.8007Z" fill="black"/>
<path d="M214.329 15.1702C213.347 15.7101 212.547 17.3171 212.547 18.7505C212.547 20.1839 213.347 20.9231 214.329 20.3832C215.311 19.8432 216.11 18.2362 216.11 16.8028C216.11 15.3694 215.311 14.6302 214.329 15.1702Z" fill="#455A64"/>
<path d="M220.742 11.6478C219.76 12.1877 218.961 13.7947 218.961 15.2281C218.961 16.6615 219.76 17.4007 220.742 16.8608C221.724 16.3208 222.523 14.7138 222.523 13.2804C222.523 11.847 221.731 11.1078 220.742 11.6478Z" fill="#455A64"/>
<path d="M227.162 8.12527C226.174 8.66521 225.381 10.2722 225.381 11.7056C225.381 13.139 226.174 13.8782 227.162 13.3383C228.151 12.7983 228.944 11.1914 228.944 9.75795C228.944 8.32454 228.144 7.59176 227.162 8.12527Z" fill="#455A64"/>
<path d="M140.916 201.173C140.801 201.103 140.665 201.032 140.523 200.955C140.232 200.788 139.9 200.608 139.548 200.434L139.019 200.151H138.979C138.688 199.997 138.41 199.836 138.146 199.701L137.469 199.328C137.342 199.253 137.21 199.185 137.076 199.123C136.869 199.017 136.685 198.876 136.534 198.705C136.36 198.526 136.219 198.322 136.114 198.101C135.87 197.604 135.745 197.061 135.748 196.513V62.8136L139.737 65.0312V198.679C139.751 199.2 139.864 199.714 140.069 200.196C140.204 200.491 140.4 200.758 140.645 200.98C140.692 201.041 140.752 201.091 140.821 201.128C140.849 201.149 140.881 201.165 140.916 201.173Z" fill="#37474F"/>
<path d="M147.505 73.1623C147.51 72.9661 147.566 72.7739 147.668 72.6031L149.937 68.1486C149.958 68.0981 149.993 68.0538 150.038 68.0201C150.038 68.0201 150.086 67.9815 150.099 67.9815C150.123 67.9602 150.155 67.9484 150.187 67.9484C150.22 67.9484 150.251 67.9602 150.275 67.9815C150.302 68.0113 150.323 68.0461 150.336 68.0836C150.349 68.1211 150.353 68.1607 150.35 68.2V69.6913C150.355 69.8469 150.339 70.0024 150.302 70.1541C150.267 70.2972 150.212 70.4354 150.14 70.5655L148.948 72.9181L150.14 73.9594C150.215 74.0213 150.271 74.1012 150.302 74.1908C150.341 74.3246 150.357 74.4635 150.35 74.6022V76.0999C150.348 76.2044 150.322 76.3074 150.275 76.402C150.239 76.4852 150.178 76.5566 150.099 76.6077H150.038C150.022 76.615 150.005 76.6189 149.987 76.6189C149.97 76.6189 149.952 76.615 149.937 76.6077L147.668 74.6343C147.61 74.5889 147.565 74.5304 147.536 74.4642C147.508 74.398 147.497 74.3261 147.505 74.2551V73.1623Z" fill="#BA68C8"/>
<path d="M155.802 61.9908C155.843 61.8395 155.902 61.6929 155.978 61.5537C156.047 61.4092 156.163 61.2898 156.309 61.213L157.163 60.7438C157.187 60.7238 157.219 60.7129 157.251 60.7129C157.283 60.7129 157.314 60.7238 157.339 60.7438C157.392 60.8048 157.419 60.8831 157.413 60.9623C157.419 61.0179 157.419 61.0738 157.413 61.1294L153.519 76.8584C153.485 77.0053 153.433 77.1477 153.363 77.2826C153.288 77.4321 153.168 77.5572 153.018 77.6426L152.199 78.0926C152.174 78.1125 152.143 78.1234 152.111 78.1234C152.078 78.1234 152.047 78.1125 152.023 78.0926C151.995 78.0631 151.974 78.0284 151.961 77.9908C151.948 77.9531 151.944 77.9133 151.948 77.874C151.942 77.8184 151.942 77.7625 151.948 77.7069L155.802 61.9908Z" fill="#BA68C8"/>
<path d="M161.822 66.4323C161.818 66.6286 161.762 66.8208 161.66 66.9916L159.377 71.4461C159.353 71.4952 159.319 71.539 159.276 71.5746C159.242 71.5746 159.228 71.6132 159.215 71.6132C159.19 71.6331 159.159 71.6441 159.127 71.6441C159.095 71.6441 159.063 71.6331 159.039 71.6132C158.985 71.5496 158.959 71.4694 158.964 71.3882V69.897C158.959 69.7414 158.975 69.5858 159.012 69.4342C159.047 69.2911 159.102 69.1528 159.174 69.0228L160.366 66.6702L159.174 65.6289C159.099 65.5669 159.043 65.487 159.012 65.3975C158.973 65.2637 158.957 65.1247 158.964 64.9861V63.4884C158.966 63.3838 158.992 63.2808 159.039 63.1863C159.075 63.1031 159.137 63.0317 159.215 62.9806H159.276C159.309 62.9687 159.345 62.9687 159.377 62.9806L161.646 64.9539C161.704 64.9994 161.75 65.0578 161.778 65.1241C161.806 65.1903 161.817 65.2621 161.809 65.3332L161.822 66.4323Z" fill="#BA68C8"/>
<path d="M168.127 65.3976C168.158 65.3735 168.196 65.3604 168.236 65.3604C168.275 65.3604 168.314 65.3735 168.344 65.3976C168.378 65.4343 168.404 65.4771 168.42 65.5235C168.437 65.5698 168.443 65.6188 168.439 65.6675V67.3131C168.437 67.4425 168.405 67.57 168.344 67.6859C168.3 67.7881 168.224 67.8755 168.127 67.9366L167.057 68.5279C167.026 68.5537 166.987 68.5679 166.946 68.5679C166.904 68.5679 166.865 68.5537 166.834 68.5279C166.801 68.4923 166.776 68.4504 166.76 68.405C166.745 68.3596 166.74 68.3117 166.746 68.2644V66.6124C166.746 66.4856 166.776 66.3603 166.834 66.246C166.878 66.1403 166.956 66.0505 167.057 65.9889L168.127 65.3976Z" fill="#BA68C8"/>
<path d="M171.703 63.437C171.733 63.4117 171.771 63.3977 171.811 63.3977C171.851 63.3977 171.89 63.4117 171.92 63.437C171.955 63.4728 171.982 63.5155 171.998 63.5621C172.015 63.6087 172.02 63.6581 172.015 63.707V65.3525C172.016 65.4823 171.984 65.6105 171.92 65.7253C171.877 65.8286 171.802 65.9165 171.703 65.976L170.633 66.5674C170.603 66.5926 170.565 66.6066 170.525 66.6066C170.485 66.6066 170.446 66.5926 170.416 66.5674C170.381 66.5313 170.355 66.4885 170.338 66.442C170.322 66.3955 170.316 66.3462 170.321 66.2974V64.6454C170.324 64.5181 170.356 64.3929 170.416 64.279C170.459 64.174 170.534 64.0841 170.633 64.0219L171.703 63.437Z" fill="#BA68C8"/>
<path d="M175.279 61.4765C175.31 61.4507 175.35 61.4365 175.391 61.4365C175.432 61.4365 175.472 61.4507 175.502 61.4765C175.535 61.5137 175.56 61.5568 175.575 61.6031C175.59 61.6494 175.595 61.6982 175.591 61.7465V63.392C175.591 63.521 175.561 63.6484 175.502 63.7648C175.458 63.8688 175.38 63.9567 175.279 64.0155L174.209 64.6069C174.179 64.6322 174.141 64.6461 174.101 64.6461C174.061 64.6461 174.022 64.6322 173.992 64.6069C173.958 64.5702 173.933 64.5273 173.918 64.4808C173.903 64.4343 173.898 64.3852 173.904 64.3369V62.6914C173.904 62.5645 173.934 62.4392 173.992 62.325C174.035 62.2199 174.11 62.1301 174.209 62.0679L175.279 61.4765Z" fill="#BA68C8"/>
<path d="M148.46 85.1761L200.892 56.45C201.509 56.1093 202.016 56.3471 202.016 56.9835C201.988 57.341 201.871 57.6871 201.676 57.9941C201.48 58.3011 201.212 58.5603 200.892 58.7511L148.46 87.4837C147.844 87.8243 147.343 87.5801 147.343 86.9437C147.37 86.5867 147.486 86.2407 147.68 85.9337C147.874 85.6267 148.141 85.3672 148.46 85.1761Z" fill="#BA68C8"/>
<path d="M165.283 103.618L217.715 74.885C218.332 74.5444 218.839 74.7886 218.839 75.425C218.811 75.7818 218.695 76.1272 218.499 76.4332C218.304 76.7392 218.035 76.9972 217.715 77.1862L165.283 105.919C164.667 106.259 164.166 106.015 164.166 105.379C164.193 105.022 164.308 104.677 164.502 104.371C164.696 104.065 164.964 103.807 165.283 103.618Z" fill="white"/>
<path d="M165.283 122.053L190.382 108.31C190.998 107.969 191.499 108.214 191.499 108.85C191.472 109.207 191.356 109.553 191.162 109.86C190.968 110.167 190.701 110.426 190.382 110.618L165.283 124.354C164.667 124.695 164.166 124.457 164.166 123.82C164.193 123.463 164.309 123.117 164.503 122.81C164.697 122.503 164.964 122.244 165.283 122.053Z" fill="#E0E0E0"/>
<path d="M205.24 54.0652L226.126 42.5786C226.742 42.2379 227.244 42.4822 227.244 43.1185C227.216 43.4749 227.101 43.8201 226.907 44.1261C226.713 44.4322 226.445 44.6904 226.126 44.8797L205.24 56.3728C204.617 56.7134 204.116 56.4692 204.116 55.8328C204.144 55.475 204.26 55.1285 204.455 54.8214C204.65 54.5143 204.919 54.2552 205.24 54.0652Z" fill="#BA68C8"/>
<path d="M148.46 186.569L200.892 157.837C201.509 157.502 202.016 157.74 202.016 158.377C201.988 158.734 201.871 159.08 201.676 159.387C201.48 159.694 201.212 159.953 200.892 160.144L148.46 188.877C147.844 189.211 147.343 188.973 147.343 188.337C147.37 187.98 147.486 187.634 147.68 187.327C147.874 187.02 148.141 186.76 148.46 186.569Z" fill="#BA68C8"/>
<path d="M205.24 155.458L226.126 143.965C226.742 143.625 227.244 143.862 227.244 144.499C227.216 144.856 227.1 145.202 226.906 145.509C226.712 145.816 226.445 146.075 226.126 146.266L205.24 157.753C204.617 158.094 204.116 157.856 204.116 157.219C204.145 156.863 204.261 156.518 204.457 156.212C204.652 155.906 204.92 155.648 205.24 155.458Z" fill="#BA68C8"/>
<path d="M205.24 127.851L226.126 116.364C226.742 116.023 227.244 116.268 227.244 116.904C227.216 117.261 227.1 117.607 226.906 117.914C226.712 118.221 226.445 118.48 226.126 118.672L205.24 130.158C204.617 130.499 204.116 130.255 204.116 129.618C204.144 129.26 204.26 128.914 204.455 128.607C204.65 128.3 204.919 128.041 205.24 127.851Z" fill="#BA68C8"/>
<path d="M205.24 137.068L226.126 125.582C226.742 125.241 227.244 125.479 227.244 126.115C227.216 126.472 227.1 126.818 226.906 127.125C226.712 127.432 226.445 127.692 226.126 127.883L205.24 139.376C204.617 139.71 204.116 139.472 204.116 138.836C204.144 138.478 204.26 138.132 204.455 137.824C204.65 137.517 204.919 137.258 205.24 137.068Z" fill="#BA68C8"/>
<path d="M187.429 137.582L199.159 131.154C199.782 130.814 200.283 131.058 200.283 131.694C200.255 132.052 200.139 132.399 199.944 132.706C199.748 133.013 199.48 133.272 199.159 133.462L187.429 139.89C186.806 140.231 186.305 139.986 186.305 139.35C186.333 138.992 186.449 138.646 186.644 138.339C186.84 138.031 187.109 137.772 187.429 137.582Z" fill="#BA68C8"/>
<path d="M148.46 94.4192L179.017 77.649C179.634 77.3083 180.135 77.5525 180.135 78.1825C180.108 78.5397 179.992 78.8858 179.798 79.1929C179.604 79.5 179.337 79.7594 179.017 79.9501L148.46 96.7204C147.844 97.0611 147.343 96.8232 147.343 96.1869C147.37 95.8298 147.486 95.4839 147.68 95.1769C147.874 94.8699 148.141 94.6104 148.46 94.4192Z" fill="#BA68C8"/>
<path opacity="0.6" d="M148.46 94.4192L179.017 77.649C179.634 77.3083 180.135 77.5525 180.135 78.1825C180.108 78.5397 179.992 78.8858 179.798 79.1929C179.604 79.5 179.337 79.7594 179.017 79.9501L148.46 96.7204C147.844 97.0611 147.343 96.8232 147.343 96.1869C147.37 95.8298 147.486 95.4839 147.68 95.1769C147.874 94.8699 148.141 94.6104 148.46 94.4192Z" fill="white"/>
<path d="M148.46 103.618L158.836 97.9289C159.459 97.5882 159.96 97.8261 159.96 98.4624C159.936 98.8247 159.822 99.1763 159.626 99.4882C159.431 99.8001 159.16 100.063 158.836 100.256L148.46 105.951C147.844 106.285 147.343 106.047 147.343 105.411C147.366 105.049 147.48 104.698 147.674 104.387C147.868 104.075 148.138 103.811 148.46 103.618Z" fill="#BA68C8"/>
<path opacity="0.6" d="M148.46 103.618L158.836 97.9289C159.459 97.5882 159.96 97.8261 159.96 98.4624C159.936 98.8247 159.822 99.1763 159.626 99.4882C159.431 99.8001 159.16 100.063 158.836 100.256L148.46 105.951C147.844 106.285 147.343 106.047 147.343 105.411C147.366 105.049 147.48 104.698 147.674 104.387C147.868 104.075 148.138 103.811 148.46 103.618Z" fill="white"/>
<path d="M148.46 112.835L158.836 107.146C159.459 106.806 159.96 107.044 159.96 107.68C159.932 108.038 159.816 108.384 159.62 108.691C159.425 108.999 159.156 109.258 158.836 109.448L148.46 115.143C147.844 115.483 147.343 115.239 147.343 114.603C147.37 114.246 147.486 113.9 147.68 113.593C147.874 113.286 148.141 113.026 148.46 112.835Z" fill="#BA68C8"/>
<path opacity="0.6" d="M148.46 112.835L158.836 107.146C159.459 106.806 159.96 107.044 159.96 107.68C159.932 108.038 159.816 108.384 159.62 108.691C159.425 108.999 159.156 109.258 158.836 109.448L148.46 115.143C147.844 115.483 147.343 115.239 147.343 114.603C147.37 114.246 147.486 113.9 147.68 113.593C147.874 113.286 148.141 113.026 148.46 112.835Z" fill="white"/>
<path d="M148.46 122.053L158.836 116.364C159.459 116.023 159.96 116.261 159.96 116.898C159.932 117.255 159.816 117.602 159.62 117.909C159.425 118.216 159.156 118.475 158.836 118.665L148.46 124.36C147.844 124.701 147.343 124.457 147.343 123.82C147.37 123.463 147.486 123.117 147.68 122.81C147.874 122.503 148.141 122.244 148.46 122.053Z" fill="#BA68C8"/>
<path opacity="0.6" d="M148.46 122.053L158.836 116.358C159.459 116.017 159.96 116.261 159.96 116.898C159.932 117.255 159.816 117.602 159.62 117.909C159.425 118.216 159.156 118.475 158.836 118.665L148.46 124.354C147.844 124.695 147.343 124.457 147.343 123.82C147.37 123.463 147.486 123.117 147.68 122.81C147.874 122.503 148.141 122.244 148.46 122.053Z" fill="white"/>
<path d="M165.283 112.835L195.867 96.0648C196.484 95.7241 196.985 95.9619 196.985 96.5983C196.957 96.9554 196.842 97.3013 196.648 97.6083C196.454 97.9153 196.186 98.1748 195.867 98.3659L165.283 115.136C164.667 115.477 164.166 115.239 164.166 114.603C164.193 114.246 164.308 113.899 164.502 113.592C164.696 113.285 164.964 113.026 165.283 112.835Z" fill="#BA68C8"/>
<path d="M200.208 93.6801L213.509 86.4166C214.126 86.0759 214.627 86.3202 214.627 86.9565C214.599 87.3136 214.484 87.6595 214.29 87.9665C214.096 88.2736 213.828 88.5331 213.509 88.7242L200.208 95.9877C199.592 96.3283 199.091 96.0841 199.091 95.4477C199.118 95.0907 199.234 94.7447 199.428 94.4377C199.622 94.1307 199.889 93.8712 200.208 93.6801Z" fill="#BA68C8"/>
<path d="M148.46 131.27L158.836 125.582C159.459 125.241 159.96 125.479 159.96 126.115C159.934 126.475 159.819 126.824 159.623 127.134C159.428 127.443 159.158 127.704 158.836 127.896L148.46 133.591C147.844 133.931 147.343 133.687 147.343 133.051C147.368 132.691 147.483 132.343 147.677 132.034C147.871 131.724 148.139 131.463 148.46 131.27Z" fill="#BA68C8"/>
<path opacity="0.6" d="M148.46 131.27L158.836 125.582C159.459 125.241 159.96 125.479 159.96 126.115C159.934 126.475 159.819 126.824 159.623 127.134C159.428 127.443 159.158 127.704 158.836 127.896L148.46 133.591C147.844 133.931 147.343 133.687 147.343 133.051C147.368 132.691 147.483 132.343 147.677 132.034C147.871 131.724 148.139 131.463 148.46 131.27Z" fill="white"/>
<path d="M183.386 75.2642L196.687 68.0007C197.303 67.6665 197.811 67.9043 197.811 68.5407C197.782 68.8982 197.665 69.2443 197.47 69.5513C197.275 69.8583 197.007 70.1175 196.687 70.3083L183.386 77.5718C182.769 77.9125 182.268 77.6682 182.268 77.0319C182.296 76.6748 182.411 76.3288 182.605 76.0218C182.8 75.7148 183.067 75.4553 183.386 75.2642Z" fill="#BA68C8"/>
<path opacity="0.6" d="M183.386 75.2642L196.687 68.0007C197.303 67.6665 197.811 67.9043 197.811 68.5407C197.782 68.8982 197.665 69.2443 197.47 69.5513C197.275 69.8583 197.007 70.1175 196.687 70.3083L183.386 77.5718C182.769 77.9125 182.268 77.6682 182.268 77.0319C182.296 76.6748 182.411 76.3288 182.605 76.0218C182.8 75.7148 183.067 75.4553 183.386 75.2642Z" fill="white"/>
<path d="M177.9 124.341L208.484 107.571C209.101 107.23 209.602 107.474 209.602 108.111C209.574 108.468 209.459 108.814 209.265 109.121C209.071 109.428 208.803 109.687 208.484 109.878L177.9 126.649C177.284 126.983 176.783 126.745 176.783 126.109C176.81 125.752 176.926 125.406 177.12 125.099C177.314 124.792 177.581 124.532 177.9 124.341Z" fill="#E0E0E0"/>
<path d="M195.542 123.93L226.126 107.159C226.743 106.819 227.251 107.063 227.251 107.699C227.222 108.056 227.106 108.401 226.911 108.707C226.715 109.013 226.447 109.271 226.126 109.46L195.542 126.231C194.926 126.571 194.425 126.334 194.425 125.697C194.452 125.34 194.568 124.994 194.762 124.687C194.956 124.38 195.223 124.121 195.542 123.93Z" fill="white"/>
<path d="M212.825 105.192L226.126 97.9289C226.743 97.5882 227.244 97.8261 227.244 98.4624C227.216 98.8195 227.101 99.1654 226.907 99.4724C226.713 99.7794 226.445 100.039 226.126 100.23L212.825 107.494C212.209 107.834 211.708 107.596 211.708 106.96C211.735 106.603 211.85 106.257 212.044 105.95C212.239 105.643 212.506 105.383 212.825 105.192Z" fill="#E0E0E0"/>
<path d="M212.825 141.703L226.126 134.439C226.743 134.098 227.244 134.336 227.244 134.973C227.216 135.33 227.101 135.676 226.907 135.983C226.713 136.29 226.445 136.549 226.126 136.74L212.825 144.004C212.209 144.344 211.708 144.1 211.708 143.464C211.735 143.107 211.85 142.762 212.045 142.456C212.239 142.15 212.506 141.892 212.825 141.703Z" fill="#E0E0E0"/>
<path d="M165.283 94.3999L195.867 77.6297C196.484 77.289 196.985 77.5332 196.985 78.1696C196.957 78.5267 196.842 78.8726 196.648 79.1796C196.454 79.4866 196.186 79.7461 195.867 79.9373L165.283 96.7075C164.667 97.0418 164.166 96.804 164.166 96.1676C164.193 95.8105 164.309 95.4646 164.503 95.1576C164.697 94.8506 164.964 94.5911 165.283 94.3999Z" fill="#BA68C8"/>
<path opacity="0.6" d="M165.283 94.3999L195.867 77.6297C196.484 77.289 196.985 77.5332 196.985 78.1696C196.957 78.5267 196.842 78.8726 196.648 79.1796C196.454 79.4866 196.186 79.7461 195.867 79.9373L165.283 96.7075C164.667 97.0418 164.166 96.804 164.166 96.1676C164.193 95.8105 164.309 95.4646 164.503 95.1576C164.697 94.8506 164.964 94.5911 165.283 94.3999Z" fill="white"/>
<path d="M200.208 75.2513L213.509 67.9879C214.126 67.6472 214.627 67.885 214.627 68.5214C214.599 68.8784 214.484 69.2244 214.29 69.5314C214.096 69.8384 213.828 70.0979 213.509 70.289L200.208 77.5525C199.592 77.8932 199.091 77.6554 199.091 77.019C199.117 76.6616 199.232 76.315 199.426 76.0078C199.62 75.7005 199.888 75.4413 200.208 75.2513Z" fill="#BA68C8"/>
<path opacity="0.6" d="M200.208 75.2513L213.509 67.9879C214.126 67.6472 214.627 67.885 214.627 68.5214C214.599 68.8784 214.484 69.2244 214.29 69.5314C214.096 69.8384 213.828 70.0979 213.509 70.289L200.208 77.5525C199.592 77.8932 199.091 77.6554 199.091 77.019C199.117 76.6616 199.232 76.315 199.426 76.0078C199.62 75.7005 199.888 75.4413 200.208 75.2513Z" fill="white"/>
<path opacity="0.6" d="M165.283 112.835L195.867 96.0648C196.484 95.7241 196.985 95.9619 196.985 96.5983C196.957 96.9554 196.842 97.3013 196.648 97.6083C196.454 97.9153 196.186 98.1748 195.867 98.3659L165.283 115.136C164.667 115.477 164.166 115.239 164.166 114.603C164.193 114.246 164.308 113.899 164.502 113.592C164.696 113.285 164.964 113.026 165.283 112.835Z" fill="white"/>
<path opacity="0.6" d="M200.208 93.6801L213.509 86.4166C214.126 86.0759 214.627 86.3202 214.627 86.9565C214.599 87.3136 214.484 87.6595 214.29 87.9665C214.096 88.2736 213.828 88.5331 213.509 88.7242L200.208 95.9877C199.592 96.3283 199.091 96.0841 199.091 95.4477C199.118 95.0907 199.234 94.7447 199.428 94.4377C199.622 94.1307 199.889 93.8712 200.208 93.6801Z" fill="white"/>
<path d="M269.693 16.0509L262.399 20.0169L255.065 19.3741C254.979 19.3669 254.893 19.3802 254.814 19.4127C255.403 19.0848 261.797 15.6138 262.061 15.4788C262.152 15.4266 262.26 15.4061 262.365 15.421L269.693 16.0509Z" fill="#BA68C8"/>
<path opacity="0.5" d="M269.693 16.0509L262.399 20.0169L255.065 19.3741C254.979 19.3669 254.893 19.3802 254.814 19.4127C255.403 19.0848 261.797 15.6138 262.061 15.4788C262.152 15.4266 262.26 15.4061 262.365 15.421L269.693 16.0509Z" fill="white"/>
<path d="M292.36 17.4393L265.988 2.98303L260.746 5.87557L262.676 43.0157L273.932 55.6658L285.188 55.3508L290.43 52.4583L292.36 17.4393Z" fill="#BA68C8"/>
<path opacity="0.5" d="M292.36 17.4393L287.125 20.3318L260.746 5.87557L265.988 2.98303L292.36 17.4393Z" fill="white"/>
<path opacity="0.15" d="M292.36 17.4393L287.125 20.3319L285.188 55.3508L290.43 52.4583L292.36 17.4393Z" fill="black"/>
<path d="M260.747 5.87555L261.478 19.9397L255.071 19.4062C254.963 19.3981 254.856 19.4208 254.761 19.4715C254.667 19.5221 254.591 19.5983 254.543 19.6902C254.495 19.7822 254.477 19.8857 254.492 19.9874C254.506 20.0892 254.552 20.1845 254.624 20.2611L261.884 27.7238L262.677 43.0479L273.932 55.6979L285.188 55.3829L287.125 20.3639L260.747 5.87555Z" fill="#BA68C8"/>
<path opacity="0.5" d="M273.932 16.7258L284.416 22.4658L282.872 51.2755L273.932 51.9054V16.7258Z" fill="white"/>
<path d="M281.924 23.9314L280.82 47.5281L273.932 47.9009L267.051 39.9818L266.699 33.3161L269.192 34.6788L269.395 38.6577L273.932 44.0506L278.47 43.6264L279.242 26.0848L266.144 18.9049L265.948 15.1767L281.924 23.9314Z" fill="white"/>
<path d="M269.693 75.3543L262.399 79.3203L255.065 78.6775C254.98 78.6715 254.894 78.6824 254.814 78.7096C255.403 78.3818 261.797 74.9108 262.061 74.7758C262.153 74.7268 262.26 74.7065 262.365 74.7179L269.693 75.3543Z" fill="#BA68C8"/>
<path d="M292.36 76.7427L265.988 62.2864L260.746 65.179L262.676 102.319L273.932 114.969L285.188 114.654L290.43 111.762L292.36 76.7427Z" fill="#BA68C8"/>
<path opacity="0.35" d="M292.36 76.7427L287.125 79.6288L285.188 114.654L290.43 111.762L292.36 76.7427Z" fill="black"/>
<path d="M260.747 65.179L261.478 79.2367L255.071 78.7097C254.963 78.7016 254.856 78.7243 254.761 78.7749C254.667 78.8256 254.591 78.9018 254.543 78.9937C254.495 79.0857 254.477 79.1892 254.492 79.2909C254.506 79.3926 254.552 79.488 254.624 79.5646L261.884 87.0273L262.677 102.319L273.932 114.969L285.188 114.654L287.125 79.6288L260.747 65.179Z" fill="#BA68C8"/>
<path opacity="0.25" d="M260.747 65.179L261.478 79.2367L255.071 78.7097C254.963 78.7016 254.856 78.7243 254.761 78.7749C254.667 78.8256 254.591 78.9018 254.543 78.9937C254.495 79.0857 254.477 79.1892 254.492 79.2909C254.506 79.3926 254.552 79.488 254.624 79.5646L261.884 87.0273L262.677 102.319L273.932 114.969L285.188 114.654L287.125 79.6288L260.747 65.179Z" fill="black"/>
<path opacity="0.7" d="M273.932 76.0228L284.416 81.7693L282.872 110.573L273.932 111.209V76.0228Z" fill="#BA68C8"/>
<path d="M265.948 74.4801L266.11 78.189L279.242 85.3818L278.923 92.6967L266.455 85.8638L266.618 89.5727L278.768 96.232L278.47 102.93L273.932 103.354L269.395 97.9546L269.192 93.9822L266.699 92.6195L267.051 99.2852L273.932 107.204L280.82 106.832L281.924 83.2284L265.948 74.4801Z" fill="white"/>
<path d="M292.36 136.033L265.988 121.583L260.746 124.47L262.676 161.61L273.932 174.26L285.188 173.945L290.43 171.052L292.36 136.033Z" fill="#BA68C8"/>
<path opacity="0.25" d="M292.36 136.033L287.125 138.926L260.746 124.47L265.988 121.583L292.36 136.033Z" fill="black"/>
<path opacity="0.55" d="M292.36 136.033L287.125 138.926L285.188 173.945L290.43 171.052L292.36 136.033Z" fill="black"/>
<path d="M269.693 134.645L262.399 138.611L255.065 138C254.979 137.993 254.893 138.006 254.814 138.039C255.403 137.711 261.797 134.234 262.061 134.099C262.155 134.052 262.26 134.032 262.365 134.041L269.693 134.645Z" fill="#BA68C8"/>
<path opacity="0.25" d="M269.693 134.645L262.399 138.611L255.065 138C254.979 137.993 254.893 138.006 254.814 138.039C255.403 137.711 261.797 134.234 262.061 134.099C262.155 134.052 262.26 134.032 262.365 134.041L269.693 134.645Z" fill="black"/>
<path d="M260.747 124.47L261.478 138.534L255.071 138C254.963 137.992 254.856 138.015 254.761 138.066C254.667 138.116 254.591 138.192 254.543 138.284C254.495 138.376 254.477 138.48 254.492 138.581C254.506 138.683 254.552 138.779 254.624 138.855L261.884 146.318L262.677 161.61L273.932 174.26L285.188 173.945L287.125 138.926L260.747 124.47Z" fill="#BA68C8"/>
<path opacity="0.4" d="M260.747 124.47L261.478 138.534L255.071 138C254.963 137.992 254.856 138.015 254.761 138.066C254.667 138.116 254.591 138.192 254.543 138.284C254.495 138.376 254.477 138.48 254.492 138.581C254.506 138.683 254.552 138.779 254.624 138.855L261.884 146.318L262.677 161.61L273.932 174.26L285.188 173.945L287.125 138.926L260.747 124.47Z" fill="black"/>
<path opacity="0.5" d="M273.932 135.32L284.416 141.06L282.872 169.87L273.932 170.499V135.32Z" fill="#BA68C8"/>
<path d="M281.924 142.525L265.948 133.771L266.618 148.87L278.768 155.523L278.47 162.227L273.932 162.645L269.395 157.252L269.192 153.273L266.699 151.91L267.051 158.582L273.932 166.495L280.82 166.122L281.409 153.35L268.948 146.524L268.623 138.862L281.727 146.041L281.924 142.525Z" fill="white"/>
<path d="M154.847 210.931C152.95 216.304 151.325 223.246 148.752 233.705C146.347 243.501 146.334 250.417 149.673 252.795C153.011 255.174 162.581 253.721 168.635 241.482C170.532 237.626 177.663 225.83 177.663 225.83C177.663 225.83 182.945 224.024 184.767 222.668C184.767 222.668 202.375 223.156 210.936 221.492C219.496 219.827 228.598 209.921 225.09 208.932C218.792 207.17 202.01 206.502 187.794 205.634L154.847 210.931Z" fill="#37474F"/>
<path d="M202.551 219.396C198.698 220.245 192.989 219.113 189.772 218.226C189.964 217.159 189.927 216.066 189.664 215.012C189.485 216.445 188.998 217.827 188.235 219.075C187.706 219.358 187.259 219.595 186.934 219.756C184.794 220.791 178.916 223.645 177.825 222.745C176.185 220.733 173.853 219.33 171.236 218.779C173.078 219.955 178.415 223.587 176.518 227.778L177.676 225.85C177.676 225.85 182.959 224.043 184.781 222.687C184.781 222.687 194.635 222.957 203.175 222.404L213.333 215.739C213.333 215.739 208.457 215.449 202.551 219.396Z" fill="#263238"/>
<path d="M192.677 230.799C191.393 231.995 189.822 232.877 188.099 233.37C187.533 233.489 186.946 233.489 186.379 233.37C184.401 232.978 181.232 232.985 180.121 236.732C178.868 240.981 173.864 242.999 172.529 245.911C171.852 247.364 171.514 251.574 172.164 254.164C172.706 256.286 177.033 254.711 178.638 252.12C180.243 249.53 183.684 246.117 185.952 244.15C189.643 242.176 193.741 239.284 195.488 238.12L192.677 230.799Z" fill="#F28F8F"/>
<path d="M218.71 207.485C230.068 208.205 230.454 213.913 227.616 218.258C224.562 222.919 213.394 229.186 207.299 232.503C201.739 235.543 192.25 240.929 192.25 240.929C192.25 240.929 187.449 237.368 188.072 233.364C194.357 229.205 202.822 217.365 213.299 215.719L218.71 207.485Z" fill="#263238"/>
<path d="M173.877 255.469C173.223 255.562 172.557 255.415 172.014 255.058C171.506 254.717 170.382 251.715 171.337 248.077C172.036 245.376 173.486 242.903 175.536 240.917C176.775 239.67 177.222 238.236 177.669 236.417C178.116 234.598 179.511 232.368 180.48 232.117C181.448 231.866 182.918 232.58 182.918 232.58L173.877 255.469Z" fill="#263238"/>
<path d="M188.851 242.614C188.614 243.771 187.611 244.066 186.535 244.471C185.065 245.024 183.67 246.464 182.342 248.071C181.442 249.163 180.697 250.256 179.877 251.4C179.058 252.545 178.367 254.197 177.487 255.071C176.193 256.356 173.579 256.112 172.861 254.293C172.238 252.725 171.974 248.829 173.857 245.101C174.886 243.063 177.73 241.09 178.475 238.32C178.97 236.468 179.654 234.264 181.09 232.856C181.943 232.02 182.722 232.213 183.799 232.509C185.214 232.88 186.652 233.165 188.106 233.364C188.074 234.506 187.711 235.619 187.056 236.578C186.797 236.883 186.613 237.239 186.514 237.619C186.488 237.883 186.514 238.148 186.589 238.403C186.67 238.763 186.805 239.181 187.178 239.284C187.333 239.304 187.489 239.315 187.645 239.316C188.228 239.387 188.512 240.023 188.661 240.563C188.851 241.143 188.931 241.75 188.898 242.356C188.888 242.443 188.872 242.529 188.851 242.614Z" fill="#BA68C8"/>
<path opacity="0.4" d="M188.851 242.614C188.614 243.771 187.611 244.066 186.535 244.471C185.065 245.024 183.67 246.464 182.342 248.071C181.442 249.163 180.697 250.256 179.877 251.4C179.058 252.545 178.367 254.197 177.487 255.071C176.193 256.356 173.579 256.112 172.861 254.293C172.238 252.725 171.974 248.829 173.857 245.101C174.886 243.063 177.73 241.09 178.475 238.32C178.97 236.468 179.654 234.264 181.09 232.856C181.943 232.02 182.722 232.213 183.799 232.509C185.214 232.88 186.652 233.165 188.106 233.364C188.074 234.506 187.711 235.619 187.056 236.578C186.797 236.883 186.613 237.239 186.514 237.619C186.488 237.883 186.514 238.148 186.589 238.403C186.67 238.763 186.805 239.181 187.178 239.284C187.333 239.304 187.489 239.315 187.645 239.316C188.228 239.387 188.512 240.023 188.661 240.563C188.851 241.143 188.931 241.75 188.898 242.356C188.888 242.443 188.872 242.529 188.851 242.614Z" fill="black"/>
<path d="M183.67 246.573C183.952 246.488 184.207 246.337 184.412 246.133C184.617 245.93 184.764 245.681 184.841 245.41C185.146 244.625 184.78 243.083 184.164 242.067C184.114 241.964 184.036 241.876 183.938 241.811C183.841 241.746 183.727 241.706 183.608 241.696C183.489 241.687 183.369 241.707 183.261 241.755C183.153 241.803 183.06 241.878 182.992 241.971C182.901 242.08 182.846 242.212 182.837 242.352C182.827 242.491 182.862 242.629 182.938 242.749C183.7 243.883 183.962 245.257 183.67 246.573Z" fill="#F5F5F5"/>
<path d="M181.726 248.842C182.021 248.709 182.278 248.51 182.475 248.263C182.671 248.016 182.803 247.727 182.857 247.422C183.028 246.162 182.774 244.884 182.132 243.771C182.08 243.675 182.003 243.593 181.908 243.533C181.814 243.472 181.705 243.436 181.591 243.426C181.478 243.417 181.364 243.434 181.259 243.478C181.155 243.521 181.064 243.589 180.995 243.674C180.906 243.778 180.853 243.906 180.845 244.04C180.836 244.173 180.872 244.306 180.947 244.42C181.42 245.053 181.736 245.78 181.871 246.546C182.006 247.312 181.956 248.097 181.726 248.842Z" fill="#F5F5F5"/>
<path d="M179.877 251.4C180.156 251.238 180.396 251.022 180.579 250.764C180.763 250.507 180.886 250.215 180.941 249.909C181.085 248.69 180.817 247.458 180.175 246.393C180.123 246.297 180.046 246.215 179.951 246.155C179.857 246.095 179.748 246.058 179.634 246.049C179.521 246.039 179.407 246.057 179.302 246.1C179.198 246.144 179.107 246.211 179.037 246.297C178.947 246.401 178.894 246.53 178.885 246.665C178.877 246.801 178.914 246.935 178.99 247.049C179.487 247.657 179.827 248.368 179.981 249.124C180.135 249.88 180.1 250.66 179.877 251.4Z" fill="#F5F5F5"/>
<path d="M188.146 232.393C190.178 231.911 193.117 231.23 194.336 229.7C195.555 228.17 198.095 226.692 201.522 228.832C203.689 230.188 206.262 230.632 208.836 230.793C209.981 230.767 211.126 230.818 212.263 230.947C213.616 231.298 214.897 231.861 216.055 232.612C216.788 233.003 217.431 233.529 217.945 234.161C218.363 234.752 218.592 235.446 218.602 236.158C218.613 236.87 218.406 237.57 218.006 238.172C217.866 238.389 217.685 238.579 217.471 238.731C217.204 238.91 216.899 239.03 216.577 239.085C215.392 239.335 214.403 238.982 213.285 238.686C212.358 238.442 211.409 238.255 210.468 238.095C208.325 237.714 206.158 237.473 203.98 237.375C203.052 237.343 201.122 237.201 200.194 237.266C196.321 237.516 190.842 239.586 190.842 239.586L188.146 232.393Z" fill="#FFA8A7"/>
<path d="M147.864 250.025C148.501 253.74 152.896 255.534 162.317 253.747C171.737 251.96 194.147 238.558 194.147 238.558C194.147 238.558 193.273 233.415 188.119 232.04C188.119 232.04 183.433 232.85 175.78 234.431C172.33 235.151 168.923 236.045 165.574 237.111C160.4 243.7 155.023 241.039 153.086 243.353C149.896 247.203 147.864 250.025 147.864 250.025Z" fill="#37474F"/>
<path d="M218.974 238.378C219.531 238.038 219.931 237.509 220.092 236.899C220.234 236.327 219.001 233.37 215.764 231.21C213.363 229.619 210.557 228.666 207.637 228.453C205.843 228.292 204.508 227.495 202.897 226.415C201.285 225.335 198.704 224.526 197.797 224.943C196.889 225.361 196.287 226.814 196.287 226.814L218.974 238.378Z" fill="#263238"/>
<path d="M198.8 238.069C199.782 238.789 200.743 238.384 201.834 238.018C203.324 237.516 205.376 237.722 207.489 238.101C208.924 238.358 210.245 238.744 211.654 239.065C213.062 239.387 214.728 240.222 216.002 240.351C217.857 240.499 219.659 238.686 218.941 236.874C218.318 235.305 215.812 232.207 211.803 230.581C209.622 229.694 206.114 229.983 203.628 228.369C201.969 227.29 199.924 226.049 197.865 225.895C196.646 225.798 196.199 226.441 195.589 227.322C194.784 228.487 193.901 229.604 192.948 230.664C193.769 231.509 194.819 232.122 195.982 232.438C196.387 232.508 196.772 232.657 197.113 232.875C197.314 233.061 197.479 233.279 197.601 233.518C197.791 233.833 197.973 234.238 197.763 234.547C197.662 234.658 197.553 234.763 197.438 234.862C197.052 235.286 197.283 235.935 197.54 236.436C197.802 236.991 198.164 237.498 198.61 237.934C198.67 237.983 198.734 238.028 198.8 238.069Z" fill="#BA68C8"/>
<path opacity="0.4" d="M198.8 238.069C199.782 238.789 200.743 238.384 201.834 238.018C203.324 237.516 205.376 237.722 207.489 238.101C208.924 238.358 210.245 238.744 211.654 239.065C213.062 239.387 214.728 240.222 216.002 240.351C217.857 240.499 219.659 238.686 218.941 236.874C218.318 235.305 215.812 232.207 211.803 230.581C209.622 229.694 206.114 229.983 203.628 228.369C201.969 227.29 199.924 226.049 197.865 225.895C196.646 225.798 196.199 226.441 195.589 227.322C194.784 228.487 193.901 229.604 192.948 230.664C193.769 231.509 194.819 232.122 195.982 232.438C196.387 232.508 196.772 232.657 197.113 232.875C197.314 233.061 197.479 233.279 197.601 233.518C197.791 233.833 197.973 234.238 197.763 234.547C197.662 234.658 197.553 234.763 197.438 234.862C197.052 235.286 197.283 235.935 197.54 236.436C197.802 236.991 198.164 237.498 198.61 237.934C198.67 237.983 198.734 238.028 198.8 238.069Z" fill="black"/>
<path d="M205.429 237.812C205.158 237.925 204.862 237.971 204.567 237.946C204.272 237.922 203.989 237.827 203.743 237.671C202.964 237.272 202.172 235.884 201.928 234.733C201.894 234.624 201.891 234.508 201.92 234.398C201.949 234.288 202.008 234.186 202.091 234.105C202.174 234.023 202.279 233.964 202.394 233.933C202.51 233.902 202.631 233.901 202.747 233.93C202.891 233.954 203.023 234.019 203.126 234.117C203.229 234.215 203.298 234.34 203.323 234.476C203.538 235.807 204.294 237.005 205.429 237.812Z" fill="#F5F5F5"/>
<path d="M208.491 238.3C208.175 238.385 207.843 238.396 207.522 238.332C207.201 238.268 206.902 238.132 206.649 237.934C205.643 237.09 204.945 235.965 204.657 234.72C204.635 234.618 204.639 234.512 204.67 234.412C204.7 234.312 204.756 234.22 204.832 234.145C204.908 234.07 205.002 234.013 205.106 233.98C205.21 233.947 205.321 233.938 205.429 233.955C205.568 233.979 205.695 234.043 205.794 234.139C205.892 234.234 205.956 234.357 205.978 234.489C206.069 235.262 206.342 236.006 206.777 236.666C207.212 237.326 207.797 237.885 208.491 238.3Z" fill="#F5F5F5"/>
<path d="M211.653 239.098C211.331 239.15 211 239.137 210.683 239.058C210.367 238.98 210.072 238.837 209.818 238.641C208.864 237.814 208.212 236.72 207.955 235.517C207.928 235.413 207.93 235.303 207.959 235.199C207.988 235.095 208.044 234.999 208.122 234.921C208.201 234.843 208.298 234.785 208.406 234.752C208.515 234.719 208.63 234.713 208.741 234.733C208.881 234.756 209.01 234.819 209.109 234.915C209.209 235.011 209.274 235.134 209.296 235.267C209.347 236.036 209.586 236.783 209.995 237.448C210.404 238.113 210.972 238.678 211.653 239.098Z" fill="#F5F5F5"/>
<path d="M172.102 235.241C172.102 235.241 165.777 236.417 161.084 239.412C161.084 239.412 165.906 234.052 173.355 233.094L172.102 235.241Z" fill="#263238"/>
<path d="M195.792 189.462L187.909 168.327L185.83 169.034L187.076 192.38L188.431 195.851C191.959 194.102 194.837 192.817 195.792 189.462Z" fill="#FFA8A7"/>
<path d="M177.25 162.773C182.133 162.825 186.589 164.509 188.438 168.14C190.287 171.772 195.948 188.272 195.948 188.272C195.948 188.272 191.303 193.46 184.435 193.042L177.25 162.773Z" fill="#BA68C8"/>
<path opacity="0.1" d="M177.25 162.773C182.133 162.825 186.589 164.509 188.438 168.14C190.287 171.772 195.948 188.272 195.948 188.272C195.948 188.272 191.303 193.46 184.435 193.042L177.25 162.773Z" fill="black"/>
<path d="M167.233 163.056C160.386 164.258 155.822 165.627 154.528 166.842C151.616 172.505 155.402 191.486 155.402 191.486L156.079 200.518L154.873 210.931C162.276 216.87 184.929 213.952 188.966 205.634C188.966 205.634 187.835 178.56 187.835 173.758C187.835 168.957 185.031 163.204 177.277 162.773L167.233 163.056Z" fill="#FAFAFA"/>
<path d="M162.248 206.849C160.264 203.963 160.345 196.622 160.345 196.622C160.345 196.622 163.813 177.467 163.014 172.903L153.864 181.247C154.447 186.73 155.402 191.531 155.402 191.531L156.079 200.563L154.873 210.976C160.792 215.726 176.464 214.832 184.57 209.992C172.671 214.472 164.226 209.735 162.248 206.849Z" fill="#EBEBEB"/>
<path d="M163.441 147.822C163.441 147.822 164.47 155.028 165.019 156.236C165.387 156.984 166.044 157.568 166.854 157.869L167.138 152.874L163.441 147.822Z" fill="#263238"/>
<path d="M166.251 137.775C165.7 137.672 165.132 137.691 164.59 137.829C164.047 137.967 163.545 138.221 163.123 138.572C161.714 139.748 162.134 143.779 163.454 147.79L166.427 148.33L166.251 137.775Z" fill="#263238"/>
<path d="M167.321 148.394C166.698 148.69 165.926 147.539 165.242 146.748C164.558 145.958 162.221 144.781 160.826 147.108C159.431 149.435 161.436 152.893 163.298 153.594C166.501 154.802 167.152 152.842 167.152 152.842L166.474 164.309C169.447 170.454 181.313 168.262 177.263 164.039L177.48 161.127C179.119 161.357 180.773 161.475 182.43 161.481C184.875 161.295 185.986 159.784 186.913 157.354C188.403 153.459 189.108 150.284 188.722 142.371C188.309 133.713 177.798 132.877 171.852 135.866C165.905 138.855 167.321 148.394 167.321 148.394Z" fill="#FFA8A7"/>
<path d="M167.111 133.115C169.168 132.448 171.296 132.002 173.457 131.784C178.116 131.142 182.857 130.627 187.205 128.911C187.718 128.644 188.303 128.53 188.885 128.583C189.982 128.795 190.361 130.1 190.32 131.154C190.286 132.139 190.076 133.111 189.697 134.028C190.054 133.746 190.514 133.611 190.976 133.651C191.438 133.69 191.865 133.902 192.162 134.24C192.444 134.59 192.637 134.997 192.727 135.43C192.818 135.862 192.803 136.308 192.684 136.734C192.412 137.689 191.9 138.567 191.193 139.294C190.485 140.02 189.602 140.573 188.62 140.905C186.653 141.558 184.56 141.801 182.485 141.619C179.585 141.492 176.707 141.078 173.897 140.385C173.227 140.175 172.524 140.077 171.818 140.096C171.464 140.107 171.12 140.213 170.826 140.402C170.533 140.591 170.302 140.855 170.159 141.163C169.773 142.223 168.872 149.57 167.274 149.519C166.976 149.519 165.994 147.59 165.303 146.858C164.443 145.958 164.01 139.575 163.949 138.399C163.933 138.306 163.896 138.219 163.84 138.142C162.906 136.676 164.314 134.426 165.662 133.758C166.132 133.518 166.616 133.304 167.111 133.115Z" fill="#263238"/>
<path d="M164.409 138.257C163.999 138.65 163.442 138.873 162.86 138.876C162.277 138.879 161.718 138.662 161.304 138.273C160.89 137.885 160.655 137.356 160.652 136.803C160.649 136.25 160.877 135.719 161.287 135.326L164.409 138.257Z" fill="#263238"/>
<path d="M177.473 161.128C177.473 161.128 172.13 160.253 170.322 159.199C169.258 158.572 168.418 157.656 167.911 156.57C168.111 157.637 168.537 158.654 169.164 159.559C170.41 161.327 177.324 163.056 177.324 163.056L177.473 161.128Z" fill="#F28F8F"/>
<path d="M178.015 147.822C177.991 148.022 177.905 148.211 177.768 148.365C177.631 148.52 177.45 148.632 177.246 148.69C177.042 148.747 176.825 148.746 176.622 148.687C176.419 148.628 176.239 148.514 176.103 148.358C175.968 148.203 175.884 148.013 175.861 147.813C175.839 147.612 175.879 147.41 175.976 147.231C176.074 147.052 176.225 146.904 176.41 146.805C176.596 146.707 176.808 146.663 177.02 146.678C177.164 146.691 177.305 146.73 177.433 146.795C177.561 146.859 177.675 146.947 177.768 147.054C177.86 147.16 177.93 147.283 177.972 147.414C178.015 147.546 178.029 147.685 178.015 147.822Z" fill="#263238"/>
<path d="M177.175 143.862L174.771 144.91C174.629 144.597 174.62 144.245 174.747 143.926C174.873 143.607 175.124 143.347 175.448 143.2C175.607 143.133 175.778 143.097 175.952 143.094C176.126 143.091 176.299 143.121 176.46 143.183C176.621 143.245 176.768 143.337 176.89 143.454C177.013 143.57 177.11 143.709 177.175 143.862Z" fill="#263238"/>
<path d="M177.473 154.944L179.871 155.998C179.803 156.151 179.704 156.288 179.579 156.404C179.454 156.519 179.306 156.609 179.144 156.669C178.981 156.729 178.808 156.758 178.634 156.753C178.46 156.748 178.288 156.71 178.13 156.641C177.807 156.497 177.557 156.238 177.434 155.921C177.311 155.603 177.325 155.252 177.473 154.944Z" fill="#F28F8F"/>
<path d="M187.578 145.482L185.593 143.792C185.702 143.663 185.838 143.557 185.991 143.481C186.145 143.404 186.314 143.358 186.487 143.345C186.66 143.332 186.834 143.354 186.999 143.407C187.163 143.461 187.314 143.546 187.442 143.657C187.706 143.887 187.868 144.204 187.893 144.544C187.918 144.883 187.805 145.219 187.578 145.482Z" fill="#263238"/>
<path d="M186.717 148.156C186.693 148.356 186.607 148.545 186.47 148.7C186.333 148.854 186.152 148.967 185.948 149.024C185.744 149.081 185.527 149.08 185.324 149.021C185.121 148.962 184.941 148.848 184.805 148.693C184.67 148.537 184.586 148.347 184.563 148.147C184.541 147.946 184.581 147.744 184.679 147.565C184.776 147.386 184.927 147.238 185.113 147.14C185.298 147.041 185.51 146.997 185.722 147.012C186.013 147.04 186.281 147.175 186.468 147.39C186.654 147.604 186.744 147.879 186.717 148.156Z" fill="#263238"/>
<path d="M181.211 147.102L181.076 153.286L184.557 152.431L181.211 147.102Z" fill="#F28F8F"/>
<path d="M146.618 210.114C142.229 205.923 141.525 204.554 142.121 201.938C143.3 196.796 148.115 180.334 149.943 175.442C152.239 169.297 153.262 166.842 157.081 166.051C160.163 168.365 163.177 177.03 159.032 184.834L154.034 201.867" fill="#FFA8A7"/>
<path d="M160.359 164.534C154.461 165.177 151.962 167.44 149.835 173.488C147.709 179.537 143.97 193.46 143.97 193.46C143.97 193.46 148.921 198.551 155.863 198.017L161.646 179.826C161.646 179.826 165.716 166.598 160.359 164.534Z" fill="#BA68C8"/>
<path opacity="0.1" d="M160.359 164.534C154.461 165.177 151.962 167.44 149.835 173.488C147.709 179.537 143.97 193.46 143.97 193.46C143.97 193.46 148.921 198.551 155.863 198.017L161.646 179.826C161.646 179.826 165.716 166.598 160.359 164.534Z" fill="black"/>
<path d="M158.991 227.193V227.836C158.993 228.158 159.083 228.475 159.253 228.755C159.423 229.034 159.666 229.267 159.96 229.43L178.421 239.509C178.715 239.669 179.048 239.753 179.386 239.753C179.725 239.753 180.058 239.669 180.351 239.509L214.213 220.952C214.508 220.792 214.753 220.56 214.923 220.282C215.093 220.003 215.182 219.686 215.182 219.364V218.914L179.39 238.532L158.991 227.193Z" fill="#EBEBEB"/>
<path d="M215.182 218.92L195.109 207.922C194.933 207.825 194.733 207.773 194.53 207.773C194.326 207.773 194.126 207.825 193.951 207.922L159.12 227.007C159.081 227.028 159.048 227.059 159.025 227.096C159.002 227.133 158.99 227.176 158.99 227.219C158.99 227.262 159.002 227.304 159.025 227.341C159.048 227.379 159.081 227.41 159.12 227.431L179.39 238.538L215.182 218.92Z" fill="#FAFAFA"/>
<path d="M206.256 207.775C203.5 203.134 195.793 189.462 195.793 189.462L188.438 195.889C191.438 201.276 199.585 212.113 199.585 212.113C203.33 214.434 207.841 210.449 206.256 207.775Z" fill="#FFA8A7"/>
<path d="M179.2 236.918L168.371 230.992L200.039 213.643L210.922 219.537L179.2 236.918Z" fill="#E0E0E0"/>
<path d="M173.884 220.431L174.08 220.54L179.389 223.446L188.83 218.278L189.02 218.168L183.514 215.154L173.884 220.431Z" fill="#E0E0E0"/>
<path d="M174.08 220.54L179.389 223.446L188.83 218.278L183.514 215.366L174.08 220.54Z" fill="#E6E6E6"/>
<path d="M179.39 238.538V239.74C179.727 239.742 180.06 239.658 180.351 239.496L214.213 220.939C214.508 220.779 214.753 220.548 214.923 220.269C215.093 219.99 215.182 219.673 215.182 219.351V218.901L179.39 238.538Z" fill="#EBEBEB"/>
<path d="M179.39 238.538V239.74C179.727 239.742 180.06 239.658 180.351 239.496L214.213 220.939C214.508 220.779 214.753 220.548 214.923 220.269C215.093 219.99 215.182 219.673 215.182 219.351V218.901L179.39 238.538Z" fill="#E0E0E0"/>
<path d="M179.932 238.808C180.251 238.927 180.595 238.977 180.937 238.952C181.28 238.928 181.612 238.83 181.909 238.667L215.622 220.187C215.915 220.028 216.167 219.81 216.36 219.547C216.554 219.285 216.683 218.985 216.74 218.67L220.431 197.779C220.441 197.659 220.441 197.539 220.431 197.419C220.431 197.132 220.371 196.848 220.255 196.583C220.139 196.319 219.968 196.078 219.753 195.877L184.72 215.077C184.503 215.195 184.317 215.357 184.174 215.551C184.031 215.746 183.935 215.968 183.894 216.201L179.932 238.808Z" fill="#BA68C8"/>
<g opacity="0.7">
<path d="M179.932 238.808C180.251 238.927 180.595 238.977 180.937 238.952C181.28 238.928 181.612 238.83 181.909 238.667L215.622 220.187C215.915 220.028 216.167 219.81 216.36 219.547C216.554 219.285 216.683 218.985 216.74 218.67L220.431 197.779C220.441 197.659 220.441 197.539 220.431 197.419C220.431 197.132 220.371 196.848 220.255 196.583C220.139 196.319 219.968 196.078 219.753 195.877L184.72 215.077C184.503 215.195 184.317 215.357 184.174 215.551C184.031 215.746 183.935 215.968 183.894 216.201L179.932 238.808Z" fill="white"/>
</g>
<path d="M179.39 238.538L179.62 238.667C179.72 238.72 179.824 238.768 179.931 238.808L183.92 216.202C183.962 215.968 184.058 215.746 184.201 215.551C184.344 215.357 184.53 215.195 184.747 215.077L219.78 195.877C219.641 195.744 219.484 195.63 219.313 195.536L184.205 214.775C183.989 214.893 183.803 215.055 183.662 215.249C183.52 215.444 183.425 215.666 183.385 215.899L179.39 238.538Z" fill="#FAFAFA"/>
<path d="M198.921 219.525C199.165 218.123 200.689 216.266 202.308 215.372C203.926 214.479 205.057 214.89 204.807 216.291C204.556 217.693 203.039 219.544 201.42 220.437C199.802 221.331 198.657 220.926 198.921 219.525Z" fill="#BA68C8"/>
<path d="M154.034 201.867C154.034 201.867 156.567 205.859 159.493 209.581C162.418 213.302 165.588 217.223 167.958 217.886C170.186 218.528 172.8 219.255 173.559 219.917C175.381 221.672 177.078 223.54 178.638 225.509C179.315 226.608 181.015 228.845 178.638 229.559C176.464 230.201 174.69 229.327 172.929 228.177C172.099 227.612 171.309 226.996 170.565 226.332C168.802 226.515 167.021 226.179 165.466 225.368C164.111 224.648 161.876 223.388 161.876 223.388C160.021 222.179 150.804 214.08 146.618 210.095" fill="#FFA8A7"/>
</svg>
